<?xml version="1.0" standalone="no"?>
<!DOCTYPE svg PUBLIC "-//W3C//DTD SVG 1.1//EN" "http://www.w3.org/Graphics/SVG/1.1/DTD/svg11.dtd" >
<svg xmlns="http://www.w3.org/2000/svg">
<metadata></metadata>
<defs>
<font id="vivaldiregular" horiz-adv-x="874" >
<font-face units-per-em="2048" ascent="1638" descent="-410" />
<missing-glyph horiz-adv-x="512" />
<glyph horiz-adv-x="0" />
<glyph horiz-adv-x="682" />
<glyph unicode=" "  horiz-adv-x="512" />
<glyph unicode="&#x09;" horiz-adv-x="512" />
<glyph unicode="&#xa0;" horiz-adv-x="512" />
<glyph unicode="!" horiz-adv-x="407" d="M111 45q0 29 20 49q21 21 47 21q20 0 34 -14q13 -13 13 -31q0 -28 -20 -48q-22 -22 -47 -22q-19 0 -33 13t-14 32zM199 342v19q0 6 2 20q1 45 15 96q14 55 40 127q2 9 3 10t1 4q6 18 16 44q15 39 99 258q59 152 82 220q20 60 20 89q0 35 -27 51q-26 16 -90 16l13 33h22 h117q34 0 48 1t40 1q4 1 12.5 2t12.5 1l24 3q-1 -7 -5 -16t-5 -16q-1 -2 -2.5 -6t-1.5 -5q-2 -6 -2 -10q-15 -45 -76 -209q-28 -77 -158 -405q-67 -172 -74 -188q-12 -30 -35 -83t-26 -61q-2 -12 -6 -19q-1 -2 -8 -18q-3 -5 -8 -16t-8 -17q-5 -11 -15 -35q-1 3 -3.5 11 t-4.5 12q-5 11 -6 20q-3 10 -5 30q-1 10 -1 36z" />
<glyph unicode="&#x22;" horiz-adv-x="352" d="M317 1047q2 4 6 11t5 10q1 2 3.5 8t4.5 9q0 4 1 5t3 4q4 12 14 40q2 5 23 58l7 19q8 19 15 42q0 2 1 3t1 4q2 6 5.5 12t3.5 7t2 4t2 5l5 16q4 11 13 35h19h11h9q14 0 22 1q15 2 31 3l-15 -30l-13 -27l-1 -2l-1 -2q-3 -7 -9.5 -20.5t-8.5 -17.5q-16 -35 -23 -48 q-29 -63 -39 -85l-19 -38l-4 -8l-2 -8l-4 -8h-27h-16q-5 0 -25 -2zM481 1047q2 4 6 11t5 10q1 2 3.5 8t4.5 9q0 4 1 5t3 4q4 12 14 40q2 5 23 58l3 9q5 15 9 26q9 20 18 48q1 5 4 11t3 8q3 4 7 16q1 3 4.5 12t6.5 17h18h12h9q13 0 21 1q13 2 32 3l-15 -30l-14 -27l-1 -2 l-1 -2q-5 -12 -17 -38q-9 -20 -24 -48l-18 -41q-28 -58 -33 -70q-1 -4 -3 -8.5t-3.5 -7t-1.5 -4.5q-1 -1 -3 -5q0 -1 -1 -2.5t-2 -4t-2 -4.5h-27h-16q-5 0 -25 -2z" />
<glyph unicode="#" horiz-adv-x="819" d="M-27 0q98 149 118 181q42 67 89 147q2 5 5 10t7 11l6 9q12 20 17 31l10.5 21t13 24.5t11.5 21.5q3 5 16.5 30t20.5 40h-166v33h182q24 52 33 70l29 61q1 1 2 4t1 4l3 9q5 9 13.5 29.5t9.5 22.5q3 7 11.5 27.5t14.5 32.5h-193v33h207q55 133 87 231q34 103 34 138 q0 31 -21 43q-22 12 -75 14v33h82h14q4 0 10 2h6h2q25 2 52.5 3.5t32.5 1.5q13 1 26 1h4h6q-9 -24 -10 -27q-4 -9 -4 -14l-23 -66l-24 -65l-23 -66q-15 -49 -32 -89q-16 -39 -62 -140h219q6 16 16 38.5t13 30.5q9 22 16 48q2 2 2 4t2 4q1 2 3 7t3 7q3 8 5 17q29 82 45 136 q16 55 16 77q0 31 -21 43q-22 12 -75 14v33h82h14q4 0 10 2h6h2q25 2 54 3.5t34 1.5q13 1 23 1h4h6q-6 -17 -9 -27q-1 -4 -3 -9l-2 -5l-23 -66l-24 -65l-23 -66q-12 -37 -31 -85q-7 -17 -63 -144h141v-33h-155q-7 -15 -34 -75q-13 -29 -28 -56q0 -2 -1 -3t-1 -3 q-16 -36 -26 -54q-6 -10 -17.5 -34t-17.5 -35h172v-33h-188q-12 -25 -38 -69t-38 -66q-24 -45 -51 -87q-36 -56 -54 -83q-43 -66 -73 -107q-11 -15 -38.5 -53.5t-43.5 -60.5h-52q68 100 129 198q64 104 95 158q7 15 17 32t17 32q10 18 28 52q5 9 14 27t14 27h-228 q-7 -13 -59 -106q-32 -57 -57 -98q-25 -40 -61 -97q-47 -73 -62 -94q-19 -28 -46 -65l-48 -66h-54zM377 559h227q29 59 41 87q33 74 35 79q1 2 3.5 9t4.5 10q1 2 3.5 8.5t4.5 9.5l13 29l12 28h-219q-16 -35 -19 -42q-8 -21 -18 -38l-4 -8l-4 -8q-11 -23 -35 -73 q-25 -52 -45 -91z" />
<glyph unicode="$" d="M33 213q0 16 2 44q1 19 8 42q12 53 46 107q35 56 97 133q9 -1 23 -2.5t15 -1.5q2 0 12.5 -1.5t15.5 -1.5h22h13q-3 -8 -7.5 -18t-5.5 -13l-3.5 -10.5t-4.5 -11.5l-1 -2l-1 -2q-6 -14 -10 -22l-16 -33q-8 -2 -10 -2h-5l-41 2h-2q-38 0 -67 -45q-29 -46 -29 -103 q0 -91 63 -157q62 -65 175 -88q47 69 104 187q60 124 119 265q-63 54 -105 103q-36 41 -59 86q-15 28 -21 59q-6 30 -6 68q0 12 2 38q1 17 6 39q24 106 107 207q84 102 205 170q24 14 36 19q7 3 18 8.5l15 7.5q70 30 144 44q71 13 168 13h22h19q10 -2 15 -2t15 -2 q-2 -4 -5 -11.5t-4 -11.5l-9 -24l-4 -8q-2 -6 -2 -10q-18 -39 -42 -100q-17 -43 -54 -125h-35q18 47 27 81q10 38 10 56q0 30 -25 46q-24 15 -76 15q-193 0 -327 -105t-134 -259q0 -23 6 -59q5 -28 19 -54q18 -37 48 -73q33 -40 81 -83q20 56 32 86q8 19 13 37v1v1 q1 2 2 4.5t1 3.5q1 3 3 11q23 69 33 107q10 40 10 61q0 32 -20 43q-22 13 -72 14v31h43h21h14h13h9q12 0 20 1q12 1 42 3l24 2h11h2q2 2 4 2h6q-23 -70 -37 -111q-21 -60 -45 -123q-3 -7 -8.5 -21t-7.5 -21q-2 -6 -8 -21t-9 -23q-14 -39 -25 -63q-18 -40 -26 -59l5 -6l3 -3 l5 -5q12 -12 16 -17q53 -53 80 -86q26 -31 37 -62q5 -16 6 -28q2 -20 2 -33q0 -143 -143 -256t-324 -113l-105 -155h-39l101 155q-125 18 -191 81q-65 62 -65 163zM367 20h32q121 0 217 75q97 76 97 165q0 8 -1 12t-1 13q-6 28 -34 66q-27 36 -87 93q-43 -91 -84 -175 q-33 -68 -68 -128q-2 -5 -7 -14t-8 -14q-7 -15 -15 -27l-21 -33z" />
<glyph unicode="%" horiz-adv-x="1445" d="M360 1047q0 15 1 23q1 4 2.5 11.5t1.5 10.5q21 101 111 188q91 88 196 109l24 3q8 1 25 1q85 0 142 -57t57 -140q0 -53 -27 -110q-24 -51 -80 -115q-18 -21 -39 -39t-39 -33q-40 -30 -78 -44q-39 -15 -77 -15q-93 0 -156 60q-64 61 -64 147zM428 20l840 1340l39 -19 l-836 -1341zM428 1104q0 -83 50 -135t134 -52q96 0 164 68t68 162q0 79 -46 129q-47 51 -118 51q-100 0 -176 -66t-76 -157zM811 180q0 16 1 24q0 4 0.5 7.5t1.5 7.5t1 6q21 101 112 189q90 87 195 108q4 0 12.5 1t12.5 2q8 1 24 1q87 0 143 -56t56 -140q0 -53 -27 -110 q-27 -56 -79 -116q-15 -17 -39 -38q-21 -18 -39 -33q-38 -27 -78 -43q-39 -15 -78 -15q-93 0 -156 60t-63 145zM879 238q0 -84 50 -136q49 -51 134 -51q96 0 164 68q67 67 67 162q0 79 -46 129q-46 51 -118 51q-98 0 -176 -67q-75 -65 -75 -156z" />
<glyph unicode="&#x26;" horiz-adv-x="1873" d="M59 303q0 122 76 216q79 97 213 149q61 23 139 39q79 16 164 24q12 0 17 1t16 1q3 0 9 0.5t17.5 1t21.5 0.5q7 0 38 1.5t51 2.5q44 1 67 13q21 11 36 34q-238 1 -345 48q-104 45 -104 151q0 81 55 149t168 130q60 33 113 52q59 22 115 32q39 8 68 11q34 3 69 3h15h16 q5 0 14.5 -1t14.5 -2q10 -1 32 -3q-13 -29 -16 -37q-2 -6 -8 -20.5t-9 -22.5q-12 -28 -24 -63q-3 -8 -7.5 -21.5t-8.5 -24t-7 -20.5q-1 -5 -4 -14.5t-5 -14.5t-5 -14t-4 -14l-31 10q2 7 6.5 24t6.5 24q5 22 5 38v4v4q0 41 -22 57q-23 17 -80 17q-167 0 -268 -62t-101 -164 q0 -88 66 -142t197 -75q19 -3 107 -8q29 -2 190 -8q93 -1 161 -3q44 -1 111 -1q188 0 286 14q107 15 156 47q50 30 77 80q28 51 28 105q0 11 -3 26q-4 20 -7 31q27 -7 46 -31q17 -21 17 -53q0 -25 -25 -66q-20 -33 -65 -81q-31 -31 -67 -61q-39 -32 -74 -54 q-51 -33 -120 -51q-71 -19 -155 -23q-8 -25 -15 -41q-3 -7 -9 -20.5t-7 -14.5q-10 -19 -11 -23q-3 -8 -11 -24q-16 -29 -39 -60t-57 -81q2 -2 2 -3t2 -1q0 -3 11 -11q3 -3 12 -10.5t26.5 -23t34.5 -29.5q8 -6 46 -40q22 -20 68 -64q52 -50 101 -89q31 -24 55 -26h4h4 q21 0 45 18q26 19 72 70l22 -20q-1 -1 -2 -3l-1 -2l-1 -2q-1 -2 -2 -2l-1 -1l-1 -1q-3 -4 -30 -33q-5 -5 -25 -26t-35 -37l-5 -5l-5 -5l-4 -4l-4 -4q-18 -18 -38 -41q-19 -21 -50 -56q-40 38 -105 103q-32 32 -86 84q-4 3 -10 9t-10 9q-5 5 -34 31.5t-45 41.5 q-12 11 -44.5 40t-52.5 47q-105 -100 -229 -177q-118 -73 -247 -118q-77 -27 -149 -39q-73 -12 -143 -12q-200 0 -318 84q-119 84 -119 227zM174 371q0 -135 117 -216t309 -81q178 0 343 77q163 76 282 218q-23 23 -64 53q-47 34 -84 59q-12 10 -16 12q-3 1 -8.5 4t-8.5 5 q-56 34 -102 54q-51 21 -90 28q-11 1 -31 3q-10 1 -30 1q-100 0 -161 -64t-61 -172v-7v-5q0 -9 2 -29q0 -3 1.5 -15l2.5 -20q-3 3 -5 4q-4 2 -5 3q-28 21 -40 43q-11 21 -11 57q0 15 3 28q3 14 7 27q27 72 109 136q84 66 174 88q18 4 36 6q24 2 36 2q13 0 21 -1t24 -1 q74 -10 160 -57t212 -146q33 45 57 98q23 52 46 125h-17q-14 0 -17 1t-9 1h-2h-4q-12 0 -23 1t-57 1l-80 2q-52 2 -59 2h-21q-61 3 -178 5q-49 1 -98 1q-171 0 -292 -19q-127 -20 -196 -56q-81 -40 -127 -109q-45 -68 -45 -147z" />
<glyph unicode="'" horiz-adv-x="188" d="M309 1047l5.5 11t4.5 10q6 12 9 17q0 4 1 5t3 4q4 12 14 40q2 5 23 58l7 19q8 19 15 42q0 2 1 3t1 4q1 3 2.5 6.5t2.5 5.5l2 4t1 3q1 1 3 4t2 5l5 16q4 11 13 35h18h12h9q13 0 21 1q13 2 32 3l-15 -30l-14 -27l-1 -2l-1 -2q-5 -12 -17 -38q-9 -20 -24 -48 q-4 -9 -17.5 -40t-20.5 -45l-19 -38l-4 -8l-2 -8l-4 -8h-27h-16q-5 0 -25 -2z" />
<glyph unicode="(" horiz-adv-x="507" d="M141 346q0 383 214 714q213 330 532 441l4 -20q-157 -66 -264 -169q-111 -106 -193 -265q-57 -108 -101 -259t-61 -294q-8 -57 -11 -108q-3 -54 -3 -107q0 -32 2 -88q1 -41 6 -82q7 -50 20 -117q15 -73 29 -127q-87 61 -131 181q-43 119 -43 300z" />
<glyph unicode=")" horiz-adv-x="505" d="M-61 -115q141 83 255 216q110 129 189 315q40 91 69 192q27 95 50 211q16 85 24 171q9 103 9 163q0 68 -7 136q-7 66 -20 112l-15 45q-7 22 -18 45l-1 1l-1 1q0 3 -1 4t-1 4q80 -41 128 -156q48 -116 48 -270v-32q0 -9 -2 -29q-16 -366 -215 -692q-199 -327 -483 -457 l-2 -2z" />
<glyph unicode="*" horiz-adv-x="919" d="M440 1198l58 86l3 -3l1 -1q4 -4 9 -7q1 -1 36 -30q30 -23 44 -35q12 -10 34 -26q2 0 3 -1l3 -3q18 -12 39 -27q27 -19 53 -37l8 33l2 18l4 13l2 14l2 14l7 29l6 31l6 30q12 66 13 68q3 12 3 14q0 3 1 4t1 7l101 -29q-14 -41 -37 -97q-20 -50 -21 -53v-4q0 -2 -2 -2 q-4 -12 -12 -40q-2 -7 -8.5 -27.5t-10.5 -32.5h8q1 0 7 2q6 0 26 2q12 1 41 6q15 1 45 5q28 4 48 5q43 7 45 7q22 2 28 2t9 1t10 1l4 -103q-8 1 -102 5q-21 1 -56 1h-20h-23h-78l3 -6q1 -1 1 -4q2 -2 5 -10q3 -7 20 -43q6 -12 8 -18q1 -2 2 -5t2 -4q3 -2 4 -7q0 -1 3.5 -7 t5.5 -12q16 -38 21 -48l7 -14l2 -6l6 -12q12 -24 18 -39l3 -8l2 -7l2 -4l4 -4l-98 -37q-5 16 -11.5 40t-8.5 31q-3 10 -7.5 27.5t-5.5 22.5q0 5 -1 6l-3 7q-7 26 -15 53q-3 8 -6.5 19.5t-9.5 29t-10 29.5l-14 -14q-8 -6 -11 -9q-9 -9 -15 -14l-28 -25q-2 -2 -26 -24t-41 -39 q-20 -20 -27 -26q-19 -16 -20 -17q-7 -7 -11 -10t-12 -11l-63 80q27 17 62 42q8 5 16 10.5t17.5 12t14.5 9.5l4 4q2 2 4 2q39 27 51 36q53 41 60 46l-2 2l-6 3l-2 1q-13 8 -26.5 15.5t-22 12t-11.5 6.5q-12 7 -18 9l-8 4q-5 2 -13 8l-26 15q-14 7 -20 11t-9 5q-3 3 -6 4 q-1 0 -3 1.5t-5 3.5t-6 3q-28 15 -39 22t-12 7q-4 0 -5 1t-4 3z" />
<glyph unicode="+" d="M176 557l23 57h313l121 316h55l-119 -316h314l-23 -57h-313l-121 -311h-55l121 311h-316z" />
<glyph unicode="," horiz-adv-x="342" d="M-100 -268q48 103 66 156q20 58 24 108v4v4h-2l110 133q2 -14 2 -18v-13q0 -32 -8 -70q-8 -39 -22 -71q-23 -61 -69 -124q-42 -57 -101 -109z" />
<glyph unicode="-" horiz-adv-x="311" d="M-2 336l63 131h136q53 0 89 2q25 1 48 8q5 3 17 7q6 2 20 10l2 2h1h1q0 -2 -1 -2t-1 -2l-3 -6q0 -1 -1 -2.5t-2 -4t-2 -4.5q-15 -33 -42 -57q-29 -26 -63 -33q-3 0 -4 -1t-4 -1q-14 -2 -28 -2h-77h-51q-23 0 -39 -2q-11 -1 -22 -14q-2 -2 -8 -12q-1 -2 -5 -7.5t-6 -9.5 h-18z" />
<glyph unicode="." horiz-adv-x="342" d="M0 45q0 29 20 49q21 21 48 21q19 0 33 -14t14 -31q0 -27 -21 -48q-22 -22 -47 -22q-19 0 -33 13t-14 32z" />
<glyph unicode="/" horiz-adv-x="679" d="M-84 -141l1081 1648h45l-1083 -1648h-43z" />
<glyph unicode="0" d="M141 305q0 77 16 175q14 88 44 186q28 88 64 168q33 73 85 161q95 157 201 245q107 89 215 101q13 0 19 1t18 1q98 0 150 -70q53 -71 53 -204q0 -24 -2 -74q-1 -25 -7 -71q-12 -81 -29 -146q-18 -67 -55 -164q-113 -305 -254 -464q-140 -158 -290 -158q-107 0 -167 82 q-61 84 -61 231zM240 381q0 -131 48 -200q47 -68 138 -68q110 0 198 85q90 87 158 257q29 66 43 114q27 91 35 119q19 83 29 156q10 74 10 149q0 128 -44 192q-43 62 -134 62h-8h-11q-168 -17 -309 -270t-153 -555v-21v-20z" />
<glyph unicode="1" d="M197 -6l8 12l8 12q4 5 12 19q2 4 6 10.5t5 7.5q14 26 43 81q6 12 55 114q39 81 47 98q21 47 43 98q10 24 30 73.5t30 74.5q33 80 57 149l34 97q16 44 31.5 88t23.5 67.5t11 31.5q11 31 12 32v1l1 2q0 1 1 3q5 15 13 36.5t10 27.5q6 18 6 30q0 3 1 5t1 5v1v4v3v3 q0 11 -8 19q-7 7 -23 7q-9 0 -27 -3t-48 -9l-72 -14l-8 30q8 2 9 2t7 2q2 0 9.5 2.5t13.5 3.5q8 2 65 15q16 5 24 6q10 2 11 2h1h1q2 0 7.5 2t9.5 3q12 3 42 9q8 2 23 6.5t20 5.5q24 6 35 9t31 9q6 2 29 11q7 3 19 9l20 10q-1 -2 -2.5 -4.5t-1.5 -3.5q-1 -5 -3 -6l-4 -9 q-2 -6 -2 -8q-21 -50 -35 -88l-12.5 -35t-19 -51t-19.5 -53q-19 -55 -44 -123q-4 -10 -22.5 -61.5t-29.5 -79.5q-6 -14 -9 -22q-1 -4 -2.5 -7.5t-3.5 -7.5l-3 -6q-11 -34 -27 -71t-27 -67q-45 -118 -81 -204q-6 -14 -30.5 -73t-37.5 -89l-20 -40q-12 -26 -17 -40 q-1 -2 -29 -55q-5 -10 -14 -30.5t-14 -29.5q-65 -32 -78 -37q-26 -11 -53 -16q-14 -2 -20 -3q-12 -2 -19 -3z" />
<glyph unicode="2" d="M-111 0l47 84q72 37 148 87q75 49 162 116q41 31 121 97q56 46 112 99q6 6 16.5 16t15.5 15t15 14.5t15 14.5q36 37 71 74q41 45 66 77q93 119 149 225q58 110 58 175q0 81 -63 138q-62 56 -154 56q-102 0 -179 -80q-76 -79 -94 -209q-32 16 -46 39q-13 22 -13 60 q0 95 134 167t308 72q108 0 170 -62q64 -64 64 -165q0 -76 -47 -162q-46 -84 -156 -205q-5 -6 -14 -15.5t-12 -12.5q-18 -20 -25 -27q-39 -44 -98 -103q-67 -67 -101 -100q-112 -102 -211 -185q-127 -107 -258 -208h375h55q58 0 91 5q29 4 53 28q12 12 27 33t36 51 q0 1 1 2.5t2 2.5t1 2q1 2 4 5h51q-33 -52 -70 -119q-32 -57 -48 -102h-779z" />
<glyph unicode="3" d="M20 166v9v9q1 10 7 30q2 6 5.5 19.5t4.5 18.5q23 -77 106 -120q85 -44 209 -44q171 0 283 97q113 98 113 245q0 113 -96 171q-93 56 -283 56q-15 0 -29 -1q-28 -2 -43 -3q15 19 28 37l11 16.5t10 14.5l3.5 7t4.5 7t4.5 7.5t3.5 7.5q2 4 7 12.5t8 13.5q2 3 7.5 14l8.5 17 q22 -2 32 -3t21 -1q184 0 315 94q132 95 132 219q0 64 -48 104q-47 40 -124 40q-100 0 -178 -70q-77 -70 -101 -186q-20 11 -32 31q-13 21 -13 46q0 55 42 98q41 43 126 76q33 14 60 22q35 10 61 17q47 12 81 16q45 5 75 5q83 0 133 -44q49 -43 49 -118q0 -124 -115 -227 t-291 -133q-37 -7 -63 -19q-23 -11 -41 -33q-2 -3 -8 -11.5t-9 -14.5q-2 -3 -9 -14.5t-11 -18.5q165 -16 245 -83q79 -66 79 -187q0 -174 -144 -301q-143 -127 -342 -127q-130 0 -213 50q-82 49 -82 132z" />
<glyph unicode="4" d="M59 446q13 18 16 23q10 16 15 23q2 3 9 15.5t11 18.5q9 16 15 33q79 28 150 92q74 66 141 168q2 4 7 12.5t8 12.5l15 24q11 19 33 59q11 20 31 60q35 71 59 145q23 71 23 105q0 24 -18 36q-17 11 -64 13l-2 33q24 -2 33 -2h22q24 0 40 1t48 1q10 0 15 1t14 1q21 0 31 1 t24 1q-1 -63 -32 -144q-32 -86 -89 -182q-5 -8 -15 -24.5t-15 -25.5q-25 -40 -29 -46q-27 -38 -56 -77q-22 -29 -61 -70q-44 -48 -92 -94q-44 -41 -121 -105q22 -2 26 -2h11l283 -6h18l62 166q20 58 31 84q13 33 30 65q24 53 53 88q31 38 72 66l16 12q5 4 19 12l21 15l24 12 q51 28 82 40q39 15 59 15q16 0 23 -11q8 -13 8 -30v-1v-3v-6q0 -2 -2 -10q-3 0 -5 1q-4 2 -7 3q-4 1 -12.5 2t-12.5 1q-8 1 -29 1q-43 0 -79 -21q-34 -20 -70 -73q-28 -45 -54 -106q-36 -85 -61 -152l-61 -174q14 -2 19 -2h13q96 0 152 38q55 37 70 111q17 -7 27 -17t10 -22 q0 -18 -17 -40q-18 -22 -45 -44q-42 -31 -119 -68q-75 -36 -147 -53l-156 -428h-8h-6q-10 -2 -14 -2h-11q-1 0 -23 -5l-40 -9h-5q-2 0 -8 -2l164 446q-73 1 -180 4q-34 1 -86 1h-9h-9q-40 0 -73 -1q-13 0 -50.5 -1.5t-59.5 -2.5z" />
<glyph unicode="5" d="M66 129q0 17 1 25q2 16 5 24q2 11 6 23q6 16 10 24q17 -80 80 -121q64 -41 166 -41q113 0 200 73q84 71 84 173q0 14 -1 21q-1 10 -3 18q-5 23 -16 46q-7 14 -31 52q-1 4 -3 6l-1 1q-1 1 -16 19q-3 3 -16 19t-34.5 42t-45.5 55q-19 24 -23 30q-9 15 -16 33q-8 22 -11 33 q-4 15 -4 31v3v1q0 18 6 39q5 17 21 59q1 3 3 7t3 7q1 1 3 7q1 3 1 6l19 43l16 41l18 43l138 338q72 5 133 6l123 4h63h66h38q16 0 60 -2q-2 -2 -2 -3v-1q-3 -3 -7 -11l-26 -47l-10 -16l-8 -16l-6 -12q-2 -4 -2 -5q-3 -3 -4 -5q-4 -7 -5 -9h-413l-72 -156q-35 -79 -53 -130 q-15 -42 -15 -70q0 -17 3 -32q2 -10 10 -32q5 -13 15 -31q4 -7 22 -32q1 -5 5 -8q4 -4 5 -7l2 -2q5 -8 22 -27q30 -33 62 -69q20 -21 36 -47q12 -19 25 -47q14 -28 18 -49q5 -27 5 -47q0 -35 -14 -79q-14 -45 -37 -83q-21 -34 -48 -69q-25 -32 -59 -66q-71 -67 -138 -95 q-71 -30 -149 -30q-87 0 -146 41q-58 40 -58 104z" />
<glyph unicode="6" d="M86 238q0 83 31 178q29 90 86 186q76 125 182 234q114 117 252 217q25 18 75 50q40 26 74 46q119 70 224 113t164 43h3h3q6 -1 25 -7q21 -7 36 -14q-184 -40 -330 -107q-150 -69 -266 -167q-90 -75 -168 -172q-79 -99 -141 -201q-60 -102 -98 -203q-37 -98 -37 -174 q0 -92 52 -148q53 -57 136 -57q123 0 217 118t94 271q0 80 -40 129q-41 50 -105 50q-79 0 -143 -70q-63 -69 -119 -217q-5 10 -6 18q-2 10 -2 17q-2 8 -2 11v11v8v9q11 96 106 177q95 80 211 91h11h12q89 0 141 -52q53 -53 53 -139q0 -11 -2 -37q-1 -19 -6 -40 q-17 -74 -58 -143q-42 -71 -110 -128q-34 -29 -68 -53q-35 -24 -69 -45q-53 -29 -106 -44q-52 -15 -95 -15q-97 0 -157 70t-60 186z" />
<glyph unicode="7" d="M125 74q0 38 15 87q14 45 40 101q16 33 36 66q18 31 42 61q16 20 50 58q27 31 61 61q9 8 27 24.5t27 24.5q25 22 58 47l70 53l72 54l69 53q43 34 54 43q42 35 51 43q90 81 152 172q59 86 87 180h-393q-114 0 -151 -10q-40 -11 -62 -72q-6 -15 -12 -33q-2 -6 -7 -19 t-8 -21h-32q1 4 4 12t5.5 15.5t4.5 14.5q2 8 8 24t8 24q0 2 2 6.5t3 7.5t2.5 8t1.5 6q5 16 26 89q18 63 19 67h665q-29 -96 -63 -173q-32 -72 -74 -144q-8 -14 -11 -19q-1 -1 -5 -7.5t-6 -10.5l-8 -12t-9 -14q-1 -3 -16 -23q-10 -15 -37 -51q-7 -9 -21 -26.5t-16 -19.5 q-56 -63 -135 -135q-66 -60 -213 -182q-176 -146 -263 -246q-79 -91 -79 -156q0 -34 26 -51t78 -22q-11 -23 -27 -34q-17 -11 -40 -11q-34 0 -55 25t-21 65z" />
<glyph unicode="8" d="M82 238q0 159 111 282t296 168q-42 50 -67 115q-25 63 -29 125q-2 10 -2 15v13v3v4q5 140 131 255q128 116 279 117h3h3q98 0 155 -56q58 -57 58 -146q0 -145 -101 -246q-103 -103 -243 -103q-37 0 -58 18t-22 50v12q18 -15 28 -20q20 -11 25 -13q13 -7 25 -8 q16 -2 26 -2q80 0 143 85q62 84 62 196q0 78 -49 123q-50 45 -133 45q-101 0 -168 -72q-68 -73 -68 -178q0 -77 40 -156q42 -82 122 -174q66 -74 99 -145q32 -70 32 -135q0 -90 -38 -164q-40 -78 -119 -144q-26 -22 -60 -44q-17 -11 -61 -33q-39 -20 -81 -31 q-39 -10 -75 -10q-115 0 -189 70q-75 71 -75 184zM199 276q0 -102 57 -162q58 -61 156 -61q114 0 188 80t74 201q0 28 -6 58q-5 27 -19 61q-6 18 -18 41q-3 6 -23 41q-1 1 -3 4l-3 6h-1q-1 0 -1 2q-6 12 -23 34q-4 5 -55 64l-4 4l-4 6l-4 4q-140 -39 -225 -144 q-86 -106 -86 -239z" />
<glyph unicode="9" d="M-8 4q151 33 276 95q129 64 238 161q106 94 189 219t128 256q25 71 38 136q13 66 13 133q0 104 -57 170q-56 65 -147 65q-111 0 -190 -97t-79 -237q0 -91 45 -148t119 -57q93 0 151 88t64 234q21 -15 30 -34q9 -20 9 -48q0 -37 -19 -79t-55 -89l-20 -24q-14 -16 -23 -25 q-51 -51 -100 -74q-51 -24 -104 -24q-90 0 -142 58q-53 59 -53 157v13q0 5 2 15q12 161 147 299t291 150h12h11q103 0 161 -76t58 -211q0 -60 -10 -116q-10 -54 -29 -115q-44 -131 -135 -261q-91 -129 -227 -255q-14 -14 -22 -20q-4 -3 -10.5 -8.5t-10.5 -8.5 q-143 -125 -275 -193q-134 -69 -221 -69q-21 0 -34 5q-11 4 -19 15z" />
<glyph unicode=":" horiz-adv-x="342" d="M4 47q0 28 21 49t47 21q19 0 33 -14t14 -31q0 -27 -21 -48q-22 -22 -47 -22q-19 0 -33 13t-14 32zM100 293q0 28 21 49q20 20 47 20q21 0 34 -13t13 -32q0 -28 -20 -48q-21 -21 -48 -21q-18 0 -32 13q-15 13 -15 32z" />
<glyph unicode=";" horiz-adv-x="342" d="M-102 -268q48 103 66 156q20 58 24 108v4v4h-2l110 133q2 -14 2 -18v-13q0 -32 -8 -70q-8 -39 -22 -71q-23 -61 -69 -124q-42 -57 -101 -109zM82 293q0 29 20 49t48 20q20 0 33 -13q14 -14 14 -32q0 -27 -21 -48t-47 -21q-19 0 -33 13t-14 32z" />
<glyph unicode="&#x3c;" horiz-adv-x="1024" d="M90 690v12l846 545v-67l-660 -430l660 -441v-182z" />
<glyph unicode="=" d="M147 422l23 57h684l-23 -57h-684zM244 694l22 58h684l-22 -58h-684z" />
<glyph unicode="&#x3e;" horiz-adv-x="1024" d="M90 127v70l660 430l-660 440v180l846 -561v-12z" />
<glyph unicode="?" horiz-adv-x="722" d="M150 45q0 29 20 49q21 21 47 21q20 0 34 -14q13 -13 13 -31q0 -28 -20 -48q-22 -22 -47 -22q-19 0 -33 13t-14 32zM176 309q0 25 9 55t24 60q18 33 37 60q23 33 45 55q33 33 76 58q42 24 90 40l51 18l51 17l53 16q139 46 207 125t68 193q0 105 -78 162t-221 57 q-105 0 -157 -25q-51 -24 -89 -100q-2 -3 -7 -16q-4 -10 -7 -15q-1 -1 -3 -5t-3 -7h-35q5 12 10.5 24.5t10.5 25.5t8 19q4 8 11 26.5t11 27.5q0 2 1.5 6t2.5 7t2.5 7t1.5 6q10 28 15 44q11 36 16 57q33 11 92 26q40 10 80 15q6 0 18.5 1t18.5 2q12 1 39 1q152 0 237 -68 q84 -68 84 -190q0 -30 -5 -68q-5 -36 -15 -70q-16 -52 -47 -113q-27 -54 -68 -106q-44 -52 -95 -91q-49 -38 -132 -77q-3 -2 -54 -23q-19 -8 -59 -24q-86 -33 -146 -63q-53 -27 -83 -58q-16 -20 -19 -28q-6 -15 -6 -29q0 -27 26 -45q25 -18 56 -18h5h3h3q1 0 3 2h4h5 q-11 -26 -31 -43q-18 -15 -43 -15q-30 0 -51 24t-21 60z" />
<glyph unicode="@" horiz-adv-x="1394" d="M178 365q0 439 315 785q315 347 711 347q169 0 269 -85t100 -230q0 -43 -4 -78q-3 -26 -13 -80q-18 -92 -56 -183q-38 -90 -89 -159q-46 -61 -104 -112q-56 -49 -123 -89q-48 -27 -101 -46q-47 -17 -90 -17q-58 0 -93 38q-34 37 -34 105q0 15 1 23q2 13 3 32 q-95 -94 -173 -144q-71 -46 -126 -46q-32 0 -46 20q-15 21 -15 60q0 32 7 63q8 35 22 66q57 135 205 256t315 168q40 12 80 18q39 6 78 6q21 0 33 -6t12 -20q0 -9 -7 -30q-6 -19 -22 -46l-22.5 2.5t-16.5 1.5q-22 2 -33 2q-14 2 -20 2h-23q-118 0 -220 -51 q-98 -49 -183 -154q-3 -4 -6.5 -8.5t-8 -10t-6.5 -8.5q-11 -14 -18 -28q-25 -40 -41 -84q-14 -38 -14 -78q0 -27 9 -40t27 -13q21 0 60 30q36 27 82 77q6 6 15.5 18.5t12.5 15.5l29 37l31 46q10 14 26 44q22 46 36 86q16 47 26 99q3 -1 9 -5l9 -6q24 -17 33 -32 q10 -16 10 -39v-3v-3q-1 -26 -14 -57q-10 -26 -41 -79q3 0 5 1t5 1q2 1 6.5 2t6.5 2l12 3l21 9q4 2 14.5 6.5t15.5 6.5q-10 -18 -25 -48q-8 -16 -16 -38q-21 -38 -28 -57q-7 -20 -7 -37q0 -33 30 -57q31 -25 69 -25q13 0 20 1q4 1 10 2t10 1q61 12 123 59q60 45 117 127 q56 80 83 179q28 103 28 217q0 153 -100 250q-99 96 -257 96q-15 0 -45 -2q-23 -2 -47 -6q-141 -22 -275 -110q-134 -87 -233 -224q-99 -134 -160 -290q-61 -155 -77 -308l-4 -70q1 -188 98 -288q96 -99 278 -99q101 0 185 29q81 28 160 92q4 3 11.5 9.5t11.5 10.5 q8 7 24 23l12 -12q-49 -57 -100 -105q-45 -42 -93 -74q-56 -34 -125 -54q-59 -17 -141 -17q-201 0 -313 109q-113 110 -113 307z" />
<glyph unicode="A" horiz-adv-x="1683" d="M-147 39l61 100q89 31 180 79q78 41 160 101q14 10 40 30q7 5 20.5 16t19.5 16q94 80 205 191q92 92 217 237q13 14 28 33q4 5 25 26q0 2 1 3l1 1q19 22 38 47q20 26 52 64q15 17 30 36q20 26 30 38q37 48 40 51q16 18 37 45q101 127 173 210q65 75 116 122l27 -25 q-4 -5 -11.5 -13.5t-10.5 -12.5q-8 -10 -15 -25q-19 -32 -25 -66q-6 -35 -6 -94q0 -43 1 -65q2 -44 3 -64q6 -85 23 -183q17 -95 45 -212q26 -106 43 -166q24 -83 45 -149q2 -6 12.5 -35t16.5 -44q5 -13 13.5 -36.5t12.5 -32.5q17 -40 28 -58q14 -22 23 -28q2 -2 10 -5 q3 -1 9 -1h3h1q14 2 28 13q17 14 42 40l26 -24q-8 -9 -17 -18.5t-17.5 -19t-12.5 -13.5q-6 -6 -17.5 -18.5t-17.5 -18.5q-1 -1 -2 -3l-1 -2q-2 -2 -3 -2q-12 -13 -43 -50q-39 -47 -59 -70q-11 22 -31 64q-6 12 -15.5 34.5t-13.5 30.5q-6 12 -27 67q-16 42 -26 72 q-1 3 -29 81q-3 8 -28 91q-73 238 -99 367q-28 141 -28 270v16v17q1 21 5 77q3 47 9 105q-4 -4 -10.5 -11.5t-8.5 -9.5l-12 -12q-52 -59 -89 -104q-84 -102 -124 -154q-34 -44 -57 -71q-27 -32 -51 -60q-1 -3 -4 -6l-6 -6q-14 -16 -42 -50q-21 -25 -49 -55q20 2 26 2 q8 0 22 2h32h41h75q23 0 67 -2q27 0 89 -2q12 0 47 -1.5t56 -2.5q-2 -5 -5 -15t-6 -19t-6 -17q-15 -47 -18 -61q-2 -7 -7.5 -27.5t-8.5 -31.5q-3 -10 -8.5 -30t-7.5 -30q-1 -1 -2 -3.5t-2 -4.5q-1 -3 -1 -9h-36q8 32 11 50q3 21 3 36q0 27 -12 40t-41 18h-4h-5q-20 4 -60 4 h-157h-26h-25q-38 -2 -58 -3q-31 -2 -73 -3q-60 -57 -75 -72q-13 -13 -21 -23h-2q-3 -3 -5 -6l-10 -10q-38 -37 -130 -123q-46 -43 -95 -84l-20 -16q-14 -10 -19 -14q-57 -43 -82 -60l-30 -20t-40 -27t-38 -25q11 0 16 1q10 2 17 2l57 3q19 1 63 1h15h14h77q22 0 60 -2 q39 -1 113 -10q5 -1 74.5 -8.5t122.5 -14.5q11 0 16 -1t16 -1q9 -1 27.5 -2.5t27.5 -1.5q36 -2 48 -2q159 0 250 79t112 236q21 -12 29 -26t8 -31q0 -49 -35 -105q-34 -55 -104 -117q-82 -73 -176 -111q-90 -36 -189 -36q-17 0 -83 2q-42 1 -109 8q-14 2 -42 4.5t-40 3.5 l-86 9q-90 8 -170 12q-73 4 -127 4l-70 -2q-90 -2 -98 -2h-41h-6h-4h-3h-5z" />
<glyph unicode="B" horiz-adv-x="2537" d="M162 551q0 225 162 384t391 159q65 0 129 -16q59 -15 117 -50q27 -15 64 -43q36 -28 67 -57l5 -5l5 -5q4 -1 6 -6q1 -2 4 -5q21 -21 45 -48q29 -33 68 -77q7 -9 22 -27t19 -22q30 -36 45 -55l3 -3l3 -3l20 -25l21 -24q28 -33 43 -52q7 -9 21.5 -25t15.5 -18 q6 -7 17.5 -21t15.5 -18q30 -35 40 -47q10 8 16 14q10 10 17 15q0 2 2 4l4 4q19 19 28 27q10 9 19 20q-69 44 -108 115q-37 67 -37 152q0 47 28 75q27 27 79 27q-35 -39 -50 -70q-16 -32 -16 -63q0 -57 47 -95t119 -38h31l3 3l3 3q1 3 5 7l5 5q6 7 27.5 33.5t34.5 42.5 q41 48 87 106q79 100 91 116q11 15 28.5 39t20.5 28q2 2 2 3t2 1q1 3 5 9t7 9l17 25q6 8 8 10q0 2 3 5q1 1 7 9q0 1 1 2.5l2 3t1 2.5q1 2 4 5q0 1 1 2.5t2 2.5t1 2l6 9l35 -12q-9 -18 -13 -36q-5 -23 -5 -44q0 -11 1 -16q0 -2 1 -8t2 -9q12 -54 57 -100q47 -48 96 -60 q9 0 13 -1t12 -1q66 0 113 61t47 144q0 121 -86 187q-84 65 -246 65h-7h-7q-110 0 -243 -13q-156 -15 -450 -52q-130 -17 -210 -24q-74 -7 -146 -7q-52 0 -84 5q-30 5 -53 19q-1 0 -2.5 1t-2.5 2t-2 1l-5 5q2 5 4.5 13.5t3.5 11.5q2 5 4.5 14.5t3.5 13.5q5 19 14 54t11 42 q3 10 10.5 40.5t11.5 45.5l37 -8q-2 -10 -7 -39q-3 -18 -3 -31q0 -35 31 -51t106 -16h9h9q51 0 110 7q121 14 204 25q30 4 91 11t90 11q93 11 206 24q68 9 155 14q65 4 129 4q182 0 285 -80t103 -221q0 -114 -58 -201q-57 -85 -168 -135q-37 -18 -62 -26q-27 -9 -42 -9 q-28 0 -78 50q-47 47 -113 143q-2 -2 -4.5 -6t-2.5 -5q-2 -3 -7 -8q0 -2 -1 -3l-1 -1q-3 -4 -8.5 -11.5t-8.5 -10.5q-3 -4 -7 -9t-10.5 -13t-10.5 -13q-8 -11 -26 -33l-36 -43q-17 -24 -49 -63q-5 -7 -16 -20.5t-16 -20.5q-3 0 -3 -1v-1q-2 -2 -6 -7.5t-6 -8.5 q-4 -5 -14 -15q8 0 11 1t9 1q2 2 5 2h8l20 4q10 1 27 6h4h2q2 2 25 8q9 2 161 39q11 3 33 7l33 6q23 5 45 6q30 2 43 2q144 0 233 -79q90 -80 90 -204q0 -177 -149 -308q-150 -132 -348 -132q-52 0 -105 8q-45 7 -98 31q-76 34 -158 106q-80 70 -188 193 q-188 -165 -347 -248q-159 -82 -311 -90q-14 -2 -21 -2h-22q-254 0 -418 158q-165 159 -165 403zM227 588q0 -213 176 -371t418 -158q22 0 34 1t34 3q124 15 257 88q128 71 275 207q-1 5 -5 8q-4 4 -7 5q-22 28 -65 78q-50 59 -82 100q-125 153 -204 238q-78 84 -140 128 q-6 6 -9 8q-7 5 -8 5q-46 34 -98 59q-46 22 -92 33q-21 5 -41 6q-28 2 -41 2q-171 0 -286 -126q-116 -127 -116 -314zM1538 414q13 -16 44 -49q26 -27 54 -54l9 -9q2 -2 4.5 -5t3.5 -4q18 -16 50 -48q30 -30 44 -42q58 -51 98 -78q47 -31 90 -47q39 -14 67 -19q34 -6 69 -6 q143 0 251 100q107 99 107 232q0 96 -64 157q-63 60 -165 60h-17h-16q-44 -2 -94 -13q-53 -12 -174 -42q-86 -20 -120 -25q-51 -8 -89 -8h-12h-9q-10 0 -15 1q-3 1 -8.5 2t-7.5 1l-4 -4l-4 -4q-3 -3 -4 -5t-10 -11l-20 -22l-7 -7l-4 -4l-8 -8l-29 -29l-4 -4l-2 -4z" />
<glyph unicode="C" horiz-adv-x="1566" d="M133 406q0 21 1 33t1 34q21 213 146 412t327 329q156 99 339 150q189 53 382 53q220 0 345 -85q126 -86 126 -232q0 -162 -156 -283q-155 -121 -370 -121q-69 0 -168 18q-116 21 -285 62q-106 27 -164 36q-57 9 -104 9q-23 0 -33 -1q-5 0 -14 -1t-14 -2q-16 -1 -33 -6 q-14 -4 -37 -12q47 52 58 66l16 20t18 22q0 2 1 3l1 1q2 1 4.5 4.5t3.5 5.5q1 1 2.5 3t3 4.5t2.5 3.5q20 1 40 3q12 1 26 1q41 0 92 -6q52 -6 113 -21h3q1 0 3 -2h4h4q43 -10 70 -17q14 -4 68.5 -18t97.5 -26q123 -33 207 -48q90 -16 145 -16q136 0 230 77t94 190 q0 136 -145 224q-144 87 -367 87q-400 0 -690 -263q-289 -262 -289 -624q0 -179 104 -283t281 -104q182 0 302 153q119 152 119 384v13q0 5 -2 21q28 -16 40 -44q12 -27 12 -70q0 -49 -20 -111q-19 -59 -54 -121q-20 -30 -30 -44t-32 -44q-96 -121 -198 -179 q-105 -60 -215 -60q-182 0 -296 117q-116 119 -116 305z" />
<glyph unicode="D" horiz-adv-x="2269" d="M203 702q0 150 116 257q117 108 277 108q45 0 87 -15q38 -14 85 -46q33 -27 75 -75q39 -45 79 -106q2 -3 8.5 -12.5t10.5 -14.5q11 -16 17 -30l31 -55q11 -18 26.5 -45t19.5 -33l18 -31l8 -12l4 -8q165 64 324 128q171 69 337 142q4 2 9.5 4.5t9 4t5.5 2.5q12 5 13 5 q9 7 31 16q29 12 102 46q28 13 57 26t45.5 21t23.5 11l26 11l10 5l10 6l11 4l3 -9q1 -2 1 -8v-4v-6v-3v-3q0 -33 -16 -89q-16 -54 -58 -173q-30 -85 -49 -150q-16 -54 -16 -71q0 -16 9 -23q10 -8 29 -8q11 0 23 3q16 4 31 9l10 -37q-9 -3 -29 -10t-28 -10q-36 -12 -43 -14 l-1 -1q-1 -1 -3 -1q-5 -2 -15.5 -5.5t-20 -6.5t-18.5 -6q-37 -11 -86 -27q4 47 24 117q22 81 64 196q34 99 41 124q13 44 13 54q0 14 -9 27q-7 10 -22 10q-12 0 -24 -4q-7 -2 -40 -17q-18 -8 -33 -14q-18 -7 -20 -8q-5 -2 -23 -10.5t-32 -15.5q-11 -5 -35 -15.5t-69.5 -30.5 t-84.5 -37l-28 -12l-29 -12q-141 -58 -220 -89q-140 -54 -192 -73q54 -93 108 -172q51 -75 103 -131q83 -89 170 -130q84 -40 185 -40q155 0 292 87q141 90 224 236q25 44 48 97q25 59 38 98q18 61 27 118q10 65 10 111q0 207 -145 319q-144 111 -412 111q-47 0 -107 -3 q-58 -3 -125 -9l-113 -10l-114 -12l-115 -11q-21 -2 -45 -3t-51 -3q-30 0 -45 -1t-41 -1q-47 0 -80 3q-24 2 -61 10l-25 8q-4 1 -8 2.5t-9.5 3t-9.5 2.5q13 44 16 57q3 15 11 43v2v2l3 9q1 3 1 8l8 35q2 10 6.5 27t5.5 23l5 21v6l2 4v7l37 -7q0 -6 -1 -10q0 -2 -2 -6t-2 -6 v-4v-6l-4 -29q0 -4 -0.5 -8.5t-1 -7t-0.5 -4.5q0 -31 37 -41q39 -11 139 -11q34 0 84 3q12 1 109 8l86 8l84 6l84 8q44 3 128 7q63 3 116 3q310 0 477 -125q166 -124 166 -360q0 -337 -246 -613t-545 -276q-122 0 -225 47t-176 135q-9 9 -12 13l-9 12q-5 5 -7 8q-5 7 -5 8 q-29 37 -66 96q-9 15 -48 77t-70 110q-167 -55 -262 -76q-107 -24 -179 -24q-145 0 -234 80t-89 210zM252 741q0 -118 91 -196t228 -78q80 0 172 19t203 59q-17 29 -41.5 69t-32.5 53q-21 35 -45 68l-2 2t-1 2q-1 1 -3 4l-12 17q-6 8 -12 18q-10 14 -28 38q-5 7 -14.5 18 t-11.5 14q-60 72 -120 103q-62 32 -131 32q-96 0 -168 -72t-72 -170z" />
<glyph unicode="E" horiz-adv-x="2361" d="M184 539q0 174 100 326t302 282q19 13 82 50q38 22 82 42q134 65 269 91q143 28 306 28h182h75q31 0 101 2h17h14h92h78q68 2 88 2q26 0 72 2q25 0 37 1t37 1q-14 -36 -16 -44q-3 -12 -11 -32q0 -3 -1 -5t-1 -5q-10 -35 -14 -51q-2 -7 -10.5 -39t-14.5 -57l-1 -6 q-4 -10 -5 -13h-37q10 36 13 56q3 18 3 30v4v4q0 34 -21 45q-22 11 -95 11h-33h-223q-39 -153 -49 -188q-17 -62 -31 -93q0 -2 -2 -8l-4 -8v-1v-1q-57 -147 -170 -242q-112 -94 -303 -154q74 -23 145 -60q75 -40 176 -106q24 -15 100 -63q21 -13 48 -29q2 -2 3 -2h1 q3 -1 9 -5t9 -5q23 30 45 66q21 34 31 59q13 29 20 68q7 40 7 75q0 104 -43 175q-44 73 -127 110h352l-29 -109h-166q44 -44 66 -97t22 -116t-27 -131q-26 -64 -85 -139q126 -73 190 -102q69 -31 119 -37q13 0 21 -1t22 -1q135 0 225 93q91 94 101 245q18 -10 30 -34 q10 -20 10 -48q0 -30 -14 -59q-14 -30 -39 -64q-29 -41 -66 -72q-40 -34 -87 -63l-39 -25q-61 -38 -122 -74q-24 -14 -36 -16h-3h-3q-34 0 -106 27q-83 31 -152 65q-31 14 -74 36q-38 20 -67 40l-7 3q0 1 -2 2l-2 1q-96 -69 -242 -113t-307 -55q-28 0 -42 -1t-42 -1 q-341 0 -535 142q-196 143 -196 391zM297 575q0 -126 56 -234q57 -109 157 -181q85 -59 188 -85q110 -28 248 -28q164 0 294 40q132 41 253 124q-14 8 -16 9q-8 4 -9 5l-71 45l-74 45l-74 45q-54 34 -115 63q-59 28 -128 50q-71 25 -139 38q-66 13 -124 13h-28q-9 0 -25 -2 q-5 0 -15 -1.5t-16 -2.5q-14 -1 -41 -8q15 15 24 27q3 3 8.5 10.5t8.5 11.5q6 6 8 9q3 5 5 12q6 8 12 18q7 12 12 25q1 0 3 0.5t3.5 1l3 1t2.5 0.5q3 1 11 1q10 2 17 2h28h17q6 0 20 -2q13 0 20 -1q14 -2 19 -3l28 -2l29 -5l29 -4q15 -1 28 -3q4 -1 12.5 -2t12.5 -1h14h13 q18 0 28 1q5 1 14.5 2t14.5 1q79 11 159 57q78 44 128 109q62 78 108 193q46 116 86 295h-215q-131 0 -202 -3q-55 -2 -128 -10q-11 -1 -18 -3t-18 -3q-305 -50 -485 -231q-181 -182 -181 -439z" />
<glyph unicode="F" horiz-adv-x="2287" d="M4 154q0 250 159 400q160 151 423 151q172 0 357 -90q183 -89 384 -277l5 -5q4 -4 7 -5q1 -4 6 -6l7 -7q45 -40 81 -78q53 -57 126 -131q8 12 14 25q5 9 10 27q15 30 21 62t6 67q0 145 -127 241q-128 97 -334 107q4 6 6 11t6 11q14 30 15 34q7 20 12 40l708 2q6 16 8 23 q1 3 2.5 8.5t2.5 7.5q15 56 21 73q14 41 22 62q39 111 79 176q42 67 109 127q25 23 53 44q31 23 62 44q82 56 132 80q56 26 107 31q10 2 16 2h15q15 0 23 -1q18 -2 28 -5q0 -8 -1 -11l-3 -12q-7 -37 -21 -88q-12 -43 -42 -145h-35q2 8 4.5 19t4 18t2.5 11l5 26v8v8 q0 28 -19 46t-50 18h-5h-6q-91 -5 -171 -64q-81 -60 -121 -149q-15 -33 -29 -76q-18 -55 -51 -170l-13 -43q-10 -29 -12 -38q0 -2 -0.5 -4t-0.5 -3l-1 -2l-1 -1q-1 -1 -1 -3l-4 -17h383l-74 -239h-35q2 10 3 14q1 2 2.5 5.5t1.5 4.5q4 16 6 27q1 4 2.5 10.5t1.5 7.5v7v8 q0 36 -30 43q-32 8 -138 8h-154q-24 -83 -48 -150q-30 -85 -46 -125q-33 -79 -71 -153q-42 -80 -78 -135q-20 -30 -31 -44l-33 -45q-179 -235 -421 -370q-239 -133 -496 -133q-330 0 -537 191q-209 192 -209 489zM53 211q0 -285 222 -469q221 -184 565 -184q381 0 645 274 q265 275 383 797l-457 2q109 -47 173 -138q65 -92 65 -194q0 -49 -17 -114q-16 -60 -45 -128q-13 -33 -24 -53q-14 -25 -31 -53q-285 335 -552 513q-268 179 -486 179q-192 0 -317 -122q-124 -121 -124 -310z" />
<glyph unicode="G" horiz-adv-x="2177" d="M39 229q0 257 150 413q151 157 395 157q121 0 224 -44q99 -42 200 -145q29 -29 49 -54q42 -53 51 -64q8 -13 13 -18q6 -6 7 -9h2q2 -3 5 -8t8 -13t9 -14l77 -119l127 -196l10 -17l10 -14l10 -16q24 -38 40 -58q15 -18 28 -26q10 -6 15 -7q10 -2 18 -2q16 0 38 8 q31 11 50 21l16 -33l-6 -2q-5 0 -7 -1l-3 -1q-17 -7 -41.5 -17t-31.5 -13t-21.5 -9.5t-20.5 -9.5l-2 -2h-2q-27 -14 -33 -16q-6 -3 -51 -25q-14 19 -21 31q-3 6 -10.5 16t-9.5 12l-1 2q-1 1 -1 3q-3 5 -9.5 14.5t-10.5 14.5q-7 10 -23 32q-16 28 -33 54q-3 5 -14.5 23 t-17.5 27l-58 91l-26 45q-93 148 -175 248q-80 98 -161 159q-68 50 -136 72q-67 22 -147 22q-181 0 -294 -119t-113 -311q0 -319 233 -536t580 -217q302 0 549 174q247 173 415 501q15 28 50 105q28 62 47 108q52 133 87 265q33 125 35 215h-184l11 -11l3 -3t4 -3.5t3 -3.5 q15 -19 23 -42q7 -20 7 -54q0 -47 -14 -88q-15 -43 -43 -86q-24 -33 -53 -64q-22 -24 -72 -65q-59 -48 -117 -82q-54 -32 -108 -49q-39 -12 -66 -16q-37 -5 -67 -5q-144 0 -234 90t-90 234q0 299 251 518t591 219h13h13l36 -3q24 -2 38 -3l-67 -238h-37q7 34 8 42 q1 5 2.5 13.5t1.5 10.5v5v7q0 41 -36 59q-34 17 -120 17q-72 0 -134 -13q-66 -14 -124 -40q-143 -65 -231 -212q-88 -146 -88 -323q0 -137 78 -220t206 -83q146 0 251 102q106 103 106 236q0 51 -31 93q-29 39 -84 50q-2 1 -6 2.5t-5 1.5q-3 1 -9 1q-12 3 -39 5q-14 1 -58 1 v37h613q-136 -663 -530 -1077q-391 -410 -888 -410q-343 0 -568 213q-224 212 -224 540z" />
<glyph unicode="H" horiz-adv-x="2926" d="M176 569q0 215 147 356q146 140 371 140q74 0 152 -21q84 -23 158 -59q121 -60 242 -165q120 -103 220 -238q10 42 13 57q5 27 6 51v11v10q0 102 -53 166q-52 62 -156 79q2 4 4 11t3 9q3 8 7 13v2q0 1 8 21q4 12 15 39q0 1 1 3t1 3l4 8l12 -3q4 -1 12 -1q69 -10 97 -14 l56 -8q57 -8 97 -13q87 -10 144 -15q18 -2 88 -10q3 7 7 21t5 22l8 33l8 33q15 65 19 90q8 46 8 60q0 19 -7 27q-7 9 -24 9h-5h-7q-7 -1 -32 -7q-20 -5 -48 -19l-12 33q6 4 13 6q1 1 4 2t5 2q11 5 30 12q6 2 17.5 7t32 13.5t39.5 16.5q3 1 10 3.5t10 4.5t10 4.5t9 3.5 q3 0 4 1t4 1q4 2 40 18q19 9 48 21q-7 -64 -17 -117q-15 -79 -26 -124q-13 -60 -22 -96q-11 -44 -27 -91l182 -16q43 92 100 173q52 74 116 132q88 79 196 139q106 59 223 88q53 13 100 20q46 7 99 7q124 0 196 -48t72 -130q0 -30 -9 -65q-7 -29 -28 -68q-36 -72 -101 -137 q-63 -63 -153 -115q-115 -65 -240 -91q-135 -28 -319 -28q-51 0 -74 1t-65 1q-20 2 -31 3t-32 1q-14 -44 -20 -68q-9 -35 -15 -71q-14 -70 -20 -121q-7 -56 -7 -109q0 -192 88 -289q89 -98 262 -98q191 0 309 120q117 119 119 315q4 -5 10.5 -13t7.5 -9q6 -7 11 -19 q7 -12 8 -22q2 -16 2 -25q0 -38 -21 -89q-20 -48 -59 -106q-22 -32 -35 -48q-20 -24 -40 -46q-78 -85 -163 -122q-88 -38 -200 -38q-197 0 -308 114q-112 115 -112 314q0 89 23 202q23 114 67 234l-178 17q-130 -352 -404 -593q-277 -244 -581 -284q-18 -3 -54 -5 q-18 -1 -54 -1q-263 0 -442 165t-179 406zM242 643q0 -241 181 -397t464 -156q315 0 537 196q220 195 366 605l-340 37q38 -38 56 -88t18 -117q0 -50 -14 -136q-15 -94 -35 -171q-1 -2 -2.5 -4t-1.5 -3q-1 -2 -1 -8q-238 306 -449 454q-212 149 -405 149q-159 0 -267 -105 q-107 -104 -107 -256zM2202 967q5 -1 14 -2t14 -1q10 -1 29 -1q37 -1 78 -3q54 -2 100 -2q182 0 300 20q117 20 210 64q81 40 130 102q50 64 56 130v5v7q0 84 -73 135q-75 52 -193 52h-24q-1 0 -25 -3q-113 -7 -222 -56q-109 -48 -188 -126q-32 -30 -57 -61q-26 -32 -51 -74 q-29 -49 -47 -82q-27 -50 -51 -104z" />
<glyph unicode="I" horiz-adv-x="1898" d="M180 600q0 203 134 332t345 129q99 0 197 -32q97 -32 191 -93q50 27 100 39q51 12 106 12q136 0 220 -95q83 -93 83 -249q0 -27 -1 -40q-2 -26 -5 -40q-8 -49 -30 -102q-22 -50 -62 -125q-24 31 -40 53q-7 9 -38 51q-102 125 -194 215q-109 105 -217 189 q-71 -67 -105 -148q-33 -79 -33 -188q0 -12 2 -32q1 -10 1 -30l9 -57q5 -29 15 -63q-42 29 -67 80q-25 52 -25 104q0 96 42 184t130 170q-77 56 -136 85q-66 32 -128 44q-23 5 -43 6q-28 2 -43 2q-151 0 -253 -102t-102 -258q0 -236 207 -389q208 -154 525 -154 q249 0 463 124q215 125 358 347q83 132 154 298q76 178 135 376h-703h-72q-89 0 -125 -12t-61 -60q-2 -2 -4.5 -7l-3.5 -7t-8 -18l-37 8q5 13 14 34q4 9 10 25q2 0 2 1v1q3 8 10 25t9 23q3 8 8 21t13 34t14 37l3 5q3 5 5 13h1038q-15 -48 -52 -159q-4 -12 -40 -111l-8 -21 l-8 -20q-2 -5 -6 -13.5t-4 -9.5q-6 -14 -9 -22q-109 -259 -233 -443q-125 -186 -273 -309q-122 -96 -258 -159q-135 -62 -276 -85q-38 -6 -74 -9q-37 -3 -74 -3q-302 0 -497 168t-195 430zM1081 911q63 -46 118 -95q61 -55 116 -114q27 -29 86 -100q34 -41 88 -113 q8 23 16 57q7 28 8 50q3 15 3 16v17q0 128 -88 221q-87 92 -207 92q-36 0 -68 -7q-35 -7 -72 -24z" />
<glyph unicode="J" horiz-adv-x="1912" d="M-35 78q0 229 176 381q175 151 443 151q173 0 369 -64q199 -65 401 -186q30 -18 72 -46q48 -32 73 -48l-113 -73q-99 72 -204 129q-100 54 -224 102q-127 51 -246 77q-122 27 -220 27q-207 0 -339 -110q-135 -112 -135 -283q0 -16 1 -26l2.5 -15t1.5 -12q12 -105 73 -206 t156 -169q59 -42 146 -73q85 -30 184 -46q35 -6 70 -9q36 -3 69 -3q341 0 616 255q273 254 463 751q14 38 20 57q12 38 19 57q11 33 26 91q10 40 19 87l37 185q8 42 12 59v1v1q0 3 1 7t2 9t2 9t4.5 19t5.5 26q7 28 8 35q2 14 2 18q2 0 2 1v3q0 6 1 11q1 8 3 18 q-7 -1 -18 -2.5t-14 -1.5q-18 -2 -23 -2q-10 -2 -17 -2h-18l-94 2q-101 0 -168 -56q-66 -56 -66 -145q0 -21 3 -39q2 -14 10 -37q16 -41 47 -81t90 -97q30 -29 48 -51q17 -21 25 -45q6 -14 7 -22q2 -16 2 -23q0 -8 -2 -26q0 -4 -1.5 -13t-2.5 -14q-16 -59 -58 -117 q-39 -54 -88 -76q-11 -5 -19 -6q-12 -2 -20 -2q-52 0 -83 37t-31 94v9q0 3 2 13q33 -45 64 -67q32 -23 65 -23q42 0 68 27q26 28 26 72q0 13 -1 19q-2 12 -5 17q-8 24 -30 50q-13 15 -63 63q-2 2 -6 6.5t-7 7.5t-6 5q-10 9 -17 18q-46 51 -65 100q-19 50 -19 117 q0 158 115 272q117 115 274 115h42q14 0 50 -2h11h9h16h15q14 -2 20 -2h13h14h12h9q5 0 8 1t8 1q-5 -26 -15 -76q-13 -63 -14 -71q-47 -228 -94 -382q-54 -176 -114 -309l-8 -14q-4 -8 -5 -12q-107 -231 -256 -435q-152 -208 -313 -350q-97 -87 -214 -146q-115 -58 -235 -81 q-39 -8 -74 -12q-33 -4 -75 -4q-144 0 -282 48q-140 49 -247 138q-91 78 -138 183q-46 104 -46 231z" />
<glyph unicode="K" horiz-adv-x="2545" d="M225 676q0 249 179 413q177 162 458 162q70 0 136 -12q63 -12 135 -37q98 -38 211 -118q106 -75 229 -195q15 41 24 75q3 10 9 28.5t8 23.5q1 3 3 7q1 2 1 7q1 3 3 7q1 2 1 7q19 68 25 108q9 59 10 71v3v3q0 14 -8 22q-9 9 -25 9h-1h-1q-16 0 -38 -8q-44 -16 -68 -25 l-17 33q12 6 38 16q20 8 28 12q3 0 4 1t4 1q6 3 20.5 10t28.5 14t27 14q62 33 157 85q0 2 5 4q9 3 14 6q-18 -68 -24 -89q-2 -8 -4 -15.5t-4 -16t-3 -12.5q0 -2 -1.5 -6t-2.5 -7q0 -2 -1.5 -7.5t-2.5 -9.5q-23 -89 -55 -193q-23 -73 -50 -145q-8 -28 -18 -50q-7 -15 -21 -43 l177 -172l11 12l5 5l23 23q5 5 17.5 16.5t33 31.5t41.5 41l51 54l49 45q133 131 164 163q51 52 98 101q3 3 4 5q2 4 6 5q6 7 19 21.5t19 21.5q7 8 22.5 25t21.5 24q-19 0 -27 1t-22 1h-30h-46h-7h-7q-104 0 -140 -9q-37 -9 -59 -60q-7 -15 -15 -38q-7 -21 -15 -48h-43 q29 86 42 125q13 40 35 116l4 17l5 16q109 -2 170 -3q41 -1 112 -1h21h20h66h55q24 2 37 2q11 0 39 2q-134 -134 -274 -270q-26 -25 -63 -61t-63.5 -62t-46.5 -45q-125 -123 -181 -177q-25 -24 -103 -102l-17 -16l-6 -8l393 -385q65 -60 89 -77q32 -23 53 -24h3h1h5h7 q18 5 43 23q24 18 76 70l26 -25l-4 -4t-4 -5q-6 -6 -10 -9q0 -2 -1 -2t-1 -3q-9 -9 -37 -35l-14 -14l-20.5 -20.5l-20.5 -20.5q-14 -14 -34 -32t-26 -24l-32 -32l-1 -1l-3 -3q-3 -1 -9 -5q-3 -2 -8 -7q-13 12 -41 38t-41 38t-34.5 32.5t-30.5 28.5l-3 3l-3 3q-25 25 -91 89 q-29 28 -127 128q-65 67 -78 79q-20 19 -65 61l-24 24l-25 25l-123 -125q-89 -87 -140 -133q-55 -49 -110 -90q-4 -3 -13 -9.5t-13 -9.5l-29 -20l-2 -1q-1 -1 -4 -3q-105 -71 -221 -109q-112 -37 -232 -37q-273 0 -455 190t-182 478zM272 696q0 -242 198 -418 q199 -176 470 -176q67 0 131 11t123 34q97 38 205 122q102 79 252 229l73 73l-149 146q-61 -117 -150 -208q-86 -87 -178 -128q-36 -17 -66 -23q-37 -8 -67 -8q-74 0 -122 33t-48 84q0 15 5 35q5 18 20 43q11 -69 55 -103t123 -34q115 0 212 91t169 265q-179 174 -312 272 q-129 95 -247 129q-52 14 -90 19q-45 6 -93 6q-223 0 -368 -139q-146 -140 -146 -355z" />
<glyph unicode="L" horiz-adv-x="1861" d="M139 344q0 210 129 346q129 137 324 137h16h17q14 0 22 -1q12 -2 27 -3q50 65 124 154q44 53 95 106l20 21l21 20l13 14q1 1 16 13q86 82 178 143t180 95q56 22 122 35q60 12 120 12q150 0 236 -71q85 -70 85 -194v-5v-7q-6 -197 -196 -360q-192 -165 -418 -172h-10h-9 q-87 0 -192 14q-134 18 -297 47q-11 2 -33.5 6t-31.5 6q-33 6 -44 7q-8 2 -13 2t-13 2q-76 -96 -121 -149q-67 -78 -98 -111q4 2 13 7t14 7q18 8 26 12q40 14 67 18q38 5 84 5q39 0 92 -8q33 -5 101 -21q29 -7 57 -18q38 -14 56 -21l92 -37l90 -37l92 -36l94 -39l96 -39 l95 -39q116 -45 147 -56q45 -16 70 -16q26 0 52 16q24 14 64 50l25 -27q-22 -20 -30 -28q-17 -17 -27 -25q-7 -10 -18 -19q-10 -9 -17 -18q-18 -21 -39 -42q-8 -8 -24.5 -26t-18.5 -20q-3 1 -7 3q-2 1 -5 1q-2 0 -6.5 1t-6.5 2q-4 1 -10 3q-34 11 -68 25q-36 15 -96 39 q-12 5 -45.5 17.5t-46.5 18.5q-29 12 -65 27q-2 2 -3 2q-2 0 -4 2q-24 7 -49 20q-9 4 -28.5 12.5t-28.5 12.5q-184 78 -331 137q-106 43 -191 70q-4 2 -10.5 4t-8.5 3q-9 4 -18 5q-54 18 -80 23q-28 6 -53 6h-5h-6q-14 0 -36 -2q-16 -1 -31 -6q-35 -13 -71 -46 q-32 -30 -109 -108l-21 33l4 4l4 4q46 48 64 68q58 63 86 96q18 22 32 38q9 10 25 30q2 0 2 1v1q22 24 48 57q13 17 79 96l2 2q2 3 4 5q1 1 3 3.5t4.5 5.5t3.5 5q-10 2 -17 2q-6 0 -16 2h-8h-9q-163 0 -257 -94q-95 -95 -95 -252q0 -138 111 -234t270 -96q22 0 32 1l30 3 q37 6 91 27q43 17 103 53l21 -29q-86 -57 -172 -86q-84 -28 -170 -28q-162 0 -259 97q-98 98 -98 263zM719 819h6l6 -2q59 -7 85 -11q15 -2 55 -9t65 -11q176 -31 254 -41q81 -10 156 -10h1h3q184 0 322 108t138 251q0 126 -86 203t-231 77q-76 0 -166 -32q-89 -32 -178 -91 q-36 -22 -78 -56q-26 -21 -78 -67q-2 -2 -7.5 -7t-8.5 -8q-3 -2 -8 -7l-8 -8l-37 -37q-13 -13 -35 -37q-23 -24 -45 -51q-15 -18 -47 -56q-28 -35 -42 -53q-6 -8 -16 -18q-1 -4 -6 -9q-1 -1 -5.5 -7.5t-8.5 -10.5z" />
<glyph unicode="M" horiz-adv-x="2775" d="M180 573q0 235 162 381q163 146 422 146q52 0 98 -6q40 -5 92 -19q91 -29 179 -85q94 -60 219 -163q38 -31 63 -46q22 -13 41 -15h1h3h4h4q28 2 53 13q31 14 78 40l21 -30l-254 -140q-200 190 -377 285q-175 94 -327 94q-190 0 -303 -110t-113 -295q0 -229 171 -373 q170 -143 443 -143q240 0 472 153q231 152 444 453q-1 8 -6 36.5t-7 40.5q-5 32 -6 60v22v23q0 15 2 51q1 25 6 53q16 127 70 249q52 118 113 159q10 9 24 14q11 4 25 4q40 0 60 -36q22 -39 22 -101q0 -87 -47 -204q-45 -112 -160 -296v-1v-3q4 -20 15 -65l28 -111 q25 -100 43 -185q16 -79 24 -153q0 -4 2 -11.5t2 -11.5q1 -8 3 -22l12 16q2 1 4.5 4t3.5 5q3 4 10.5 12.5t11.5 13.5q1 1 20 25t36 45l467 580q111 137 138 170q43 52 79 88q5 5 8 7q5 3 6 7q1 1 5 3.5t6 4.5l8 8q39 38 79 68q38 29 74 49q50 28 103 42q55 15 110 16 l-78 -265l-36 7q2 9 5 20.5t4 14.5q3 12 3 20v2v4q0 26 -22 39q-21 12 -62 12q-115 0 -218 -124q-105 -126 -155 -324q-3 -14 -10 -45.5t-11 -48.5q-10 -39 -22 -107q-3 -15 -10 -54.5t-11 -61.5q-8 -40 -22 -122q-14 -80 -19 -129q-5 -45 -5 -61q0 -28 11 -39 q12 -12 36 -12q15 0 36 6q25 7 44 16q3 1 7 3t5 3l18 -30q-2 -1 -5 -2t-4 -2t-4 -3t-5 -2l-2 -1l-2 -1q-21 -8 -48 -18q-39 -15 -83 -33q-27 -11 -48 -18q-8 -3 -23 -9.5t-17 -7.5l-9 -4q-6 -2 -8 -2q-13 -6 -22 -9q-12 -3 -23 -9q4 71 20 181q15 106 48 284q1 6 16 84 q3 14 9 38.5t8 36.5q1 8 5 29q3 17 7 29q9 45 13 61q2 7 5 19.5t6 23.5t5 21q-9 -11 -22.5 -28t-18.5 -23q-15 -18 -27 -33q-8 -12 -24 -31q-5 -6 -16 -20.5t-17 -22.5l-4 -4l-5 -5q-1 -2 -4 -5q-18 -24 -29 -37q-29 -34 -151 -187l-72 -90q-45 -56 -93.5 -116.5t-72.5 -90 t-33 -40.5q-29 -36 -36 -43l-2 -2l-1 -1q-1 -2 -2.5 -4t-2.5 -4l-27 17q5 8 17 35q8 18 12 32q4 16 6 33q2 22 2 35q0 48 -9 115q-9 65 -30 161q-2 10 -2 13q0 4 -2 6q0 8 -6 35q-2 7 -6.5 26t-12.5 53l-16 68l-1 6q0 2 -0.5 4.5t-1.5 5.5t-1 5q-134 -181 -269 -308 q-135 -128 -276 -213q-113 -67 -225 -102q-114 -35 -221 -35q-267 0 -441 162t-174 407zM1847 1006q0 -9 2 -25q0 -28 4 -53q7 -41 11 -76q11 18 29 52q16 30 26 54q36 77 58 156q22 80 22 129q0 34 -16 56t-39 22q-40 0 -68 -84q-29 -85 -29 -203v-28z" />
<glyph unicode="N" horiz-adv-x="2486" d="M141 479q0 213 143 344t371 131q67 0 130 -12q62 -12 124 -39q60 -27 105 -56q56 -37 108 -79q29 -24 57 -40q19 -11 40 -11h4h6q11 1 30 11q15 8 52 30q1 0 8 5q2 1 6 3.5t6 3.5l19 -31q-7 -5 -19.5 -12.5t-17.5 -11.5q-23 -16 -29 -19q0 -2 -1 -2t-3 -2l-12 -8 q-2 -2 -7.5 -4.5t-7.5 -3.5l-30 -21q-13 -8 -28.5 -18.5t-19.5 -12.5q-11 -7 -16 -12q-3 -3 -6 -4t-12 -8q-100 103 -212 172q-108 66 -218 94q-38 11 -74 15q-33 4 -74 4q-158 0 -263 -97q-103 -96 -103 -247q0 -201 150 -331q149 -130 384 -130q172 0 318 98t247 275 q28 47 50 95q22 50 45 111q9 23 32 95q17 53 33 112q-81 70 -147 131q-48 45 -103 101q-14 16 -21 23q-8 8 -22 24q-1 3 -5 7l-5 5q-51 61 -78 105q-26 42 -26 63q0 15 15 53q14 35 42 88l47 93l35 -13q-22 -49 -29 -71q-8 -26 -8 -46q0 -39 33 -87q34 -50 127 -144 q57 -62 102 -105q57 -55 84 -79q18 75 53 124q33 46 88 74q-6 -22 -18 -60q-22 -67 -25 -79q-1 -2 -2.5 -6t-1.5 -5q-2 -6 -2 -9q-10 -36 -15 -52q-3 -10 -13 -47q29 -23 56 -47q29 -26 52 -41q8 -8 12 -11q1 -1 6.5 -5t8.5 -6q4 -3 28 -22q6 -5 31 -23q14 -12 72 -55 q6 -5 60.5 -44.5t94.5 -68.5q62 204 125 335q67 139 148 228q90 100 216 156q125 55 263 55h29q10 0 26 -2q21 -1 60 -7q22 -3 71 -16l-77 -262l-35 6q6 32 9 56q3 21 3 34q0 42 -43 61q-42 19 -139 19q-138 0 -247 -57q-108 -56 -181 -170q-65 -99 -110 -217 q-46 -119 -70 -250l21 -14l15 -11q63 -41 102 -68q26 -18 44 -38l5 -5q4 -4 5 -7l5 -5q3 -4 5 -8q21 -28 34 -62q11 -29 11 -69q0 -9 -2 -33q-1 -17 -6 -34q-15 -75 -55 -140t-88 -90q-4 -2 -20 -7q-9 -3 -19 -3q-72 0 -114 71t-42 191q0 60 6 117q6 55 17 111 q-29 21 -72.5 50.5t-56.5 38.5q-61 42 -90 64q-1 0 -2.5 1t-2.5 2t-2 1q-4 2 -6 4q-30 22 -86 67q-54 43 -116 91q-24 -75 -28 -86q-4 -10 -26 -72q-20 -52 -36 -85q-15 -30 -39 -74l-21 -33q-14 -22 -22 -33q-122 -176 -275 -287q-152 -110 -313 -139q-27 -4 -54 -6 q-36 -2 -55 -2q-222 0 -366 135t-144 346zM1995 350q0 -138 27 -202t85 -64q42 0 69 37q28 39 28 94q0 23 -4 40q-4 15 -13 38q-18 37 -61 77q-41 38 -123 97q-1 -6 -2.5 -16t-1.5 -15q-2 -20 -2 -26q-2 -20 -2 -29v-31z" />
<glyph unicode="O" horiz-adv-x="1847" d="M190 543q0 218 131 397t375 295q155 75 341 115q183 39 380 39q69 0 96 -1q41 -2 80 -6q17 -4 44 -7q35 -4 49 -7l-91 -248q167 -49 244 -135q76 -85 76 -225q0 -315 -297 -546q-296 -230 -700 -230q-334 0 -531 150t-197 409zM328 559q0 -244 178 -388t479 -144 q339 0 566 205q229 206 229 511q0 126 -57 218q-57 91 -146 112q-117 -287 -323 -443q-207 -157 -463 -157l-86 2q-16 0 -24 -1t-22 -3q-7 -1 -23 -7q-4 -1 -8 -3l-10 -5l-10 -5l3 6q1 1 3 4v2q0 1 3 5.5t5 9.5q3 7 23 46q19 42 45 57q27 15 72 15l125 -2q249 0 392 111 q144 112 243 382q-6 1 -32.5 6.5t-38.5 7.5q-42 6 -62 7q-16 2 -23 2h-23q-218 0 -361 -101q-145 -103 -191 -284q-6 10 -9 14l-8 13q-5 12 -6 23q-2 16 -2 28q0 148 168 247t420 99h7h7q39 0 74 -4q15 -2 49.5 -5.5t46.5 -4.5l45 147q-86 12 -152 18q-92 8 -135 9h-16h-16 q-236 0 -419 -57q-185 -58 -294 -162q-100 -98 -160 -234q-58 -131 -63 -278v-10v-9z" />
<glyph unicode="P" horiz-adv-x="1918" d="M346 1239l78 281l35 -11q-3 -19 -13 -60q-4 -17 -4 -36v-3v-1q0 -50 43 -69q42 -19 152 -19q85 0 200 6q62 3 285 19q16 1 76 6t86 7q21 1 54.5 3.5t43.5 3.5q68 4 132 6q86 2 114 2q215 0 319 -71q105 -72 105 -218q0 -30 -4 -55q-6 -38 -10 -57q-18 -66 -56 -132 q-40 -68 -88 -118q-68 -76 -153 -112q-84 -36 -187 -36q-56 0 -110 13q-48 12 -96 41q-45 29 -87 73q-47 49 -100 113l-405 -602q46 33 102 60q50 24 96 36q23 6 49 9q32 4 48 4h23q1 0 22 -3q56 -5 102 -17q50 -13 131 -44q3 -1 6 -2.5l5 -2.5t3 -1q6 -2 9 -2q5 -4 22 -10 q20 -7 80 -33l64 -25l61 -26q51 -19 72 -26q29 -9 43 -9q22 0 48 20q27 21 56 56q8 8 14 17q3 4 13 17l30 -18q-3 -3 -5 -7t-3 -5q0 -1 -7 -12q-2 -3 -7.5 -11t-9.5 -14q-33 -46 -35 -49l-12 -19q-6 -6 -8 -10q-1 -2 -11 -18q-7 -11 -16.5 -25t-14.5 -21t-7 -11 q-9 -14 -11 -17l-4 -4q-3 -3 -4 -6q-14 2 -25 6q-12 4 -24 6q-42 11 -81 28q-82 35 -106 46q-177 80 -280 114q-105 34 -195 39q-14 2 -20 2h-21q-95 0 -164 -39q-70 -39 -135 -127l-16 -24l-17 -25l-30 21l207 313q-64 81 -93 164q-30 86 -30 180q0 163 100 282 q100 120 234 120q40 0 74 -12t67 -36q17 -12 34 -28q14 -13 33 -37q0 2 1 3l1 1l1 1l2.5 5l2.5 5q3 6 27 46q1 2 7 13q2 4 8 12q10 21 16 43q6 21 6 37v10q0 2 -2 8q-3 3 -5 6q-1 1 -3 5t-4 6h7h5q0 2 1 2h3h17q3 0 43 2q4 0 24 2q34 3 47 4q-4 -6 -13.5 -20t-15.5 -22 q-22 -31 -57 -85l-8 -12l-8 -13q0 -2 -1 -3l-1 -1q-8 -14 -28 -42q-3 -4 -10.5 -14.5l-15 -21t-14.5 -20.5q1 -1 3 -4l1 -2q1 -2 13 -18q15 -19 51 -70q78 -105 156 -152q80 -49 178 -49q119 0 213 117q94 116 94 262q0 120 -80 177q-78 56 -250 56q-52 0 -165 -5 q-86 -4 -261 -17q-13 0 -16 -1t-8 -1q-19 0 -63 -4q-71 -6 -304 -23q-32 -2 -47 -3l-45 -3q-32 -2 -52 -2h-59q-102 0 -160 11q-64 12 -98 36zM731 762q0 -29 4 -53q6 -36 10 -52q15 -45 45 -93q34 -54 78 -105l263 397q-25 36 -60 73q-28 30 -55 46q-23 13 -41 17 q-23 5 -41 5q-89 0 -146 -66t-57 -169z" />
<glyph unicode="Q" horiz-adv-x="2043" d="M193 551q0 362 352 602q353 240 882 240q40 0 58 -1t53 -1q20 -1 69 -7q69 -9 79 -10q-10 -43 -29 -95q-22 -60 -39 -103q-7 -14 -11 -26q-2 -6 -12 -26q168 -49 244 -136q76 -86 76 -228q0 -77 -20 -151q-20 -75 -62 -144q-25 -46 -65 -97q-39 -50 -87 -98 q80 -68 139 -110q47 -34 64 -35h3h3h3h1q14 2 31 16q24 20 62 58l3 3q4 4 7 5l26 -21q-2 -1 -4.5 -4t-3.5 -5q-2 -1 -4.5 -4t-3.5 -5q-2 -2 -3 -2t-1 -2q-10 -11 -33 -34q-7 -7 -23.5 -22t-23.5 -22q-30 -28 -37 -35l-26 -26q-12 -12 -18 -17t-21 -20q-30 25 -78 64t-65 53 q-55 46 -87 71q-1 1 -5 3t-5 3q0 2 -1 3t-3 1q-119 -87 -271 -137t-319 -61q-22 0 -34 -1t-36 -1q-341 0 -532 149q-192 150 -192 416zM328 567q0 -249 177 -393q176 -143 486 -143q152 0 296 50q142 49 247 138q-39 29 -108 75q-52 35 -109 64q-135 77 -271 120 q-134 42 -247 42q-35 0 -67 -3q-29 -3 -62 -11q28 33 48 57q15 19 36 49q1 1 7 10q1 1 3 5t4 6q7 0 63 -4q30 -2 43 -2q229 0 387 116t248 351q-27 6 -50 9q-28 4 -42 5q-18 2 -39 3q-14 1 -47 1q-207 0 -356 -106t-184 -283l-9 12q-4 5 -6 13q-7 13 -8 24q-2 16 -2 31 q0 149 170 250q169 100 422 100h19h20q19 -1 59 -5q33 -3 70 -9q1 2 8 21q5 12 6 22q10 31 13 50l12 56q-74 11 -140 17q-72 6 -149 6q-229 0 -397 -45q-167 -45 -283 -138q-128 -101 -198 -248t-70 -313zM1053 596q123 -34 226 -78q110 -47 198 -102q28 -17 72 -48 q14 -10 41.5 -30.5t33.5 -24.5q54 63 92 144q40 84 56 168q3 19 7 57q3 28 3 55q0 130 -55 220t-152 122q-15 -29 -30 -54q-22 -38 -29 -48q-96 -155 -202 -242q-107 -87 -261 -139z" />
<glyph unicode="R" horiz-adv-x="2285" d="M160 463q0 403 423 672q422 268 1057 268q295 0 456 -73q159 -72 159 -212q0 -89 -61 -159q-60 -69 -181 -115q-3 -1 -7 -3t-7 -3q-55 -23 -86 -54q-29 -29 -47 -75q-22 2 -31 2q-11 0 -27 2h-41h-49h-38q-11 0 -33 -2q-14 0 -22 -1t-23 -1l-39 -99q3 -1 7 -5l7 -7 q15 -13 43 -39q1 -1 22 -20.5l35 -32.5q44 -39 73 -67q36 -34 50 -48l1 -1q1 -1 3 -1l53 -52l76 -77q110 -106 125 -120q31 -28 51 -29h4h3q21 0 45 12q20 10 63 43l25 -29q-6 -6 -19.5 -17t-18.5 -15q-6 -5 -44 -33l-4 -4l-4 -5q-10 -8 -68 -50q-42 -31 -51 -38 q-27 29 -40 41t-38 37q0 1 -1 2l-2 2q-2 2 -3 2l-81 81l-103 104q-66 66 -142 138q-71 67 -108 101q-7 2 -11 6l-8 9q-115 -200 -302 -336t-390 -174q-46 -8 -69 -10q-34 -3 -66 -3q-228 0 -373 136q-143 134 -143 352zM287 504q0 -203 133 -329q134 -126 346 -126 q30 0 60 3q32 3 61 9q99 22 199 74q97 50 163 123q34 36 61 73q26 36 56 85q22 40 35 66q25 50 39 77q-84 77 -165 115q-78 37 -155 37q-131 0 -217 -86t-86 -219v-8v-7q0 -10 2 -30q1 -14 6 -37q-38 22 -57 50q-18 27 -18 68q0 38 17 73q20 41 50 77q21 26 60 60 q38 33 75 59q74 48 135 71q66 25 121 25q15 0 39 -2q19 -2 37 -6q37 -10 84 -38q36 -21 121 -85q1 4 5 12t5 12q3 8 21 53q4 10 10.5 29t9.5 27q20 58 34 118q13 55 13 81q0 28 -16 43q-15 14 -51 14h-3h-4q-6 0 -22 -2q-12 -1 -33 -6l-10 35q10 2 31.5 6.5t28.5 6.5 q46 10 71 15q8 3 26 7q1 0 27 8q29 7 62 17t49 15q-4 -18 -13 -53.5t-13 -52.5q-4 -15 -10.5 -43.5t-10.5 -42.5l-13 -41q-6 -21 -12 -39l-12 -36l-12 -36q36 -2 46 -2h33q182 0 286 75t104 206q0 121 -145 184q-146 64 -417 64q-46 0 -69 -1q-12 -1 -35.5 -2t-34.5 -1 q-102 -6 -234 -27q-111 -17 -214 -47q-300 -89 -490 -303t-190 -465z" />
<glyph unicode="S" horiz-adv-x="2467" d="M270 745q0 286 154 472q153 184 391 184q149 0 278 -67t212 -187q2 -2 4.5 -6t2.5 -5q6 -9 7 -10q25 -40 39 -66q21 -41 35 -77q4 -9 11.5 -28.5t8.5 -23.5q9 -22 21 -61q4 -9 7 -20q4 -14 5 -21q0 -1 1 -3t1 -3q0 -2 2 -4q10 -39 24 -84q5 -16 16.5 -58t18.5 -65l17 -61 l16 -59q3 -8 28 -94q14 -48 23 -70q2 -6 11 -29l12 -29q11 7 33 23q11 8 32 29q57 52 108 124q49 69 91 154q21 44 36 87t21 83h-45q-164 0 -236 28q-69 27 -69 95q0 37 18 83t48 93q31 47 69 89q39 44 84 81l17 12q12 9 18 13q83 59 181 94q100 36 264 65q8 0 13 1t13 3 q-6 -24 -9 -37q-4 -20 -5 -30l-3 -12q-1 -4 -1 -15l-6 -33q-10 -52 -12 -63q-1 -9 -3 -14v-1v-3q-1 -13 -3 -25q-1 -7 -1 -14q0 -14 7 -21q8 -8 18 -8h8q2 0 10 2q5 0 8 1l9 3q17 6 29 12t16 7h1h1q3 0 5 1q4 2 7 3l12 -33q-43 -20 -125 -55q-93 -39 -151 -60q0 2 1 5 t1.5 5.5t0.5 4.5l3 12v5q0 3 2 5q0 4 2 20q0 3 1.5 12l2.5 15q6 51 11 92q3 22 3 37v5v7q0 33 -14 47q-15 15 -43 15q-32 0 -66 -11q-39 -13 -77 -30q-34 -14 -60 -30q-32 -20 -53 -36q-52 -39 -82 -79q-31 -41 -47 -89q-4 -13 -7 -32q-3 -16 -3 -33q0 -56 46 -71 q47 -15 206 -15q2 15 3 27q1 8 1 16q0 42 -6 80q-5 30 -19 69q53 -12 77 -55t24 -121v-3v-7v-3v-3q68 2 75 2h45h17h20q59 0 91 -3q35 -3 57 -13q3 0 4 -1t4 -1q72 -27 109 -82q36 -53 36 -133q0 -258 -199 -463t-450 -205q-103 0 -183 41q-77 39 -134 127q-68 -44 -147 -75 q-80 -32 -160 -52q-52 -14 -112 -22q-50 -7 -106 -7q-327 0 -528 203t-201 536zM350 823q0 -309 213 -529t512 -220q45 0 81 4q39 4 79 12q71 16 133 41q66 26 139 66q-3 7 -8 18t-6 13q-5 11 -10 28q-2 0 -2 2t-2 4q-6 14 -9 22q-2 4 -4 11.5t-4 11.5l-26 80l-80 295 q-94 350 -229 511q-133 159 -334 159q-207 0 -325 -141q-118 -140 -118 -388zM1632 231q50 -105 110 -148q58 -42 152 -42q192 0 341 160t149 364q0 115 -65 160t-230 45l-51 2h-25q-13 -49 -26 -84q-15 -40 -39 -86q-55 -105 -139 -206q-83 -99 -177 -165z" />
<glyph unicode="T" horiz-adv-x="1853" d="M244 879q0 23 3 45t9 45q40 149 183 278q142 128 304 166q26 6 52 9q24 3 49 3q80 0 202 -24q107 -21 281 -72q5 0 6 1l2 1l28 9q21 8 120 42q51 16 110 30q66 16 117 22q34 4 70 6q46 2 69 2q145 0 231 -46q87 -46 87 -122q0 -50 -43 -84q-44 -35 -133 -57 q-11 -3 -27.5 -8.5t-21.5 -6.5q-19 -5 -37 -12q-5 -2 -13.5 -5.5t-12.5 -5.5q-4 -1 -8 -3t-8.5 -5t-7.5 -4q-3 -3 -9 -7q-1 -1 -5 -3t-6 -4q-56 15 -124.5 31.5t-79.5 19.5q-87 22 -97 25q-2 0 -3 1t-3 1q-10 3 -39.5 10.5t-49.5 13.5q-8 2 -70.5 19.5t-113.5 32.5 q-2 2 -13 5q-15 4 -28 5q-166 -88 -287 -269q-123 -183 -157 -380q-3 -20 -7 -65q-3 -31 -3 -64q0 -169 113 -258q115 -91 325 -91q265 0 442 157q176 156 209 425q2 -6 7.5 -17t7.5 -16q7 -17 8 -28q2 -14 3 -20t1 -21q0 -76 -52 -164q-51 -85 -159 -186q-57 -54 -109 -94 q-46 -35 -106 -68q-76 -41 -145 -58q-73 -18 -152 -18q-235 0 -377 115q-141 114 -141 307q0 38 5 85q4 41 15 85q30 135 106 268q77 134 183 234q8 8 13 12q10 8 14 12q17 17 21 20q16 12 24 17q30 22 62 43q34 22 81 51q-5 0 -7 1q-4 2 -5 3q-123 33 -216 49 q-109 19 -165 19q-202 0 -327 -124q-126 -125 -126 -321q0 -20 1 -29t1 -28q1 -7 4.5 -24t5.5 -26q0 -1 13 -60q-47 31 -71 72q-23 40 -23 100zM1393 1311q8 -2 19 -6.5t15 -5.5q5 -2 14.5 -5t14.5 -4q3 0 5 -1q4 -2 5 -3q36 -8 66 -16q54 -15 113 -29q143 -34 203 -45 q64 -12 114 -12h3h3q66 0 107 20q43 21 43 53q0 55 -95 96q-93 40 -225 40q-39 0 -94 -5q-40 -4 -98 -16q-62 -12 -111 -25q-55 -15 -102 -36z" />
<glyph unicode="U" horiz-adv-x="2529" d="M199 664q0 183 119 333q120 151 344 252l54 24q24 11 54 19q117 42 237 58q121 16 291 16q52 0 75 -1q38 -2 65 -3q18 0 28 -1q20 -2 31 -3q-17 -86 -71 -248q-65 -197 -117 -334q-27 -70 -31 -80q-22 -54 -33 -80l-75 -185q-29 -72 -37 -95q-22 -58 -36 -105 q-12 -41 -12 -69q0 -41 29 -68q27 -26 74 -26q62 0 142 35q84 36 226 124q84 50 132 83q59 40 94 69q3 7 7 19q3 11 5 18q3 7 7 19q4 11 5 20q7 21 29 98q6 20 18 67t17 64q8 30 12 44t10 42q56 193 120 311q63 117 157 205q28 24 43 36t45 32q44 26 88 43q42 16 76 16 q47 0 74 -34q28 -36 28 -93q0 -98 -60 -222q-58 -120 -182 -267l-42 -49q-26 -30 -39 -43q-5 -7 -19 -21q-13 -13 -18 -20q-54 -54 -105 -101q-65 -60 -145 -129q-3 -9 -9.5 -27t-8.5 -23q-12 -34 -19 -52q-31 -75 -44 -102q-32 -66 -50 -97h33h43q50 -1 84 -3q34 -1 49 -3 q48 -2 83 -3q25 -1 50 -1q150 0 253 115q101 113 101 286v27q0 9 -2 37q24 -21 36 -45q11 -22 11 -64q0 -15 -1 -23l-3 -24q-22 -140 -152 -261q-129 -120 -280 -144q-5 -1 -14.5 -2t-14.5 -1q-10 -1 -28 -1q-27 0 -60 3q-44 4 -69 5q-10 1 -134 14q-45 5 -75 6h-14h-15 q7 13 11 25q6 16 9 26q10 20 12 26q6 18 9 26q18 46 33 90q15 42 22 69q-3 -1 -6 -4q-2 -2 -4 -2q-2 -2 -10 -8l-12 -9q-21 -17 -80 -57q-11 -8 -55 -34q-58 -35 -62 -37t-19 -11t-24 -14q-15 -8 -45 -22q-46 -24 -69 -34q-5 -2 -28.5 -12.5t-35.5 -15.5q-56 -24 -110 -38 q-43 -11 -87 -11q-71 0 -114 37q-44 38 -44 94q0 37 12 81q16 56 38 120q0 1 5 13q4 9 5 16q0 1 5 13q4 10 5 15l37 88l35 90l35 91q2 5 7.5 20t8.5 23q7 23 18 45q2 6 11 29l12 30q18 51 52 147q23 64 40 123q15 49 24 80q7 25 7 49v4v5q0 49 -45 71q-46 23 -144 23 q-368 0 -606 -203q-237 -202 -237 -520v-9v-10q1 -19 7 -70q5 -42 15 -96q-52 44 -77 108q-25 63 -25 153zM1937 508q103 82 181 167q86 94 147 185q73 107 117 212q43 102 43 185q0 47 -17 72t-47 25q-34 0 -77 -37q-41 -35 -86 -107q-16 -24 -32 -52q-20 -36 -32 -60 q-5 -9 -10 -22q-4 -10 -10 -21q-4 -12 -11 -25q-4 -8 -10 -24q-22 -54 -59 -173q-41 -132 -97 -325z" />
<glyph unicode="V" horiz-adv-x="2357" d="M293 854q0 284 183 476t454 192q199 0 362 -115q161 -113 256 -326q42 -92 68 -193q24 -95 47 -245q8 2 11 3q4 2 5 3q6 1 18 6q8 3 56 19q37 13 103 36.5t93 33.5q56 20 128 51q7 4 21 11t21 11q8 4 22.5 12.5t17.5 10.5q21 12 58 38q14 10 69 50q-7 65 -50 125 q-40 56 -110 102q-14 8 -22 13q-4 2 -10.5 7t-10.5 7q-61 31 -128 48q-62 16 -192 32l-15 3q-5 1 -15 1q8 8 12 11t10 9q7 5 20 18q12 12 17 19q4 7 14 21q2 3 8 10t9 12q20 0 29 -1t28 -1q38 -2 81 -3q29 -1 124 -1q71 0 113 1t131 1q43 0 66 1t65 1h30q11 0 27 2h34h29 q18 1 56 3q46 2 71 5q-46 -107 -125 -208q-80 -102 -192 -199q0 -14 -3 -29q-4 -21 -5 -29q-23 -99 -124 -217q-104 -121 -343 -342q-26 -24 -64 -59.5t-48 -44.5q-50 -47 -79 -78l-8 -8q-2 -2 -8 -10q-37 -37 -68 -72q-10 -11 -86 -94q1 9 3 26.5t2 24.5l4 49q0 38 1 58 t1 67q0 48 -2 124q-1 39 -7 109l-4 45q-2 25 -6 48q-167 -62 -256 -158q-88 -94 -88 -207q0 -17 1 -25l3 -24q2 -11 13 -41q7 -21 22 -47q-52 5 -79 35t-27 82q0 30 7 58q9 34 21 58q44 92 143 178q101 87 236 148q-22 192 -71 334t-130 248q-99 128 -227 196 q-131 70 -270 70q-216 0 -357 -155t-141 -390q0 -233 165 -394q166 -161 404 -161q24 0 34 1l30 3q19 2 38 6q33 8 42 10l6 -18q-12 -6 -32 -15t-24 -11q-19 -9 -51 -17q-34 -8 -65 -12q-29 -4 -74 -4q-220 0 -373 167q-153 166 -153 404zM1667 166q21 21 29 30t24 23 q0 2 1 3l1 1q16 14 24 22l26 25l9 9q6 6 9 10q2 1 5 3.5t4 4.5l4 4t5 4l35 33l33 31l35 32q153 146 230 236q79 92 112 168l12 33q5 14 10 32q-36 -31 -65 -53q-12 -9 -35 -24.5t-27 -18.5q-5 -4 -34 -23q-5 -3 -37 -22q-34 -18 -106 -50q-55 -25 -109 -42l-60 -16l-57 -19 l-57 -18l-2 -1l-7 -3q-3 0 -5 -1t-5 -1q0 -17 1 -25t1 -25q1 -28 3 -60q1 -21 1 -77q0 -66 -1 -92t-3 -76q0 -18 -1 -28q0 -5 -1 -14.5t-2 -14.5zM2136 1282q121 -49 182 -115q63 -67 70 -153q68 62 114 127q45 64 83 149q-13 0 -16 -1t-9 -1h-20h-52q-88 -2 -97 -2h-32h-59 q-18 0 -40.5 -0.5t-35 -1t-19.5 -0.5h-34h-3h-1q-8 -2 -13 -2h-18z" />
<glyph unicode="W" horiz-adv-x="2818" d="M213 614q0 336 247 553t630 217q314 0 519 -156q204 -155 283 -456q15 16 136 143q67 70 124 123q193 179 370 270q182 93 339 93q111 0 180 -60q70 -61 70 -153q0 -165 -171 -305q-172 -140 -435 -191q-4 -7 -19 -27q-11 -14 -18 -28q-65 -91 -159 -202 q-92 -109 -222 -245q-46 -48 -119 -121q-57 -56 -94 -89q-1 -1 -3.5 -4t-5 -5t-4.5 -4q-10 -8 -14 -12q2 40 2 56v36q0 149 -10 286q-11 146 -33 292q-7 -8 -16.5 -20.5t-12.5 -16.5q-17 -22 -22 -27q-8 -9 -29 -34q-5 -6 -18 -22.5t-22 -27.5q-19 -23 -91 -106 q-29 -34 -59 -72l-82 -104l-84 -105l-82 -104l-5 -6q-6 -8 -13 -15q-1 127 -10 333q-7 161 -23 353q-1 24 -5 54q-4 33 -5 45q-10 81 -24 105q-13 24 -42 24q-9 0 -28 -7q-20 -7 -43 -20l-19 33q3 1 5 3q1 1 3 1q1 1 19 11q7 4 94 54l1 1q1 1 3 1q4 2 12 7t16 9.5t15 8.5 q56 35 74 47q28 -147 43 -360q14 -204 16 -510l3 3l3 3q0 2 1 3t3 1q12 13 61 73q32 39 103 130q17 24 29 37q19 21 27 32q1 3 4 6l4 5q25 32 77 91q51 59 111 130l-4 20q-136 0 -206 -55q-71 -56 -77 -170q-14 10 -20 25t-6 30t5 33q3 11 13 35q30 56 96 105q69 52 140 69 q5 3 17 5q2 0 6 1t7 1.5t5 0.5q-84 262 -285 409q-200 146 -471 146q-312 0 -509 -182q-198 -183 -198 -469q0 -268 175 -446q176 -179 436 -179q15 0 45 2q19 1 51 8l4 -18q-49 -18 -98 -25q-56 -8 -119 -8q-256 0 -424 171t-168 433zM1909 692q20 -85 34 -222 q13 -133 15 -280v-20v-20v-35q14 12 41 39l41 41q40 41 90 98q30 34 88 102q72 89 115 151q59 84 88 136q-14 -1 -37.5 -2.5t-30.5 -1.5l-61 -4h-33h-33q-43 0 -128 5q-28 2 -93.5 6.5t-95.5 6.5zM1944 770q35 -5 71 -6q12 0 37.5 -1.5t38.5 -2.5q82 -7 141 -8q90 -2 115 -2 q26 0 46 1q27 1 65 3q21 38 31 71t10 58q0 32 -21 44q-20 11 -90 13v37h254q-11 -53 -34 -104q-25 -57 -58 -111l10 2.5t9 1.5q2 0 9 1.5t11 2.5q91 17 146 37t101 51q71 45 117 113q45 68 51 139q2 8 2 13v14q0 85 -60 134q-61 50 -161 50q-175 0 -387 -137 q-207 -134 -454 -414z" />
<glyph unicode="X" horiz-adv-x="2459" d="M137 502q0 205 124 329q125 125 325 125q76 0 146 -18q73 -19 140 -55q52 -27 116 -75q54 -40 118 -101l12 -13l12 -12l5 -4l4 -4q13 -14 59 -66q54 -61 90 -104q20 25 21 27q10 18 14 26q7 13 8 26q2 18 2 27q0 53 -34 87t-93 46q-16 4 -38 6q-21 1 -54 3q6 8 9 11 l12 11q5 7 14.5 21t14.5 21q17 23 28 46h4q2 0 4 -2h4h4q7 -1 23.5 -2.5t24.5 -2.5q23 -2 100 -9q107 -10 117 -10q12 -1 31 -3t24 -2h3h3q-7 21 -11 37q-2 7 -5.5 19t-4.5 16q-3 7 -7 21q-4 15 -5 20q-3 10 -9.5 28t-11.5 33t-10 29q-3 10 -16 47.5t-22 61.5t-20 50 q-11 25 -19 38q-12 22 -27 34q-14 11 -31 11q-16 0 -34 -11q-19 -12 -48 -36l-24 31q5 4 20.5 14t24.5 17l22 16.5t29 21.5q15 12 16 13q2 2 17 14q14 11 40 33q4 4 17 14t19 16q7 -11 19 -31t17 -30q18 -34 39 -82q23 -51 37 -88q2 -7 7.5 -21.5t6.5 -17.5q6 -18 13 -41 q4 -7 6 -17q2 -11 6 -18q1 -9 5 -18t5 -19l37 -123q3 -11 7 -22t6 -18t3 -10q1 -5 3 -10.5t2 -6.5q0 -2 2 -8q3 -10 4 -15l43 -4q5 5 6 7q2 4 2 5q9 9 22 27q1 2 85 111q81 102 158 183q73 76 153 134q89 64 187 97q96 32 200 32q113 0 183 -53q69 -52 69 -141 q0 -221 -279 -364q-278 -142 -710 -142h-34q-14 0 -52 2q15 -52 42 -130q6 -17 16 -47.5t19 -56.5t17 -49q3 -8 9 -24.5t8 -20.5q3 -9 10.5 -27t9.5 -24l4 -8l4 -8q27 -63 31 -73q13 -31 22 -48q17 -36 38 -55q18 -17 40 -17h5h5q13 2 31 12q23 13 57 37l23 -28l-4 -5l-2 -2 t-2 -1l-2 -1q-1 -1 -9 -5q-5 -2 -26 -19q-71 -52 -88 -64q-5 -3 -52 -35q-2 0 -2 -1t-2 -1q-2 -1 -6 -3.5t-7.5 -4.5t-7.5 -4q-11 -6 -26 -16q-57 97 -119 253q-54 138 -126 369q-4 -5 -10 -11q-4 -4 -5 -7l-18 -24q-28 -34 -68 -85q-61 -80 -126 -148q-66 -69 -126 -122 q-133 -116 -272 -172q-135 -55 -283 -55q-249 0 -402 143q-155 144 -155 373zM190 561q0 -209 155 -343t396 -134q112 0 218 28q99 26 198 91q100 66 205 175q104 108 227 275l-20 68q-66 4 -103 6l-35 2.5t-22 1.5h-9h-9q-10 1 -28 3q-14 2 -34 3q20 -27 28 -44t13 -36 q2 -11 3 -18q1 -5 1 -18q0 -10 -2 -28q-2 -14 -6 -26q-13 -42 -46 -83q-38 -47 -95 -95q-189 224 -322 338q-132 114 -250 148q-28 9 -65 14q-29 4 -66 4q-147 0 -239 -92q-93 -93 -93 -240zM1745 817q68 -4 117 -6q62 -2 90 -2h25h26q304 0 487 96t183 258q0 80 -62 127 t-168 47q-70 0 -136 -18q-68 -18 -130 -57q-37 -21 -87 -60q-44 -34 -89 -80q-49 -49 -110 -121q-37 -44 -146 -184z" />
<glyph unicode="Y" horiz-adv-x="2660" d="M256 739q0 276 181 458q181 183 452 183q269 0 425 -174q157 -175 187 -508q24 2 42 3q12 1 34 1h11h11q18 0 62 -2q26 -1 82 -8q103 154 178 249q76 96 150 175l24 24q4 4 12.5 11.5t12.5 11.5l24 24q5 5 14 12t11 9q126 108 251 157q127 50 263 50q126 0 198 -60 t72 -165q0 -36 -7 -68q-9 -41 -21 -69q-35 -86 -110 -169q-77 -85 -177 -151q-129 -82 -282 -123q-152 -41 -326 -41h-51h-35q-13 1 -68 7q-37 4 -125 12l-3 1q-2 1 -5 1q-5 0 -8 1t-11 1q-5 -7 -9 -14q-4 -8 -7 -11q-1 -1 -4.5 -7t-5.5 -10q-13 -20 -19 -30 q-15 -25 -40.5 -68.5t-26.5 -45.5q-8 -13 -28.5 -47.5t-31.5 -53.5q-4 -6 -19 -30q-6 -10 -11 -21q-2 -2 -2 -3v-1q-8 -10 -12 -19l-13 -26q0 -7 -1 -8t-1 -4v-2v-1q0 -3 -1 -6t-1 -14q-2 -24 -2 -27v-12h-2v-2v-10q0 -1 -2 -23l-3 -15q-1 -3 -1 -9v-7v-10q-24 -8 -38 -15 q-5 -3 -14.5 -7t-13.5 -6q-1 0 -24 -17q-13 -9 -19 -18q-3 -3 -7 -9q-1 -1 -3 -5.5t-4 -6.5q-19 -28 -37 -74q-16 -41 -27 -90q-3 -18 -7 -52q-3 -25 -3 -48q0 -65 24 -98q23 -32 83 -53l-50 -142q-66 27 -97 79q-32 53 -32 138v21q0 6 2 20q5 67 30 139q26 72 81 183 q2 4 10 18.5t11 20.5q9 19 12 30q5 11 6 22q2 16 2 28q2 2 2 5v5q1 9 5 46q3 26 3 52q3 22 5 68q1 22 1 55v43q0 23 -2 107v73v23q-154 -34 -246 -143t-92 -252q0 -64 15 -112q15 -49 47 -91q14 -20 23 -30q18 -20 30 -32h-9q-3 0 -9 -2h-7h-6q-63 0 -104 59t-41 148 q0 172 103 311t290 222q-11 111 -31 198q-18 78 -53 148q-69 139 -192 220t-269 81q-217 0 -358 -141t-141 -363q0 -213 132 -390q133 -178 326 -224v-19q-234 1 -384 159q-148 155 -148 402zM1497 289q1 2 3.5 6t3.5 6q2 3 5 6q1 4 9 16q2 3 8.5 14t11.5 19q29 52 37 65 l14 23q60 96 72 117q14 24 14 25q1 1 3 4l3 6q-67 7 -82 8q-32 2 -45 2h-1h-3h-17q-6 0 -28 -2q2 -24 2 -34v-19q0 -36 -1 -56t-1 -59q-1 -13 -2.5 -39t-1.5 -38q-1 -13 -2.5 -36.5t-1.5 -33.5zM1786 688q114 -13 185 -17q90 -5 157 -5q210 0 365 50t262 154q57 58 86 119 q28 60 28 127q0 97 -71 156t-187 59q-62 0 -118 -13q-52 -12 -117 -38q-146 -66 -293 -213q-145 -145 -297 -379z" />
<glyph unicode="Z" horiz-adv-x="2035" d="M80 317q0 269 192 432q190 162 508 162h16h15q49 0 119 -5q63 -4 162 -15l98 104q-9 9 -39 37q-7 7 -23 21t-24 22q-2 2 -8 7.5t-9 8.5q-1 1 -16 13q-5 5 -8 7t-8 7q-36 33 -64 50q-23 14 -41 14q-20 0 -34 -30q-12 -27 -23 -101l-41 4l74 366l27 -27l28 -28 q41 -40 93 -85q65 -56 83 -71q26 -22 60 -47q23 -17 47 -30q2 -1 9 -5.5t11 -6.5q7 -3 23 -9q91 91 114 113q27 26 62 53q3 3 5 4t5 4q1 0 8 5t8 5q48 35 93 52q44 16 84 16q29 0 48 -19t19 -47v-3v-3q-6 -83 -118 -154q-111 -70 -253 -81q-17 -1 -40 -5q-10 -2 -33 -12 q-31 -12 -67 -47q-18 -17 -101 -104q42 -3 142 -11q50 -4 63 -4h19h21h93q-1 -3 -2.5 -8t-1.5 -6q0 -2 -2 -6.5t-3 -7.5q-8 -32 -10 -39q-10 -33 -14 -53q-2 -10 -7 -25.5t-6 -21.5q-2 -6 -12 -35v-2q0 -2 -1.5 -8.5t-2.5 -9.5q-1 -8 -6 -19h-37q7 27 8 44q2 26 2 36 q0 39 -22 51q-23 13 -90 14h-5h-5q-12 0 -41.5 1.5t-46.5 2.5q-14 0 -127 9l-7 -7l-4 -4q-4 -4 -7 -8t-21 -22l-34 -34q-8 -8 -16 -18l-21 -21q-25 -25 -48 -50l-15 -15q-5 -5 -8 -6l-32 -34q-6 -7 -24 -24.5t-48.5 -48.5t-61.5 -63l-2 -2q-1 -1 -3 -3.5t-4 -4.5t-7.5 -8 t-9.5 -10q116 79 230 124q108 43 192 43q96 0 222 -47q120 -45 275 -143q68 41 116 61q47 20 85 21h5h7q46 0 72 -17t49 -65q-11 4 -31 10l-28 8q-5 0 -14.5 1.5t-14.5 2.5q-10 1 -31 1q-11 0 -17 -1q-12 -2 -17 -2q-40 -5 -72 -16q-31 -11 -68 -31q34 -22 87 -60 q21 -15 60.5 -44t47.5 -35l12 -8q8 -6 10 -8q30 -22 88 -66q53 -40 74 -57q-3 -3 -9 -7t-9 -7q-2 -2 -8 -6.5t-8 -6.5q-12 -10 -19 -14l-62 -49q-24 23 -73 62q-45 36 -96 75q-5 5 -15 11q-4 2 -16 12q-20 14 -107 76q-51 36 -84 57l-3 -3q-1 -1 -3 -1q-23 -16 -65 -49 q-34 -27 -90 -72q-191 -159 -310 -234q-118 -74 -227 -102q-39 -8 -74 -12q-42 -5 -78 -5q-253 0 -415 144t-162 368zM131 381q0 -19 1 -29q0 -5 1 -14t2 -14q12 -88 61 -174q50 -88 119 -138q67 -51 159 -78q88 -26 200 -26q77 0 138 10q65 11 128 33q72 26 160 79 q73 44 182 130q73 57 81 64q25 20 60 46l3 3l4 3q2 1 20 14q3 3 9.5 8t10.5 7q-10 6 -14 9q-11 8 -14 10q-14 6 -20 10q-12 8 -19 12q-5 2 -21 11t-25 14q-8 4 -26 12.5t-28 13.5q-107 49 -174 69q-72 21 -132 21q-90 0 -213 -61q-129 -64 -256 -166q-54 -43 -101 -87 q-66 -62 -97 -95l-27 33q65 57 99 88q31 28 81 73q3 4 10 11q1 1 3 2.5t4.5 3t3.5 2.5q63 61 98 97q52 54 127 130q11 13 27 28q16 14 26 27l3 4l3 3q108 110 113 116q35 37 70 72l8 10l8 8l8 11q-104 11 -175 18q-74 7 -126 8h-20h-21q-118 0 -199 -24q-80 -24 -155 -82 l-4 -4l-4 -4q-79 -67 -119 -150q-41 -85 -41 -178zM1352 1104q5 -1 12 -2.5t9 -1.5q12 -2 18 -2h4h4q25 0 55 5q27 5 51 15q18 6 40 20q36 22 40 25q27 21 43 42q15 19 15 36t-11 25t-32 8q-46 0 -104 -40q-60 -41 -144 -130z" />
<glyph unicode="[" horiz-adv-x="688" d="M82 -135q26 89 56 168q7 18 24 64.5t35 93.5l36 94q97 251 147 390q77 213 144 406q40 116 86 243q26 72 62 163q0 1 1 3.5t2 4.5q1 1 2 3.5t1 4.5q14 -2 16 -2h11h57l235 2h33q0 -1 -1 -2l-2 -2t-3 -4q-1 -2 -7 -13q0 -1 -6 -10t-10 -16h-233l-14 -39l-15 -37l-14 -39 l-20 -57q-2 -5 -5.5 -11.5t-3.5 -8.5l-2 -7q-12 -34 -29.5 -83.5t-23.5 -66.5q-18 -53 -33 -93q-2 0 -2 -1v-3q-10 -23 -29 -78q-13 -37 -42 -115q-7 -20 -23.5 -64t-24.5 -67q-5 -14 -22.5 -62t-26.5 -75q-27 -73 -42 -117q-19 -54 -29 -80q-18 -52 -34 -94 q-4 -10 -14 -36.5t-21 -55t-22 -57.5q-2 -6 -5 -13q-4 -7 -5 -14q-2 -4 -25 -72q-19 -56 -32 -98l242 -2l-4 -4q-1 -1 -3 -4q-1 -1 -3 -5l-3 -10q0 -2 -1 -3l-3 -3q0 -1 -1 -4t-2 -4q-1 -5 -5 -8l-27 -2l-282 2q-6 2 -15 2q-6 0 -20 -2z" />
<glyph unicode="\" horiz-adv-x="679" d="M406 1507h38l82 -1648h-34z" />
<glyph unicode="]" horiz-adv-x="819" d="M-4 -133l3 6q1 1 1 4q1 3 4 6t4 6q0 1 2 3q0 2 1 2t2 2l1 2v1v1q3 3 4 5q0 1 2 3t3 4l221 -2q15 36 25 62q4 9 10.5 24t7.5 18q1 1 3 5q1 2 1 6q13 31 33 88q6 18 26 75.5t33 94.5l15 40t21 57q5 15 26.5 73t35.5 96l25 65q8 22 24 68q3 10 23 67q4 12 12.5 34.5 t12.5 33.5q11 30 27 73.5t21 57.5q4 12 15.5 44t17.5 48q4 12 18 50q3 8 9.5 26t9.5 27q8 20 15.5 40.5t12.5 33t7 18.5l12 31l3 9t3 8q1 3 5 13t6 17q8 24 12 34q5 13 10 29q4 11 14 35q8 18 15 45h-225l3 6q1 1 3 4q0 1 2 5l6 10q0 1 1 2.5t2 2.5t1 2q3 6 4 11q60 2 73 2 h50h21h20h76h57h29l-4 -12l-4 -12q-9 -27 -29 -81.5t-30 -82.5q-12 -33 -41.5 -113.5t-43.5 -118.5q-65 -169 -159 -429q-29 -79 -79 -220t-52 -147q-55 -167 -85 -245q-40 -102 -63 -157q0 -2 -1 -4l-2 -4q-1 -1 -2 -4t-1 -4h-11h-10q-6 2 -7 2h-5h-9q-4 0 -26 -2l-43 -2 q-22 2 -24 2h-13h-38q-8 0 -24.5 -0.5t-48 -1t-59.5 -0.5h-9q-5 0 -15 2z" />
<glyph unicode="^" horiz-adv-x="1024" d="M-49 588l563 846h12l545 -846h-67l-431 659l-440 -659h-182z" />
<glyph unicode="_" horiz-adv-x="1024" d="M51 -180h922v-76h-922v76z" />
<glyph unicode="`" horiz-adv-x="1024" d="M567 1116l29 86q102 -27 179 -122q76 -93 97 -220q-58 97 -135 161q-79 65 -170 95z" />
<glyph unicode="a" horiz-adv-x="768" d="M-20 90q0 37 7 72q8 39 19 71q69 188 278 355q207 165 443 221q40 9 90 16q45 6 90 6q17 0 25 -6t8 -18q0 -7 -6 -25q-7 -22 -16 -37q0 -1 -3 -7q0 -1 -1.5 -3t-2.5 -4q-15 3 -51 7q-32 4 -47 5h-16h-17q-140 0 -249 -42t-212 -134q-15 -12 -16 -13q-3 -2 -8.5 -7 t-7.5 -8q-53 -51 -89 -102q-39 -55 -65 -105q-20 -42 -31 -86q-10 -41 -10 -84q0 -37 17 -59q17 -21 43 -21q34 0 84 37q54 40 104 94q37 38 83 98q40 52 71 109q24 44 33 62q20 40 28 59q12 29 26 74q6 18 21 81q22 -15 33 -36q10 -20 10 -60q0 -51 -23 -103 q-25 -56 -75 -118q13 0 19 1q2 0 6 1t7 1.5t5 0.5q7 1 32 7q15 4 50 16q-2 -6 -3 -8l-1 -2q-2 -3 -3 -5q-9 -21 -11 -25q-3 -5 -25 -63q-42 -96 -50 -118q-10 -29 -10 -46q0 -9 8 -19q7 -9 19 -7q13 1 34 11q14 6 56 30l18 -27q-54 -41 -126 -70q-81 -32 -162 -53 q5 54 33 137q30 89 85 209q-38 -48 -71 -81q-41 -41 -76 -72q-100 -94 -186 -144q-91 -53 -148 -53q-32 0 -50 24q-17 23 -17 66z" />
<glyph unicode="b" horiz-adv-x="755" d="M-39 0q74 179 99 238q9 20 32.5 74t34.5 81q0 3 1 4t3 4q4 9 15.5 38t18.5 46q3 7 40 101q79 201 123 312q30 77 69 187q22 65 28 84q9 30 9 39q0 16 -9 23q-10 8 -26 8q-13 0 -28 -4q-23 -6 -43 -14l-11 30q42 15 72 28q5 2 36.5 16l49.5 22q3 1 10 3.5t10 4.5 q12 6 19 10l45 21q34 16 41 20q-2 -35 -12 -77t-37 -117q-43 -131 -100 -276q-65 -166 -142 -345q50 52 94 89q49 42 99 75q72 49 140 76q66 26 124 26q45 0 69 -24q23 -23 23 -72q0 -59 -30 -131t-85 -145q-51 -72 -127 -146q-72 -71 -161 -131q-77 -54 -157 -93 q-74 -36 -155 -58q-51 -13 -91 -20q-43 -7 -91 -7zM109 100q12 -1 23 -3q6 -1 18 -1q15 0 23 1t22 1q94 12 189 73q92 59 169 159q12 16 36 52q12 18 34 54q32 58 60 131q24 63 24 107q0 33 -18 51t-48 18q-51 0 -116 -44q-63 -43 -130 -117q-77 -84 -157 -216 q-76 -125 -129 -266z" />
<glyph unicode="c" horiz-adv-x="606" d="M0 137q0 57 18 122q17 60 54 128q39 72 90 136q51 65 121 128q52 46 86 70q55 38 86 55q61 30 122 48q60 18 117 18h19q6 0 22 -2l-141 -262h-35q24 52 33 76q10 26 10 44q0 23 -16 30q-15 7 -60 7q-64 0 -117 -27q-52 -27 -100 -90q-33 -46 -51 -74q-22 -35 -45 -77 q-38 -75 -61 -148q-23 -74 -23 -126q0 -51 27 -81t73 -30q99 0 187 79t170 240q2 2 4 7q0 1 1.5 4.5t2.5 5.5q5 -5 6 -8q2 -6 2 -9q2 -6 3 -10t1 -12q0 -48 -42 -111q-43 -64 -120 -131q-83 -71 -163 -109q-81 -38 -148 -38q-63 0 -98 38t-35 109z" />
<glyph unicode="d" horiz-adv-x="798" d="M-23 94q0 50 22 118q20 62 62 130q25 43 67 97q34 44 83 91q120 120 255 193q130 70 284 98q10 25 19 49q6 16 9 23q0 1 7 19q1 2 6.5 15.5t9.5 24.5q20 52 41.5 109t24.5 66q15 40 16 51v4v2v4v4v3v1q0 18 -12 29q-11 10 -31 10h-12q-3 0 -11 -2l-15 -5q-16 -5 -20 -7 l-12 30q77 28 131 51q61 26 107 48q14 8 22 11q11 4 23 11v-5q0 -3 -2 -5q-1 -17 -11 -57q-9 -37 -28 -84q-1 -3 -22 -59q-4 -11 -32 -83l-26 -61l-25 -64l-24 -61l-9 -25l-10 -24l-10 -23q35 -15 49 -35q16 -22 17 -63q-10 4 -30 7q-24 4 -36 7q-10 0 -15 1t-16 1 q-1 -1 -1 -3l-1 -2v-1l-11 -30q-16 -40 -79 -201l-43 -109q-64 -164 -72 -188q-18 -52 -18 -72q0 -12 8 -20q9 -9 19 -9q14 0 37 10q25 11 55 29l2 2t2 1l6 4l18 -25q-58 -39 -112 -63q-60 -26 -146 -54q-8 -1 -22 -5q-13 -4 -23 -5q4 13 10 33.5t8 29.5q3 10 7.5 27.5 t5.5 22.5q5 7 6 15q0 3 1.5 8t2.5 7q9 26 29 75q23 58 45 112q12 33 22 54t19 50l37 96l39 99l37 96q0 2 3 8l7 14h-8h-11q-214 -16 -399 -176q-185 -159 -209 -348q0 -13 -1 -21t-1 -24q0 -38 17 -61t45 -23q32 0 79 28q45 27 93 75q47 47 89 105q46 63 79 128q7 17 13 27 q7 12 13 26q15 31 30 73q4 13 28 83q6 -11 9 -23q5 -16 5 -18q0 -11 1 -16t1 -17q0 -60 -33 -130q-34 -73 -92 -144q-24 -30 -67 -73q-42 -42 -76 -71q-6 -5 -29 -22l-33 -25q-4 -2 -11.5 -7.5t-11.5 -8.5q-16 -10 -24 -14q-4 -2 -11.5 -8t-11.5 -9q-16 -10 -24 -14 q-33 -20 -55 -28q-24 -9 -47 -9h-9h-8q-36 0 -55 25t-19 69z" />
<glyph unicode="e" horiz-adv-x="593" d="M2 121q0 50 10 97t29 101q40 107 102 196q66 95 152 167q34 27 63 47q37 25 66 41q67 33 115 49q59 19 100 19q36 0 57 -15t21 -43q0 -21 -12 -48t-35 -56q-20 -25 -48 -52q-19 -18 -59 -46q-11 -7 -50 -29q-23 -13 -56 -25q-31 -13 -75 -26q-38 -11 -58 -11 q-24 0 -40 13t-26 39q22 -1 36 -3q9 -1 25 -1h4h3h5h7q93 5 171 56q79 53 87 114v5v5q0 23 -16 35t-45 12q-32 0 -61 -11q-36 -14 -62 -32q-38 -24 -65 -50q-33 -31 -60 -67q-40 -52 -64 -94q-27 -48 -49 -100q-24 -56 -41 -122q-14 -56 -14 -112q0 -50 22 -76t64 -26 q27 0 54 9q30 10 56 25q74 45 139 132q68 92 113 204q9 -16 10 -18q3 -7 3 -14q2 -6 2 -9v-8q0 -33 -22 -79t-60 -91q-22 -24 -34 -36q-15 -15 -38 -33q-89 -82 -170 -123q-80 -41 -139 -41q-53 0 -85 35t-32 96z" />
<glyph unicode="f" horiz-adv-x="389" d="M-506 -481q0 6 1 9t1 11q0 3 1 4t1 4q12 -3 36 -7q18 -3 34 -3q14 -2 18 -2h17q113 0 199 75t157 240q10 21 18 44l17 40q1 3 7 20q4 12 7 19q45 114 69 184q34 99 103 308q48 142 85 253q4 12 7.5 22t6 15.5t2.5 6.5q0 3 1 5q1 3 3 11h-111l12 27h2h2v1v1h4h3h10h18 q38 2 62 21q24 20 47 65l4 8l4 8q51 117 104 185q54 71 148 135q4 3 31 20l32 21q93 55 151 76q62 22 118 22q36 0 51 -7q16 -7 16 -22v-2v-3v-3q0 -7 -4 -15q-2 -5 -16 -44l-47 -139h-33q11 30 15 46q6 25 7 33v8v7q0 27 -22 39q-23 12 -72 12h-7h-7q-81 -5 -151 -50 q-74 -48 -119 -122q-8 -12 -24 -38q-5 -9 -21 -40q-28 -63 -40 -93q-33 -83 -49 -126h162l-10 -31h-162l-272 -768q-27 0 -42 -5t-26 -19q-2 -7 -6 -14q-3 -4 -8 -17q-6 -17 -14 -37l-17 -37q-5 -9 -10 -22q-6 -16 -10 -23q-18 -43 -34 -72q-4 -8 -10.5 -20t-11 -20 t-8.5 -15q-40 -73 -95 -131q-54 -57 -112 -92q-32 -20 -64 -31q-30 -10 -63 -10q-42 0 -68 20q-28 22 -28 54z" />
<glyph unicode="g" horiz-adv-x="770" d="M-238 -463q0 4 2 10q0 2 2 6.5t3 7.5q1 7 6 15q5 -5 8 -7q7 -5 8 -5q39 -32 83 -46t95 -14q107 0 200 81q91 80 169 241q20 39 35 79q2 5 16 40.5t21 54.5q10 24 22 63q7 22 23 66q6 19 17 54.5t13 42.5q13 43 25 91q-7 -8 -20.5 -22.5t-19.5 -21.5q-26 -28 -40 -40 q-108 -108 -208 -173q-98 -64 -154 -64q-42 0 -64 27q-22 26 -22 77q0 60 23 123q24 67 67 133q64 101 150 184q89 86 200 154q74 46 150 75q75 28 161 44q42 8 74 11q37 3 74 3q35 0 49 -7t14 -29v-4v-3q0 -9 -4 -20q-10 -27 -16 -41l-21 3q-7 1 -18 1q-6 1 -18.5 2 t-18.5 1q-12 1 -45 1q-183 0 -310 -47q-125 -46 -229 -156q-37 -40 -64 -78q-33 -46 -53 -85q-27 -50 -42 -101q-15 -50 -15 -88q0 -46 18 -71t44 -25q34 0 87 36q52 36 107 95q25 27 67 79q27 35 62 91q38 60 59 106q18 38 37 101q8 22 11 34q5 19 6 33q23 -22 32 -42 q9 -21 9 -48q0 -44 -23 -98q-22 -50 -76 -125l5 2h3h3l5 1q4 1 23 3q8 2 10 2h5q2 2 5 2h9q19 4 25 4h6q0 2 1 2h3h4l4 2q-25 -83 -66 -197q-35 -95 -69 -177q-23 -52 -56 -121q-24 -49 -55 -94q-58 -91 -141 -164q-84 -73 -174 -117q-45 -24 -102 -41q-46 -14 -95 -14 q-53 0 -87 24t-34 66v12z" />
<glyph unicode="h" horiz-adv-x="770" d="M-25 12q21 49 41 99q11 27 31 77l3 6q1 2 1 5q21 47 42 102q7 19 26.5 66.5t30.5 76.5q14 35 31.5 80t21.5 56q4 9 12 30.5t12 30.5q2 5 25 62q46 115 55 137q23 62 36 94q10 23 19 49q1 3 4 9.5t5 11.5t3 9q4 15 15 42q24 62 34 97q7 27 9 48v5v5q0 18 -7 26q-7 9 -24 9 q-11 0 -24 -4q-22 -7 -49 -16l-11 30q14 6 21 8q11 3 20 7q22 8 32 11t32 13q44 20 68 32q52 26 85 44l3 -15v-12q0 -61 -30 -158q-29 -95 -108 -292q-42 -105 -61 -151q-39 -96 -51 -124q-22 -52 -46 -110t-36 -86t-16 -39t-8.5 -20.5t-6.5 -14.5t-2 -6q-1 0 -2 -2l-1 -2 q-1 -1 -3 -8q87 108 158 190q57 66 104 113q4 3 11 9t8 7q6 5 18 17l24 20l25 21q81 65 128 91q49 27 89 27q23 0 35 -12t12 -37q0 -12 -5 -35q-5 -21 -19 -53q-1 -1 -3 -5q-1 -2 -1 -7q-3 -3 -4 -5q-2 -4 -3 -7l-20 -48l-23 -45l-20 -45q-2 -5 -9.5 -21t-11.5 -26 q-8 -19 -24 -59q-5 -12 -14.5 -33.5t-13.5 -30.5q-8 -17 -21 -49q-28 -65 -47 -120q-15 -44 -15 -62q0 -8 7 -15q8 -8 16 -8q14 0 37 10q29 13 61 29l19 -24q-19 -12 -26 -15q-18 -8 -26 -12q-14 -8 -22 -11q-12 -5 -25 -11q-29 -13 -76 -31q-36 -14 -106 -37q6 83 55 215 q50 136 162 377q17 34 24 57q7 21 7 35q0 16 -6 24q-6 7 -17 7q-24 0 -79 -41q-46 -34 -113 -105q-13 -13 -35 -37t-33 -38q-1 -4 -5 -8l-5 -5q-46 -58 -69 -89q-31 -41 -64 -93q-38 -56 -82 -131q-35 -59 -60 -117q-17 -1 -45 -7q-17 -4 -39 -11l-6 -3t-7.5 -3.5t-7.5 -2.5 t-8 -3t-8.5 -5t-7.5 -4z" />
<glyph unicode="i" horiz-adv-x="364" d="M20 -2q0 7 2 21l3 21q0 7 1.5 21t2.5 21q11 63 40 136q28 71 93 214q65 145 86 197q22 57 24 80q0 13 -7 21q-7 9 -19 9q-7 0 -36 -8q-30 -8 -60 -22l-9 32q13 5 35 13.5t31 11.5q30 12 49 18q1 1 5 3q2 1 5 1q36 15 65 27q35 15 87 39v-10q0 -32 -14 -83 q-18 -66 -39 -122q-18 -45 -30 -73q-21 -50 -42 -95l-74 -166q-30 -68 -46 -111q-13 -37 -15 -55q0 -13 10 -20q11 -8 25 -8q8 0 26 6q7 2 21.5 7.5t17.5 6.5l12 -29l-2 -1q-2 -1 -2 -2q-1 -1 -4 -1q-7 -4 -22.5 -11.5t-20.5 -9.5q-8 -4 -74 -32q-29 -13 -52 -22 q-4 -1 -17.5 -7t-20.5 -8q-1 0 -3.5 -1t-4.5 -2t-4.5 -2t-3.5 -1q-6 -2 -8 -2q-3 0 -11 -2zM408 1042q0 30 20 50t47 20q21 0 34 -13t13 -32q0 -28 -20 -48q-22 -22 -47 -22q-17 0 -33 14q-14 13 -14 31z" />
<glyph unicode="j" horiz-adv-x="333" d="M-801 -457q0 2 2 8q0 7 1 10t3 11q18 -12 31 -18l29 -17q28 -11 53 -15q30 -5 57 -5q35 0 75 8q41 8 77 22q63 23 127 65q63 41 113 93q65 71 130 166q61 89 123 215q42 79 77 159q47 107 77 181q44 105 66 174q22 67 22 96q0 23 -11 33t-36 10q-4 0 -20 -2 q-13 -2 -29 -6l-4 31q49 13 110 32q14 4 39.5 11.5t36.5 11.5q8 4 24 10q4 1 11.5 4t11.5 5l25 12q16 8 26 12q-98 -320 -214 -559q-121 -248 -261 -432q-69 -89 -145 -161q-78 -74 -164 -132q-89 -61 -179 -100q-86 -37 -155 -37q-54 0 -92 27q-37 27 -37 69v8zM436 1042 q0 29 21 50q20 20 47 20q23 0 35 -12t12 -33q0 -27 -21 -48q-22 -22 -47 -22q-16 0 -32 14q-15 13 -15 31z" />
<glyph unicode="k" horiz-adv-x="776" d="M-33 0q2 5 5 10.5t6 12t5 9.5q7 14 13 29q0 2 2 6t2 7q2 6 17 41.5t24 58.5q7 17 31.5 77.5t42.5 104.5l37 97l36 94q84 212 122 306q5 12 11 26t8.5 20t2.5 8q0 3 1 5q0 1 1.5 5.5t3.5 8.5q54 137 71 192q19 60 19 88q0 20 -9 31q-9 10 -28 10h-7h-7l-16 -5 q-2 -1 -12 -4.5t-19 -6.5q-3 0 -6 -1q-8 -3 -11 -5l-10 30q2 0 45 16q19 7 37 15q11 2 18 6l5 2.5t7 3t7 2.5l66 33q18 9 92 49q0 -6 -1 -9t-1 -9q-2 -15 -8 -43.5t-7 -35.5q-6 -34 -20 -87q0 -2 -5 -21q-2 -8 -8 -22q-2 -13 -6 -26q-2 -5 -4.5 -15t-3.5 -12 q-28 -83 -50 -140q-45 -114 -89 -217q-10 -26 -23 -53q-10 -22 -18 -45q0 -3 -1 -4l-1 -2l-18 -45q-3 -7 -10 -24.5t-11 -28.5q64 79 139 138q77 61 154 99q54 25 103 38q51 13 102 13q41 0 66 -18q26 -18 26 -49v-5v-5q-8 -74 -108 -141t-255 -101q-54 -12 -79 -32 q-23 -18 -38 -66q54 -8 87 -44q32 -35 32 -83v-7v-6q0 -9 -5 -31t-21 -77q0 -1 -1 -4t-2 -4q-1 -3 -1 -8q0 -9 -1 -13t-1 -10q0 -23 15 -39t36 -16h7q3 0 5 2q41 8 80 63t63 146q6 -7 11 -16q5 -8 6 -13l3 -15q1 -5 1 -16q0 -31 -26 -71q-25 -39 -75 -84q-34 -28 -63 -45 q-30 -17 -57 -23q-12 0 -17 -1t-16 -1q-41 0 -67 27q-25 26 -25 71v8v9q1 9 7 34q4 17 17 52q19 50 23 65q6 22 6 41v1v3q0 53 -41 83q-40 30 -113 30h-11q-3 0 -17 -2q-1 -2 -2.5 -5.5t-1.5 -4.5l-4 -9q-2 -5 -7.5 -18t-9.5 -22q-11 -25 -39 -99l-25 -65q-13 -28 -20 -52 q0 -3 -1 -5q-2 -4 -3 -5q-8 -28 -13 -42q-13 -37 -18 -50q-5 0 -8 -1l-6 -3q-5 0 -8 -1t-8 -1q-5 -2 -18 -6t-20 -7q-30 -11 -65 -24zM330 522q6 -2 8 -2h6q25 0 65 5q5 1 72 14q40 8 73 19q34 11 64 24q68 29 98 61q32 34 32 70q0 26 -16 42q-15 15 -44 15q-38 0 -82 -20 t-96 -56q-51 -34 -98 -80q-49 -47 -82 -92z" />
<glyph unicode="l" horiz-adv-x="333" d="M25 86q0 49 19 115q18 61 73 205q1 2 2 5t2 4q1 2 2 5t2 4v1v1q8 18 22 52q4 11 17.5 43.5t21.5 51.5q11 30 23 56q11 24 18 43q1 4 11 27t16 37q5 12 18.5 45.5t22.5 56.5l33 75l30 76q51 126 67 168q19 51 19 72q0 11 -8 19q-7 7 -22 7h-3h-3q-3 0 -13 -2 q-2 0 -6.5 -1.5l-12 -4l-13.5 -4.5q-4 0 -5 -1t-4 -1t-4 -1t-4 -1l-10 29q23 9 53 20.5t50.5 19.5t34.5 13q45 17 83 35l8 4l8 4q6 2 13 5q8 4 12 7q0 -72 -36 -177t-126 -312q-61 -138 -137 -326q-59 -145 -102 -260q-21 -53 -34 -97q-11 -37 -11 -61q0 -20 10 -31 q10 -12 24 -12h2h3h2q15 1 37 17q40 29 71 53l18 -27q-9 -8 -32 -27q-22 -18 -33 -26q-50 -38 -98 -63t-72 -25q-26 0 -43 23q-16 22 -16 61z" />
<glyph unicode="m" horiz-adv-x="1112" d="M-10 2q0 2 1 3t1 3q3 3 4 5q2 4 2 7l31 72q38 92 53 129q14 34 30.5 73.5t26.5 64t16 38.5q5 12 11.5 30t12 31t9.5 23v1v1q1 2 7 16t9 22q3 7 8.5 23t8.5 25q18 46 23 68q7 27 8 41v3v3q0 14 -8 22q-7 7 -23 7q-11 0 -23 -4q-14 -5 -36 -15l-13 33l21 8l20 8 q34 16 84 44q13 8 121 73q1 -9 3 -16q1 -4 1 -13v-5v-5v-3v-3q0 -50 -21 -116q-20 -63 -83 -218q133 171 245 264q113 93 185 93q21 0 34 -13q11 -11 11 -34q0 -32 -25 -116q-25 -83 -75 -206q41 54 81 98q50 56 85 88q87 84 164 132q82 51 126 51q18 0 30 -12 q11 -11 11 -31v-3v-1q0 -19 -13 -49q-25 -59 -62 -138q-22 -49 -54 -117t-41 -89q-29 -65 -45 -109l-4 -8q-2 -6 -2 -9q-2 -3 -7 -16q-4 -9 -5 -16q-15 -35 -20 -57q-5 -23 -5 -33q0 -13 7 -20t20 -7h1h3q7 0 22 5q10 3 37 22l19 -27l-36 -24l-36 -21q-33 -20 -53 -29 q-32 -14 -59 -24l-33 -13q-11 -4 -35 -12q1 24 5 59q4 36 7 54q3 14 19 71q11 39 28 86q1 3 16 42q10 26 15 38q2 4 5 12.5t4 12.5l9 24q12 29 52 118q37 82 71 151q6 10 7 14q2 8 2 10q0 9 -7 18q-6 7 -14 7q-17 0 -57 -30q-45 -33 -86 -73q-8 -8 -26 -24q-12 -10 -25 -27 q-83 -92 -154 -220q-76 -137 -121 -271l-3 -9l-2 -4t-1 -4q-4 -1 -10.5 -2.5t-7.5 -1.5q-9 -2 -19 -6q-28 -7 -47 -17q-7 -4 -26 -13t-31 -15l6 15q0 1 1.5 5t2.5 5l5 15q4 11 15 38q42 101 69 170q26 66 42 112q0 1 2 5t2 5t1.5 5t2.5 6q14 36 20 56q7 22 21 67 q30 86 43 132q10 34 10 54q0 14 -7 21q-8 8 -19 8q-25 0 -75 -44t-103 -112q-38 -44 -55 -69q-34 -50 -50 -76q-10 -16 -30 -52q-5 -9 -15.5 -29t-15.5 -30l-24 -45l-23 -47q-14 -29 -40 -85q-17 -37 -34 -79q-2 -2 -4 -2h-4v-2q-6 0 -14 -4q-7 -4 -46 -16q-2 -1 -6 -2.5 t-5 -1.5t-5 -2l-6 -3q-2 0 -3 -1t-3 -1q-1 -1 -17 -7q-1 0 -7.5 -2.5t-10.5 -4.5z" />
<glyph unicode="n" horiz-adv-x="796" d="M-14 -2q4 4 7 11q4 10 5 14l9 21q3 8 9 22q32 69 70 158q24 56 94 227q51 126 66 170q16 48 16 75q0 18 -7 26q-7 9 -22 9h-3h-3q-9 0 -21 -4q-4 -1 -20 -5.5t-28 -8.5l-6 32q2 0 19 6q12 4 17 5q13 4 36.5 11.5t33.5 10.5q37 12 66 25q20 7 46 18l48 21q2 -8 2 -11v-8 q0 -43 -39 -151t-107 -256q180 202 319 312q137 108 218 108q22 0 36 -14q13 -13 13 -36q0 -34 -23 -89q-22 -52 -108 -218q-13 -25 -29 -55q-5 -10 -30 -64q-1 -2 -2.5 -4t-1.5 -3l-2 -3l-2 -4q-28 -58 -34 -70q-18 -34 -30 -63q-13 -24 -20 -46q-7 -23 -7 -30q0 -12 8 -20 t19 -8q7 0 24 5q4 1 31 11q3 1 9 4t8 5q9 5 16 11l16 -26q-64 -46 -131 -74q-67 -29 -153 -45q0 8 1 13q1 3 2 8.5t1 7.5q7 41 24 92q6 17 48 125q20 51 53 120q20 42 65 132l23 41l20 43l23 41q19 39 25 54q8 19 8 28q0 11 -6 19q-6 7 -17 7q-23 0 -84 -44 q-60 -44 -127 -109q-8 -8 -17 -17.5t-19.5 -21t-16.5 -17.5q-27 -28 -51 -57q-78 -90 -140 -195q-66 -112 -116 -227q-5 0 -8 -1l-9 -3q-20 -5 -49 -15q-17 -6 -65 -26z" />
<glyph unicode="o" horiz-adv-x="677" d="M4 145q0 45 10 89q10 45 29 92q43 101 126 199t193 171q26 18 66 39q35 18 70 35q57 26 114 41q52 14 99 14q21 0 32 -11q13 -13 13 -28v-3v-3q0 -6 -3 -15l-10 -28q-16 3 -48 5q-14 1 -42 1q-125 0 -218 -43q-97 -45 -163 -131q-31 -40 -57 -88q-24 -44 -47 -100 q-23 -53 -35 -105q-12 -51 -12 -92q0 -49 29 -81q28 -31 71 -31q35 0 79 24q41 23 89 72q21 21 37 41q28 35 37 47q3 5 10 15t10 15q14 20 19 31q36 58 56 119q20 62 20 109q0 30 -17 52q-17 21 -41 21q-40 0 -78 -39q-38 -40 -73 -120l-4 16q0 1 -1 3.5t-1.5 4.5t-0.5 4v3 v4q0 32 22 68q20 33 67 69q38 31 73 47q31 14 62 14q47 0 79 -38q31 -37 31 -91q0 -64 -30 -133q-29 -66 -91 -141q-24 -30 -38 -44q-28 -28 -43 -42q-104 -96 -197 -148q-95 -53 -160 -53q-57 0 -95 41t-38 102z" />
<glyph unicode="p" horiz-adv-x="645" d="M-215 -543q31 73 84 207q60 153 115 299q49 137 108 302q51 142 66 184l9 3q3 1 9 1q24 6 37 13q13 6 29 26q20 26 40 77q8 20 62 156q-10 2 -15 2h-12q-19 0 -30 -1t-35 -1q-8 -1 -22.5 -2.5t-21.5 -1.5q-8 -1 -21 -2.5t-17 -1.5l-53 -139l-29 12l86 227l6 2h6h2 q7 0 10 1t21 1l27 2q10 0 13 1t7 1h4h4h1h1h10h19q46 2 47 2h19h1q1 0 1 2h4h6l61 177h33l-61 -177q126 0 192 -51t66 -151q0 -43 -7 -84q-7 -42 -24 -86q-24 -75 -62 -139t-92 -125q-9 -9 -27 -29q-15 -16 -28 -27q-54 -52 -106 -79q-53 -27 -97 -27q-27 0 -44 14t-17 37 v11q0 3 2 9l4 13q2 7 6 14q12 -10 32 -21q16 -9 26 -10l15 -3q5 -1 15 -1q54 0 103 34q50 35 94 99q21 31 42 71q17 32 34 77q17 43 28 93q11 49 11 83q0 83 -51 128t-154 46l-2 -8q-1 -2 -1 -3l-1 -2v-3q-4 -4 -11 -24q-1 -3 -53 -138q-65 -171 -82 -214l-37 -95 q-220 -563 -249 -640q-7 -17 -12.5 -32.5t-9.5 -26t-7 -18t-4 -10.5l-2 -3v-2q0 -3 -4 -10q-3 -1 -10 -3.5t-10 -4.5q-2 -1 -8 -3.5t-9 -4.5q-2 0 -8 -2t-9 -2q-3 -1 -26 -8q-34 -10 -37 -11z" />
<glyph unicode="q" horiz-adv-x="747" d="M-20 113q0 56 25 121q26 67 73 137q47 71 109 134q64 65 139 122q79 58 149 94q83 43 158 70q61 20 138 35q72 14 134 14q24 0 36 -6q11 -6 11 -21q0 -9 -5 -24q-4 -11 -21 -41q-16 1 -42 2.5t-27 1.5q-36 2 -50 2h-4h-4q-165 0 -298 -60q-136 -61 -241 -178 q-30 -35 -54 -70q-29 -43 -44 -75q-24 -49 -39 -98q-14 -45 -14 -87q0 -33 18 -54t47 -21q46 0 107 46q62 47 127 128q10 14 21 28q14 17 22 29q9 14 17 25q9 12 15 24q44 67 69 128q30 72 52 155l11 -11q4 -4 10 -12q12 -15 16 -30t4 -37q0 -44 -24 -99q-21 -49 -72 -116h7 h5q6 2 7 2h5q1 0 8 1.5t11 2.5l31 6h7q1 0 7 2l-4 -10l-4 -8l-3 -7l-1 -2l-52 -137l-53 -135q-7 -17 -62 -160q-38 -99 -48 -125q0 -3 -1 -5q-2 -4 -3 -5q-13 -33 -50 -125q-8 -19 -30 -73.5t-37 -90.5q-2 0 -4 -1l-4 -2q-3 -1 -9 -1q-1 0 -4 -1t-4 -2q-2 -1 -4.5 -2 t-3.5 -1q-16 -5 -32 -14q-46 -27 -50 -29q-2 -3 -7 -4q-1 -1 -4 -2t-5 -2q11 25 27 63.5t22 52.5q3 8 35 80q0 4 1 5t1 4q0 1 14.5 36t22.5 55q6 13 53 136q39 96 105 266q13 35 29.5 78t18.5 49q5 8 8 21q2 9 9 26q-136 -141 -253 -222q-119 -83 -183 -83q-40 0 -64 30 t-24 77z" />
<glyph unicode="r" horiz-adv-x="514" d="M0 0l2 8l3 9l3 6q0 3 5 16q0 1 9 23t17 44q15 39 33 87t20 53l25 65v2v2q2 6 6.5 18t6.5 16q3 7 17 52q21 61 36 111q14 47 30 88q2 8 7 32q3 15 3 27t-8 22q-7 9 -18 9q-8 0 -26 -6q-21 -7 -42 -20l-14 30q23 10 42 21q4 2 17.5 9t20.5 11q32 17 53 30q27 17 49 32 q5 4 34 23q24 16 36 26q1 -4 3 -10q1 -3 1 -9v-7v-7q0 -39 -17 -101q-20 -72 -53 -157q142 156 221 219q82 66 133 66h11q2 0 8 -2q6 0 12 -3l14 -8l-34 -102q-5 1 -13 2.5t-9 1.5q-12 2 -19 2q-8 2 -13 2h-14q-63 0 -133 -53q-67 -51 -141 -162q-2 -3 -5 -8t-5 -7t-5 -8 l-4 -8q-4 -5 -27 -47q-16 -28 -26 -51q-28 -56 -57 -140q-29 -83 -72 -216q-21 -5 -39 -9q-6 -2 -18.5 -5.5t-18.5 -4.5l-24 -8q-12 -4 -23 -6z" />
<glyph unicode="s" horiz-adv-x="460" d="M-92 82q0 5 2 21q0 4 2 12t2 12q1 4 3.5 12t4.5 12q4 10 10 21q33 -56 69 -81q35 -25 83 -25q73 0 129 50q55 49 55 115q0 13 -3 26q-4 18 -7 28q0 2 -1.5 6t-2.5 7q-1 7 -6 13l-19 43l-20 43l-21 43q-4 10 -10 30q-4 13 -4 32q-2 8 -2 11v11q0 39 23 87q24 49 65 96 q5 4 15 14l16 16l16 16q3 3 9.5 7.5t7.5 5.5q44 37 96 52q54 16 123 16q15 0 21 -1q12 -2 20 -2t12 -1t14 -3q-3 -5 -6 -11q-1 -2 -4 -5q-1 -3 -5 -9t-11 -20q-19 -34 -38 -64q-5 -8 -13.5 -21t-10.5 -17v-1q0 -1 -2 -1q-1 -2 -6 -10.5t-8 -13.5t-11 -16.5t-10 -14.5l-26 18 q3 3 5 9t3 7q10 20 16 38q4 12 4 22q0 20 -15 29q-17 10 -50 10q-62 0 -108 -46t-46 -106q0 -14 6 -34q2 -7 7.5 -21t7.5 -21l16 -34l14 -33l17 -35q9 -22 14 -39q7 -24 8 -41q2 -14 2 -18v-17q0 -41 -12 -78q-11 -35 -41 -71q-15 -19 -38 -42q-21 -21 -50 -44 q-58 -46 -104 -65q-45 -19 -92 -19q-49 0 -82 24t-33 66z" />
<glyph unicode="t" horiz-adv-x="405" d="M0 70q0 18 7 42q5 16 20 58q6 16 21 51q27 61 36 82l70 160l34 78q68 154 69 156q29 70 32 79l4 8l2 7l4 8h-131l14 30q61 0 97 9q30 8 55 49q12 17 27 50t30 73q8 -2 12 -2h9q15 0 23 1l24 3q11 0 23 3q16 4 24 5q0 -3 -1 -4l-1 -2q0 -3 -1 -4t-1 -4q-9 -18 -14 -30 l-21 -52l-10 -23l-16 -38l-5 -15q-2 -2 -3 -6q-3 -10 -5 -13h141l-14 -30h-141q-4 -8 -16.5 -36.5t-21.5 -48.5q-11 -23 -73 -165q-14 -33 -42 -94q-25 -55 -54 -123q-48 -106 -60 -138q-14 -38 -14 -63q0 -21 12 -34t33 -13q18 0 46 11q35 14 63 28q9 7 18 11q11 5 19 11 l14 -24q-24 -18 -54 -36q-13 -8 -59 -32q-33 -16 -82 -31q-39 -12 -67 -12q-34 0 -56 17q-20 16 -20 43z" />
<glyph unicode="u" horiz-adv-x="747" d="M20 84q0 48 27 120q29 77 96 220q67 139 96 204q18 39 23 66v5v6q0 17 -9 24q-10 8 -26 8q-4 0 -20 -2q-8 -1 -35 -10l-8 31q14 4 48.5 14t50.5 15q49 15 81 28l36 15q31 13 34 14q0 -12 -2 -32q-1 -6 -2.5 -15.5t-1.5 -12.5q-2 -5 -5 -14.5t-5 -14.5q-3 -10 -11 -32 t-28 -68t-35 -75l-29 -58l-29 -59l-28 -60q-5 -12 -24 -52q-9 -19 -40 -91q-22 -46 -29 -68q-8 -26 -8 -40q0 -21 10 -32t27 -11q51 0 119 58q74 63 156 169q33 45 56 77q30 42 48 70q19 29 43 72q23 40 39 80q18 37 33 70q9 21 32 83q3 0 9 2t8 2t8 1t8 2q33 7 47 11 q39 12 56 19q-6 -8 -8 -12q-4 -8 -7 -12q-1 -2 -2.5 -6t-1.5 -5t-1.5 -4.5t-2.5 -5.5q-17 -33 -30 -62q-5 -12 -18 -40t-20 -45q-69 -157 -99 -230q-5 -11 -22 -52.5t-24 -59.5v-3v-1q-1 -3 -3 -7q-1 -2 -3 -8q-25 -70 -25 -71q-6 -21 -6 -35q0 -16 9 -23q10 -8 26 -8 q13 0 33 5q11 3 45 16l14 -27q-30 -16 -102 -47q-55 -23 -166 -66q5 33 12 70q2 10 4.5 21t5.5 24.5t5 20.5q26 86 31 100q16 46 42 112q-128 -160 -244 -254q-117 -94 -192 -94q-29 0 -47 20q-19 21 -19 50z" />
<glyph unicode="v" horiz-adv-x="657" d="M39 -4q27 58 47 108q18 46 43 117q45 130 75 247q29 115 29 179q0 53 -10 74q-10 22 -33 22q-14 0 -32 -9q-21 -11 -54 -32l-16 31q92 57 125 73q39 19 68 21h3h3q35 0 51 -30q16 -29 16 -99q0 -61 -19 -146q-19 -84 -59 -200q-1 -4 -2.5 -8.5t-3.5 -10t-3 -8.5 q-2 -5 -6 -16t-5 -14l-18 -45l-19 -47l-16 -45l-4 -11l-4 -8l-2 -8q218 105 349 249q130 143 163 322h-84q-73 0 -104 -9t-54 -44q-10 -14 -14 -22l-15 -29h-37l5 10l6 10q3 5 8 14.5t7 14.5q3 5 8 14.5t7 14.5q16 33 31 68q12 28 25 61h327q-60 -186 -173 -344 q-110 -155 -265 -264q-5 -3 -23 -16q-4 -3 -10.5 -8t-9.5 -7q-4 -1 -10 -5q-3 -2 -8 -7q-7 -5 -25.5 -15.5t-28.5 -16.5q-29 -18 -71 -40l-33 -19l-35 -18l-61 -36q-11 -7 -19 -9q-3 0 -4 -1z" />
<glyph unicode="w" horiz-adv-x="987" d="M70 -2q30 74 51 126q18 45 35 101q2 6 4.5 16.5t3.5 14.5l8 33q1 5 4 14.5t4 14.5q2 5 4.5 16t3.5 16q16 69 32 162q11 63 11 111t-11 70q-12 24 -34 24q-10 0 -24 -7q-12 -6 -37 -26l-16 29q45 29 74 50q6 4 23.5 17t26.5 19q2 2 6 4q2 1 5 4l12 9l12 9q44 -21 64 -57 t20 -94q0 -49 -12 -121q-11 -65 -35 -147q0 -6 -1 -9q0 -1 -1 -3.5t-2 -4.5q0 -2 -1 -3t-1 -3q-5 -24 -18 -62q-3 -7 -17.5 -49t-25.5 -77q7 10 17 24q2 3 6.5 9.5t6.5 9.5q1 0 3 2q1 1 1 4q11 15 38 61q21 36 87 158q77 140 154 229q81 94 166 144l-146 -682q1 1 13 10l8 6 q6 6 41 34q20 16 88 70q94 75 162 146q63 66 106 139q19 30 34 70q13 35 21 69h-139h-12h-12q-37 0 -52 -4q-17 -5 -28 -20q-1 -2 -4 -7l-6 -10t-5 -9l-20 -40l-2 -6q-1 -4 -6 -10h-35l94 213h340q-40 -116 -100 -216q-62 -103 -150 -194q-15 -17 -62 -62q-37 -36 -81 -75 q-3 -1 -8 -6t-8 -6q-3 -3 -9 -7l-8 -8l-39 -32l-39 -31l-39 -33q-8 -6 -10 -8t-10 -8q-3 -3 -16.5 -15l-22.5 -20q-29 -27 -88 -78q0 -2 -5 -5q-10 -7 -13 -9q11 49 21 98q12 60 17 90q0 5 1 8t1 9q3 13 8.5 37.5t7.5 36.5q7 35 15 83q17 106 30 176q14 74 15 88q2 2 2 7 q0 2 2 8q4 15 4 17q1 4 3 11.5t2 10.5q-6 -8 -10 -12q-3 -3 -9 -11q0 -1 -5 -8t-5 -8q-14 -20 -20 -31q-10 -19 -21 -43q-45 -89 -101 -182q-44 -73 -102 -150q-56 -76 -116 -135q-59 -57 -119 -94z" />
<glyph unicode="x" horiz-adv-x="903" d="M-94 86q0 13 5 30q5 16 21 38q16 -45 52 -68q35 -23 86 -23q29 0 63 14q31 13 66 38q57 43 112 112q56 70 95 158h-195l16 31h195q0 2 1 3l1 1v1v1q0 1 5 14q4 10 26 64q9 22 11 30q3 11 9 35q10 38 13 56q6 36 6 45q0 33 -22 58q-21 24 -52 24q-98 0 -180 -102 q-84 -103 -91 -230q-3 3 -4 5q-2 4 -2 5q-9 13 -14 30q-4 13 -4 36q0 58 39 118q40 61 115 123q65 51 116 72q57 24 111 24q51 0 78 -30q26 -29 26 -90v-12v-11q-1 -16 -6 -34q-2 -8 -10 -44q13 12 41.5 38t39.5 36q34 31 52 45q36 31 76 53t71 29l29 4q20 2 29 2h7h7 q3 0 12 -1.5l15 -2.5q14 -1 31 -6q-5 -12 -16 -34t-15 -32q-6 -13 -25 -49q0 -3 -1 -4t-1 -4q-8 -16 -24 -52q-18 -40 -31 -73l-31 6q18 51 18 52q6 26 7 30v6v4q0 18 -16 29q-14 10 -44 10q-90 0 -165 -68q-76 -68 -142 -210h201l-19 -31h-196q-15 -26 -22 -45 q-11 -29 -17 -51l-7 -42q-3 -19 -3 -38q0 -58 34 -92q35 -35 93 -35q98 0 177 90q78 88 99 227q5 -5 7 -8q5 -7 5 -8q8 -14 9 -22q2 -16 2 -25q0 -55 -41 -119q-40 -62 -121 -131q-59 -48 -110 -70t-105 -22q-68 0 -109 41t-41 110v9v8q0 2 1 6t1.5 7.5t0.5 7.5q2 16 5 26 q-1 -1 -4 -3q-2 -2 -2 -3q-2 -1 -14 -13q-10 -10 -57 -51q-77 -71 -137 -106q-56 -32 -109 -37h-9h-10q-45 0 -80 26q-34 25 -34 64z" />
<glyph unicode="y" horiz-adv-x="782" d="M-213 -328q0 28 9 59t26 62q19 33 37 56q28 36 47 53q35 32 78 46q46 15 143 27q10 1 28 3q4 0 13 1.5t14 2.5q60 7 106 17q42 9 81 30q32 19 37 22q7 5 38 29q78 59 136 134q63 81 102 161q30 60 44 112q15 55 15 105q0 41 -14 61q-15 21 -41 21q-55 0 -139 -75 q-85 -76 -174 -196q-66 -89 -125 -189q-65 -109 -113 -214h-35q45 160 54 198q6 27 17 73t15 65q1 12 5 36q2 12 8 36q2 8 3 13t1 13q10 55 15 106q5 55 5 76q0 35 -9 50q-8 14 -32 14h-4h-4q-2 0 -18 -5l-7.5 -2.5t-12.5 -4t-13 -4.5l-8 30q1 0 3 1l2 1q1 0 3 2l10 5l27 14 q2 0 3 1t3 1q0 2 1 2h3l37 18l16 9q80 45 86 48l19 9q2 2 3 2t3 2q0 -3 1 -4t3 -4q6 -22 9 -41q3 -21 3 -51q0 -69 -14 -149q-15 -84 -45 -202q92 118 165 199t136 131q4 2 11.5 8t11.5 9q5 3 13 9t9 7q57 42 98 60q45 20 70 20q27 0 43 -27q16 -26 16 -69q0 -86 -40 -185 q-43 -107 -111 -203q-45 -60 -84 -106q-45 -53 -99 -105q-37 -37 -87 -78q-37 -30 -83 -61q-68 -45 -138 -69t-156 -39q-6 -1 -16 -2.5t-15 -1.5q-5 -1 -14.5 -3t-12.5 -2q-36 -8 -56 -15q-28 -10 -40 -17l-8 -4l-8 -4q-28 -18 -49 -48q-18 -26 -23 -59v-7v-7q0 -53 54 -87 q53 -34 140 -34q41 0 76 6q39 7 68 20q2 1 25 11q12 6 26 14q-10 -60 -61 -91q-52 -32 -134 -32q-100 0 -165 49q-66 49 -66 127z" />
<glyph unicode="z" horiz-adv-x="720" d="M-72 109q11 16 33 52q11 18 33 56q2 3 7 16q5 12 7 15q2 4 25 44q8 14 22 42q7 -2 30 -7q14 -3 26 -3q10 -2 16 -2h18q154 0 282 81q127 80 257 259q8 8 15 18q13 18 14 20q-14 2 -19 2h-16q-30 3 -31 3h-41q-206 0 -271 -15t-102 -86q-9 -16 -11 -21q-2 -4 -5.5 -12.5 t-5.5 -13.5l-8 -16h-33l17.5 37.5t13.5 30.5q20 45 24 53q0 3 1 4t1 4q10 20 24 55l32 80l544 4q-108 -162 -182 -256q-78 -99 -149 -158q-68 -56 -143 -86q-72 -29 -171 -45q34 -21 57 -42q30 -27 60 -58q29 -29 52 -47q18 -14 40 -27q17 -7 31 -8q22 -2 35 -2q81 0 130 76 q50 77 50 196v9v10q-1 13 -5 46q-2 19 -11 52q35 -21 51 -53t16 -80q0 -34 -12 -74q-11 -38 -35 -84q-4 -6 -10.5 -18t-9.5 -18q-4 -7 -23 -33q-40 -60 -94 -89q-52 -28 -117 -28q-37 0 -65 7q-34 8 -62 24q-32 22 -49 38q-16 15 -53 54q-30 34 -55 55q-20 17 -35 18 q-6 2 -8 2h-5q-4 0 -12 -2l-12 -4q-13 -6 -29 -26q-13 -15 -33 -49h-41z" />
<glyph unicode="{" horiz-adv-x="671" d="M180 57q0 25 8 63q7 34 23 77q62 173 92 275q27 93 27 146q0 49 -19 68t-71 19h-10q-2 0 -6.5 -1.5t-6.5 -1.5l27 39h24q9 0 25 2q8 1 24 9q26 8 50 26q25 18 43 43q3 4 11 17q5 9 11 16q4 7 11.5 20t10.5 19q4 7 23 45q4 10 11 24q1 2 10 17q2 2 2 4t2 4l21 56 q13 36 48 126q38 98 83 153q47 57 128 103l15 9q2 2 7 4.5l7 3.5q52 30 93 44q43 15 67 15q16 0 23 -11t7 -34v-14q-8 2 -11 2t-9 2q-13 0 -18 1t-21 1q-50 0 -92 -25q-40 -24 -80 -82q-6 -8 -9 -13l-9 -15l-9 -15t-8 -15q-2 -3 -5 -9.5t-6 -12t-5 -10.5q-2 -4 -4 -8.5 t-4.5 -10t-3.5 -8.5q-8 -18 -11 -26l-16 -45l-16 -43l-17 -43q-45 -121 -133 -215t-197 -135q48 -29 69 -79q22 -52 22 -128q0 -26 -8 -69q-8 -45 -19 -81l-3 -9q-1 -2 -1 -5q-1 -2 -2.5 -7t-2.5 -9q-2 -7 -18 -47l-12 -37l-14 -37q-24 -66 -35 -113q-12 -50 -12 -78 q0 -47 26 -73q27 -27 76 -27q13 0 20 1t19 1q10 2 14 3q2 1 6.5 2t6.5 1q-18 -28 -37 -44q-19 -15 -37 -17h-3h-1q-13 0 -34 8q-10 4 -40 21l-12 8l-13 8q-32 23 -54 53t-32 55q-1 4 -2.5 10.5t-1.5 9.5q-2 12 -2 19z" />
<glyph unicode="|" horiz-adv-x="1024" d="M465 -342v1708h94v-1708h-94z" />
<glyph unicode="}" horiz-adv-x="671" d="M-66 -78q3 0 3 1v3q3 -1 7 -3q2 -1 5 -1l21 -3q8 -1 26 -1q40 0 73 17q32 17 66 57q14 14 17 19q2 4 7.5 12t8.5 12l9 15q5 9 11 16q5 12 19 36q9 15 18 37l13 29q2 6 5.5 15.5t4.5 11.5l18 49l19 47l16 49q51 133 143 239q91 105 203 150q-52 28 -76 75q-24 48 -24 118 q0 46 15 105q15 57 54 157q20 48 31 98q10 44 10 82q0 39 -28 61q-29 23 -78 23h-16q-7 0 -17 -2q-10 0 -15 -1q-7 -1 -18 -3q3 6 13 18q1 2 3.5 5t4.5 5.5t4 4.5q10 10 26 19q13 7 23 7q23 0 49 -10q29 -11 56 -31q34 -21 60 -51q25 -29 32 -57q2 -4 5 -17q1 -5 1 -16 q0 -25 -7 -53q-8 -30 -20 -66q-55 -149 -83 -243q-23 -78 -23 -132q0 -48 20 -65q22 -19 76 -19h20l-18 -39q-2 0 -5 1t-5.5 1.5t-4.5 0.5h-14q-5 0 -17 -2t-17 -3q-34 -12 -60 -31q-28 -21 -53 -55q-2 -3 -8 -11.5t-9 -14.5q-2 -3 -8.5 -13t-9.5 -16q-11 -17 -18 -34 q-2 -5 -5 -11t-7.5 -14t-6.5 -13t-6.5 -14l-6.5 -13q-3 -8 -9 -22q-2 0 -2 -2t-2 -2q-6 -15 -25 -63q-3 -9 -20.5 -56t-32.5 -86q-38 -103 -86 -166q-46 -61 -129 -112l-5 -2.5l-7 -3.5l-6 -3q-5 -3 -17 -12q-52 -31 -94 -48q-41 -17 -66 -17q-16 0 -23 11q-8 13 -8 34v5v7z " />
<glyph unicode="~" horiz-adv-x="1366" d="M248 1276q51 82 112 130q63 49 132 60q5 1 17 3q6 1 19 1h12h11q27 -1 65 -12q38 -10 105 -33q62 -23 93 -30q41 -9 63 -9h1h3q59 0 112 29q56 30 99 88l24 -16q-34 -61 -86 -108q-49 -44 -106 -66q-23 -11 -43 -15q-19 -4 -41 -4h-12h-11q-11 1 -44 9q-29 7 -66 20 q-105 35 -151 47q-48 12 -85 12h-3h-1q-25 0 -44 -3q-21 -3 -38 -13q-21 -11 -48 -38q-32 -32 -63 -68z" />
<glyph unicode="&#xa1;" horiz-adv-x="374" d="M-53 -565q2 6 10 32q2 5 4.5 14.5t3.5 14.5l2 4t1 4l3 9q10 34 29 89q13 39 47 128q6 18 12 29t7 18q10 25 18 46q33 85 61 157q84 213 102 258q5 12 10 25l7.5 19.5t3.5 8.5l4 8q0 1 2.5 6.5t4.5 9.5q3 8 8.5 21.5t7.5 18.5t7.5 18.5t8.5 21.5q1 1 3 5l3 6q13 33 27 62 q8 18 31 69l7 -22q4 -12 5 -19q3 -10 5 -31q1 -11 1 -37v-19q0 -6 -2 -20q-1 -45 -15 -96q-14 -55 -40 -127q-2 -9 -3 -10t-1 -4q0 -1 -2 -6t-6.5 -15.5t-8.5 -21.5q-2 -6 -16 -42t-35.5 -93t-46.5 -121q-57 -146 -82 -221q-20 -60 -20 -89q0 -35 27 -51q26 -16 89 -16 l-10 -35h-22h-117q-22 2 -32 2t-32 -2q-9 0 -33 -2q-5 0 -17.5 -1.5t-20.5 -2.5zM369 700q0 29 21 50q20 20 48 20q21 0 33 -13t12 -36q0 -24 -21 -45t-48 -21q-20 0 -33 13q-12 12 -12 32z" />
<glyph unicode="&#xa2;" d="M115 145q0 53 18 113q16 53 49 121q66 125 184 243q116 116 242 171q0 3 1 4t1 4l3 9q0 1 1.5 8t3.5 13q2 7 4 15.5t3.5 14.5t1.5 9q2 16 2 21q0 23 -22 36q-20 11 -70 13v27q52 1 121 5q14 1 44.5 2.5t42.5 2.5q0 -5 -1 -7q-2 -4 -3 -7q0 -4 -1 -5t-1 -6q-1 -9 -6 -20 q-1 -3 -10 -27q-13 -41 -16 -50q-2 -5 -4.5 -9.5t-2.5 -5.5q0 -3 -2 -7q-3 -5 -4 -12q10 1 25 5q16 4 24 5q31 6 43 7q28 2 39 2h29l-9 -18q-3 -4 -3 -9h-1h-1q-1 -2 -6 -11q-6 -10 -15 -28l-20 -37q-17 -30 -36.5 -64t-22.5 -39q-9 -16 -19 -36l-4 -8q-1 -4 -6 -10h-35 q0 2 2 5t2 4t1.5 5t2.5 6q13 26 25 57q10 26 10 37q0 19 -12 28q-13 9 -48 11q-42 -113 -98 -241q-54 -125 -108 -232q-30 -60 -45 -89q-9 -16 -25.5 -47t-22.5 -42q108 23 199 111q90 87 152 229q0 -3 4 -21q2 -10 2 -16v-5v-5q0 -33 -21 -73q-22 -42 -55 -81 q-54 -64 -139 -125q-83 -59 -172 -94l-12 -3q-3 -1 -11 -3l-3 -3q-1 -1 -1 -3l-1 -2l-5 -7.5t-6 -8.5q-17 -25 -62 -97q-4 -6 -10.5 -16.5t-7.5 -12.5q-3 -5 -9 -13t-7 -9q-1 -2 -3 -4t-2 -3q-2 -4 -6 -5q-9 -15 -11 -17q-1 -1 -13 -16l-39 -2l21 33q4 6 12 16t12 16 q8 14 12 20q8 12 12 19q17 27 35 58q23 39 29 51q-10 -2 -16 -2h-15q-48 0 -78 44t-30 113zM244 195q0 -49 17 -75q19 -28 50 -34q15 27 46 86q21 41 48 98q4 8 13.5 30.5t15.5 34.5t16.5 36t12.5 28q44 103 74 183q34 92 51 149q-32 -7 -59 -23q-33 -20 -60 -44 q-20 -20 -30 -31q-4 -5 -9 -11t-10.5 -13t-9.5 -11q-36 -45 -61 -87q-27 -47 -48 -93q-27 -61 -42 -118q-15 -58 -15 -105z" />
<glyph unicode="&#xa3;" d="M-82 -2l53 106q177 11 301 115q125 105 125 244q0 36 -6 69q-6 35 -18 64h-152l2 33h140q-42 111 -64 193q-20 76 -20 126q0 96 42 167q43 72 136 134q31 20 69 40q32 17 70 30q34 12 70 18q34 6 69 6q110 0 175 -62q67 -64 67 -165q0 -77 -34 -136q-36 -62 -107 -116 q-51 -35 -95 -56q-47 -22 -73 -22q-28 0 -44 16q-17 17 -18 42q14 -9 32 -13q17 -4 40 -4q74 0 128 71q54 70 54 167q0 103 -54 164t-144 61q-112 0 -200 -76q-89 -77 -89 -172v-8v-8q2 -31 15 -71q12 -37 48 -130q2 -6 7 -16.5t6 -14.5q4 -10 12 -32q4 -11 10.5 -32.5 t9.5 -30.5q13 -39 19 -70h202l-2 -33h-194q2 -8 2 -10t2 -8v-13v-14q0 -89 -40 -170q-40 -82 -118 -148q-10 -10 -15 -14l-15 -12l-17 -12q-12 -9 -18 -13q-8 -6 -51 -28q-5 -3 -76 -37q-4 -1 -16 -7q-3 -2 -9.5 -6t-9.5 -6q56 0 79 -1t64 -1q17 0 25 -1t24 -1 q17 -1 46 -2.5t41 -1.5q54 -2 59 -2q73 0 140 29q68 29 118 84q35 35 60 73t42 80q12 30 17 54q6 27 6 51q5 -5 8 -7l6 -6q9 -12 12 -21q5 -13 5 -26q0 -24 -19 -67q-17 -38 -47 -84q-9 -13 -27 -34q-2 -3 -12 -15.5t-16 -18.5q-80 -86 -174 -134t-191 -54q-10 -2 -16 -2 h-17q-10 0 -56 2q-33 1 -71 6q-20 2 -53 4.5t-36 2.5q-38 3 -62 3q-46 0 -83 -3q-49 -4 -77 -5z" />
<glyph unicode="&#xa4;" horiz-adv-x="819" d="M168 414l106 90q-4 8 -10 22q-4 10 -6 21q-3 8 -5 25q-1 9 -1 28q0 41 10 74q10 34 33 69q14 24 24 36q20 24 31 36l-88 105l55 47l89 -103q32 26 60 41q30 17 60 27q17 5 46 10q21 4 49 4q37 0 65 -11q31 -12 59 -36l86 74l50 -58l-90 -75q2 -6 5.5 -16t4.5 -11 q5 -12 6 -22l3 -21q1 -7 1 -20q0 -31 -7 -59q-8 -31 -22 -58q-16 -31 -36 -59q-19 -27 -50 -58l90 -108l-55 -46l-88 105q-28 -23 -55 -41q-26 -18 -47 -25q-13 -3 -34 -7q-18 -3 -36 -3q-19 0 -37 3q-20 3 -37 9q-12 5 -38 19q-23 12 -37 24l-107 -88zM319 655 q0 -82 51 -135q50 -51 134 -51q96 0 164 68q67 67 67 161q0 81 -46 131q-47 52 -118 52q-99 0 -176 -68q-76 -67 -76 -158z" />
<glyph unicode="&#xa5;" d="M147 1255q9 7 21 16t20 15.5t13 10.5q19 16 35 26q0 2 1 3t3 1q55 43 62 49q6 5 34 27q4 1 6 5t6 5l21 -30q5 -6 20 -33q30 -56 61 -139q32 -85 72 -216l6.5 -19.5t7.5 -21.5q5 -15 13 -47q2 -8 3 -11l3 -9q16 -54 23 -79q7 -24 14 -58l3 -9q1 -3 1 -8q1 -8 6 -24t12 -52 q2 6 6.5 17t5.5 15q5 15 5 16l24 75l23 76l22 76q0 2 1 3t1 3q44 131 150 251q106 119 225 181q47 25 90 38t86 13q28 0 41 -5t13 -19q0 -6 -1 -9l-3 -12q0 -3 -1 -4q-2 -2 -2 -4l-3 -12q-4 -16 -9 -31l-6 -20l-8 -33q-3 -11 -7 -23t-6 -19t-3 -10q-1 -4 -5 -16q0 -5 -1 -7 q-1 -3 -3 -11h-35q9 40 10 48q3 21 3 36q0 30 -21 47q-20 16 -55 16q-109 0 -192 -84q-82 -84 -144 -260q0 -2 -1.5 -6t-2.5 -7q-1 -7 -6 -13q-10 -32 -27 -89t-39 -139l-8 -33q-3 -10 -6 -19q-2 -6 -2 -9v-2q-3 -10 -4 -13q0 -2 -1.5 -6t-3.5 -11t-3 -13h143v-31h-152 l-34 -104h186v-31h-197l-131 -422l-135 -41l148 463h-162v29h166l-19 106h-147v31h137q-4 11 -6 20q-1 3 -2.5 8.5t-1.5 6.5q-5 12 -9 25q-1 4 -7 21.5t-11 32.5l-3 13q0 1 -1 4t-2 4q-1 6 -9 30q-2 6 -7 23.5t-14.5 47.5t-18.5 61q-19 63 -26 82q-4 11 -11 31.5t-10 29.5 q-1 2 -2.5 6t-1.5 5t-1 3.5t-2 4.5t-1 4q-1 4 -15 40q-9 24 -18 44q-3 7 -9.5 21.5t-9.5 20.5q-5 11 -16 27q-12 16 -21 20q-13 5 -26 5q-17 0 -36 -10t-50 -35z" />
<glyph unicode="&#xa6;" horiz-adv-x="1024" d="M465 313h94v-655h-94v655zM465 686v680h94v-680h-94z" />
<glyph unicode="&#xa7;" horiz-adv-x="819" d="M-4 -123q4 5 4 7v3q0 2 5 15q0 1 9 23t17 44q8 27 15 40q5 10 13 32q0 3 1 4q0 1 1 2l2 2q3 6 9 19t9 20q18 42 23 53l31 -18q-1 -3 -3 -7q-1 -2 -1 -7l-1 -1q-1 -1 -1 -4q-2 -9 -10 -42q-4 -17 -4 -31q0 -33 28 -51q30 -19 84 -19q140 0 213 49q74 50 74 144q0 27 -9 57 q-8 28 -26 63l-12 21l-12 20l-43 62l-41 59l-41 62q-14 20 -23 37q-10 19 -16 43q-10 30 -13 44q-6 28 -6 40q0 25 8 57q9 36 19 61q22 52 50 94q30 45 65 74q3 1 7 5l5 5q19 13 36 23q35 20 58 31q-13 44 -17 65q-6 32 -7 47v5v6q0 18 3 36q3 20 9 37q17 58 54 110 q36 50 91 91q67 51 149 72q77 20 206 20q24 0 34 -1t29 -1q10 -2 16 -2q5 0 19 -2q-23 -64 -47 -125q-14 -37 -35 -84q0 -2 -2 -5t-2 -4t-2 -4t-2 -5q-6 -14 -9 -22q-2 -5 -6.5 -13t-5.5 -10l-30 18q2 8 3 11t1 8q2 9 5.5 25.5t4.5 18.5q4 17 4 29q0 35 -32 55 q-31 19 -93 19q-74 0 -138 -23q-62 -22 -89 -57q-12 -20 -16 -27q-9 -18 -13 -28q-6 -16 -9 -32q-3 -15 -3 -28q0 -24 8 -56q7 -28 23 -60q1 -1 5.5 -9.5t7.5 -13.5l15 -24l43 -62l41 -59l41 -62q14 -21 23 -39q11 -22 18 -43q8 -23 12 -43q4 -19 4 -39t-3 -41 q-2 -17 -9 -40q-24 -83 -88 -161q-65 -78 -145 -112q1 -4 6 -22.5t7 -26.5q5 -23 5 -39q2 -8 2 -13v-16q0 -11 -1 -18t-1 -18q-7 -54 -40 -110q-31 -53 -85 -101q-72 -66 -161 -93q-85 -26 -228 -26q-26 0 -36 1t-29 1q-8 2 -15 2q-6 0 -14 2v6zM369 768q0 -24 9 -54 q10 -34 25 -61l13 -20l12 -21l33 -49l33 -47l34 -49q4 -4 10 -15q14 -26 17 -30q77 1 129 52q51 50 51 126q0 25 -9 55q-9 31 -28 62q-3 7 -9 19q-6 11 -11 18l-35 47l-33 49l-32 49q0 1 -4 6t-7 9q-7 12 -18 30q-75 -1 -128 -53q-52 -51 -52 -123z" />
<glyph unicode="&#xa8;" horiz-adv-x="1024" d="M657 1014q0 28 21 49q20 20 47 20q21 0 34 -13t13 -32q0 -28 -20 -48q-21 -21 -47 -21q-19 0 -33 13q-15 13 -15 32zM866 1014q0 28 21 49q20 20 47 20q21 0 34 -13t13 -32q0 -28 -20 -48q-21 -21 -48 -21q-18 0 -32 13q-15 13 -15 32z" />
<glyph unicode="&#xa9;" horiz-adv-x="1648" d="M242 516q0 167 87 326q88 161 251 297q50 43 103 79q51 35 103 64q105 57 207 87t201 30q214 0 360 -140q148 -142 148 -344q0 -66 -13 -128q-14 -66 -40 -130q-43 -105 -119 -207q-76 -103 -184 -202q-113 -106 -222 -167q-109 -62 -211 -79q-8 -1 -24 -2t-24 -2 q-32 -2 -46 -2q-19 0 -57 2q-27 1 -60 8q-78 17 -150 50q-73 33 -134 81q-83 65 -130 165q-46 98 -46 214zM338 530q0 -111 31 -207q29 -91 88 -153q50 -53 134 -92q78 -36 167 -47q5 -1 14 -2t14 -1q10 -1 29 -1q37 0 76 6q42 6 76 16q91 27 178 82q90 56 172 137 q147 146 215 296q70 155 70 323q0 225 -111 350t-311 125q-42 0 -75 -4q-37 -4 -75 -15q-101 -23 -200 -75q-94 -50 -193 -133q-147 -128 -224 -282q-75 -150 -75 -323zM459 522q0 263 215 449q214 186 516 186q130 0 207 -58q78 -59 78 -155q0 -100 -94 -173t-224 -73 q-37 0 -100 11q-78 14 -170 36q-69 18 -99 22q-38 5 -63 5h-18q-7 0 -17 -2l-20 -4q-11 -2 -23 -6q20 22 39 46l21 25q1 1 2 3l1 2l1 2q1 2 2 2q15 9 30 14q13 4 23 4q1 0 3 -0.5t5.5 -1t6.5 -0.5q12 -2 30 -6q16 -3 38.5 -7.5t24.5 -5.5q11 -2 37 -10q6 0 8 -1t5 -1 q15 -5 38 -12q35 -10 64 -20q53 -16 121 -32q48 -11 92 -11q82 0 137 46q56 47 56 113q0 81 -87 134q-88 53 -221 53q-238 0 -413 -158q-174 -158 -174 -375q0 -109 62 -171t173 -62q104 0 176 93t72 230v21q19 -8 28 -25t9 -43q0 -16 -3 -33q-4 -22 -7 -34 q-27 -84 -102 -159q-74 -74 -159 -101q-27 -7 -34 -8q-16 -3 -33 -3q-113 0 -187 71q-73 70 -73 183z" />
<glyph unicode="&#xaa;" horiz-adv-x="768" d="M199 610l53 119h483q39 0 65 2q18 1 36 8q5 1 13 6q2 1 7.5 5t9.5 6q-4 -8 -10 -24q-5 -12 -10 -19q-21 -41 -50 -51q-31 -11 -104 -11h-418q-15 0 -27 -2q-11 -2 -18 -12q-4 -4 -7 -10q-5 -10 -9 -17h-14zM301 891q0 10 2 30q1 14 6 31q39 139 221 260t392 148 q15 3 47 5q15 1 45 1q12 0 19 -4t7 -12q0 -2 -3 -13q-3 -9 -9 -22q-1 -1 -3 -5t-3 -7q0 -4 -1 -5t-3 -4q-19 3 -55 5q-18 1 -52 1q-116 0 -206 -30q-88 -29 -175 -101q-36 -29 -65 -64t-45 -67q-14 -27 -19 -49q-6 -24 -6 -47q0 -31 14 -50q13 -18 37 -18q25 0 60 21 q38 23 72 53q32 27 63 65q36 43 55 74q10 15 26 43q10 18 19 39q3 8 8.5 23t7.5 22q5 16 11 50q26 -7 39 -23q12 -15 12 -37q0 -28 -18 -62q-17 -32 -53 -73q10 0 15 1t15 1q6 1 27 7q2 1 17 6t26 8l-12 -30q-3 -7 -19 -42q-8 -22 -13 -33q-1 -2 -11 -29q-3 -8 -7 -17.5 t-5 -11.5q-3 -9 -3 -16q0 -8 5 -13t14 -5h1h1q9 0 23 6q18 8 44 21l15 -19q-37 -24 -96 -45q-53 -19 -128 -37v13q0 22 21 79q25 68 49 121l4 8l4 9q-44 -44 -53 -52q-51 -45 -53 -47q-74 -59 -146 -97q-69 -36 -116 -36q-31 0 -49 20q-17 18 -17 52z" />
<glyph unicode="&#xab;" horiz-adv-x="884" d="M90 459q0 1 2 2l2 1l2 1l16 10q2 1 7.5 5t13.5 9.5t16 10.5q9 6 27 17.5t25 16.5q4 3 24 16.5t31 20.5l33 27t30 25q51 41 62 51q15 12 26 23q15 15 23 22l6 6q2 2 4 2q1 3 10 10l31 29l41 41l10 10q3 0 4 1l3 3q2 2 4 2h2h2v2h6q2 0 12 2q17 5 28 6l11 3l37 8l16 4h7 l6 2h4q-33 -45 -117 -111q-73 -58 -221 -155q-52 -32 -77 -52q-23 -18 -28 -28q-2 -6 -3 -10t-1 -15v-11q0 -3 2 -9q1 -13 12 -35q12 -24 27 -49q2 -3 12.5 -20.5t16.5 -29.5q18 -32 35 -61q0 -3 2 -7q0 -1 1.5 -3t2.5 -4q11 -19 31 -55q4 -7 24 -50q1 -2 3.5 -8.5 t4.5 -10.5l3 -6l3.5 -7l2.5 -5q6 -11 10 -23q1 -3 8 -26q-2 -2 -5 -3l-3 -2q-1 -1 -4 -1q-1 -1 -5 -3l-10 -5q-38 -21 -43 -24q-8 -5 -22 -13h-2q-3 -3 -6 -4l-9 -4l-2 2v2q0 1 -1 3t-2.5 6t-2.5 7q-16 43 -26 66q-17 41 -37 85q-26 56 -49 99q-2 5 -7.5 15t-8.5 15l-15 30 q-19 33 -41 70q-6 11 -18.5 31t-18.5 30zM395 461q98 61 133 86q72 52 95 71q10 8 16 14q1 1 16 13l36 33q16 15 48 47q1 1 4 3q1 0 3 2q2 0 2 1q11 11 31 33q10 11 28 29l7 7l5 5v2q1 1 8 7l11 11h3q1 0 3 2q3 0 15 2q2 0 14 2.5t22 4.5q23 4 33 6q14 2 18 2q0 2 2 2h2 q3 0 4 1t4 1q-5 -7 -17 -21q-16 -19 -17 -20l-44 -44q-14 -14 -46 -44q-45 -36 -98 -74q-48 -35 -132 -88q-20 -12 -41 -29q-14 -11 -20 -22q-5 -6 -6 -13q-2 -10 -2 -18q0 -23 11 -45q15 -31 42 -72q9 -13 30 -51l29 -53q19 -36 52 -103q22 -46 34 -88l-2 -2t-2 -1t-2 -1 l-2 -2q-2 0 -3 -1t-3 -1l-15 -9q-14 -9 -24 -13q-7 -4 -17 -10t-14 -9q-2 -2 -3 -2h-1q-1 0 -8 -5t-8 -5q-1 4 -5.5 14.5t-6.5 16.5q-1 2 -11 28q-36 84 -43 99q-21 45 -45 90q-1 3 -5 9t-5 9q-2 7 -6 14q-7 12 -8 13q-1 2 -7 13l-3.5 7t-4.5 7l-24 40q-35 55 -46 75 q-7 13 -10 16q0 2 -1 3q-2 2 -3 5z" />
<glyph unicode="&#xac;" horiz-adv-x="1024" d="M76 473v74h874v-547h-170v473h-704z" />
<glyph unicode="&#xad;" horiz-adv-x="1024" />
<glyph unicode="&#xae;" horiz-adv-x="1648" d="M242 516q0 167 87 326q88 161 251 297q50 43 103 79q51 35 103 64q105 57 207 87t201 30q214 0 360 -140q148 -142 148 -344q0 -66 -13 -128q-14 -66 -40 -130q-43 -105 -119 -207q-76 -103 -184 -202q-113 -106 -222 -167q-109 -62 -211 -79q-8 -1 -24 -2t-24 -2 q-32 -2 -46 -2q-19 0 -57 2q-27 1 -60 8q-78 17 -150 50q-73 33 -134 81q-83 65 -130 165q-46 98 -46 214zM338 530q0 -111 31 -207q29 -91 88 -153q50 -53 134 -92q78 -36 167 -47q5 -1 14 -2t14 -1q10 -1 29 -1q37 0 76 6q42 6 76 16q91 27 178 82q90 56 172 137 q147 146 215 296q70 155 70 323q0 225 -111 350t-311 125q-42 0 -75 -4q-37 -4 -75 -15q-101 -23 -200 -75q-94 -50 -193 -133q-147 -128 -224 -282q-75 -150 -75 -323zM408 561q0 231 240 383q241 152 603 152q127 0 198 -41t71 -119q0 -54 -34 -92q-34 -39 -104 -66 q-3 -1 -7 -3t-5 -3q-31 -12 -46 -29q-16 -18 -26 -43q-17 0 -24 1t-23 1h-17h-20h-15h-13q-11 0 -15 -1t-16 -1l-18 -45q8 -10 11 -15t11 -15q1 -3 5 -9q5 -7 5 -8q13 -20 31 -57q5 -10 12 -25.5t18 -39.5t19 -42q4 -7 10.5 -19t9.5 -17q8 -16 15 -23t12 -8q8 -2 17 -2h4h2 q7 1 19 5q6 2 24 11l8 -24q-13 -8 -42 -25.5t-44 -26.5q-37 -22 -63 -34q-6 18 -15.5 42t-12.5 32q-1 3 -7.5 21t-9.5 27q0 4 -1 5q-2 2 -2 4q-1 1 -3 5q-1 2 -1 5q-5 13 -13.5 37.5t-12.5 34.5q-9 23 -21 47q-1 6 -5 11q0 1 -2.5 5t-4.5 6q-3 4 -7 12q-5 11 -7 13 q-69 -140 -177 -223q-107 -82 -223 -82q-126 0 -207 78t-81 200zM487 586q0 -113 74 -187q73 -73 189 -73q89 0 155 65q68 67 131 213q2 4 7 18q3 8 8 17q-2 2 -8 6t-8 6q-5 4 -13 10q-21 15 -43 21q-23 6 -49 6q-64 0 -110 -45q-45 -44 -56 -117q-2 2 -5.5 6.5t-4.5 5.5 q-4 4 -6 9q-6 10 -7 16q-2 10 -2 17q0 53 80 97t180 44q20 0 28 -1q16 -2 24 -5q4 -1 12 -5l14 -8l4 9l3 9q2 4 3 7q0 1 2 7q0 1 1 4.5t2.5 8t3.5 9.5q12 34 23 72q7 25 7 42q0 18 -6 25q-6 8 -20 8h-1h-1q-9 0 -13 -1q-7 -2 -20 -3l-4 21q9 1 38 7q14 3 44 11q2 0 8 1.5 t9 2.5t9.5 2.5t8.5 1.5q2 1 12 3.5t15 4.5q13 4 24 9q-2 -7 -7.5 -27.5t-7.5 -30.5q-5 -24 -12 -49q-2 -6 -10 -32q-2 -5 -4.5 -14.5t-3.5 -14.5q-1 -4 -5 -14t-5 -15q20 -2 26 -2h19q101 0 158 42t57 118q0 71 -61 106t-181 35q-308 0 -506 -135q-199 -136 -199 -344z" />
<glyph unicode="&#xaf;" horiz-adv-x="512" />
<glyph unicode="&#xb0;" horiz-adv-x="546" d="M375 1087v12q0 3 2 11q11 85 84 157q75 73 160 85q8 2 13 2h13q66 0 108 -42t42 -108q0 -38 -20 -81q-19 -42 -60 -87q-45 -50 -89 -75q-45 -25 -87 -25q-67 0 -117 45q-49 45 -49 106zM436 1137q0 -62 36 -98q35 -35 95 -35q68 0 115 47t47 114q0 56 -32 93 q-32 36 -83 36q-69 0 -124 -47q-54 -47 -54 -110z" />
<glyph unicode="&#xb1;" d="M16 123l23 57h684l-23 -57h-684zM176 557l23 57h313l121 316h55l-121 -316h316l-23 -57h-313l-121 -311h-55l118 311h-313z" />
<glyph unicode="&#xb2;" horiz-adv-x="563" d="M141 547l29 49q16 8 50 28q21 12 52 33q76 51 149 116q78 70 134 130q74 82 127 166q49 79 49 133q0 51 -33 84t-84 33q-62 0 -109 -47q-45 -45 -56 -125q-24 11 -33 23q-10 13 -10 36q0 56 84 99q85 43 194 43q65 0 106 -38q39 -36 39 -100q0 -46 -28 -96 q-29 -52 -94 -123q-3 -4 -18 -19l-17 -18l-55 -55q-24 -24 -56 -51q-73 -68 -128 -113q-83 -68 -157 -125h222h4h4h4h4h4h4q23 1 65 4q18 1 34 17q10 8 17 16q9 11 21 27q0 2 1 3l4 3h32q-8 -14 -13 -21q-8 -11 -13 -20q-12 -20 -27 -49q-11 -22 -18 -43h-484z" />
<glyph unicode="&#xb3;" horiz-adv-x="563" d="M221 647v3v3q0 5 2 19q1 7 8 26q16 -37 70 -59q53 -21 129 -21q104 0 171 52t67 131q0 64 -59 99q-58 34 -169 34q-13 0 -23 -1q-15 -1 -36 -3q4 5 9.5 12t7.5 9q8 10 14 20q0 1 5 8q2 3 7 8q6 14 10 22q2 4 7 12t8 13h26q108 0 188 53q78 52 78 130q0 39 -26 62 q-27 24 -68 24q-62 0 -109 -42q-46 -41 -61 -112q-15 7 -25 20t-10 27v1v1v1v1q4 51 90 93q85 42 189 42q55 0 84 -26q31 -28 31 -74q0 -73 -70 -134t-178 -79q-32 -6 -57 -23q-23 -16 -27 -36v-7q103 -11 151 -50q50 -41 50 -111q0 -106 -88 -183q-85 -75 -211 -75 q-83 0 -134 30t-51 80z" />
<glyph unicode="&#xb4;" horiz-adv-x="1024" d="M698 860q22 137 86 227q62 88 164 115l39 -86q-88 -30 -161 -95q-72 -65 -128 -161z" />
<glyph unicode="&#xb5;" horiz-adv-x="978" d="M-199 -317q0 4 11 31q5 13 38 79q2 6 8 14q3 5 3 9q3 5 16 31q29 58 62 126q2 5 7 14.5t8 14.5q7 14 13 29q67 141 120 269q61 145 110 282l129 354h125l-213 -586q-19 -56 -34 -109q-14 -50 -14 -77q0 -45 37 -75t92 -30q20 0 41 3q11 2 41 8q58 17 117 55 q58 38 131 106l258 705h125l-256 -703q-12 -32 -23 -68q-8 -26 -8 -34q0 -21 18 -36t40 -15h3h3q6 1 27 7q9 3 36 17l-12 -30l-184 -94q-2 2 -3 2t-3 -2h-3h-3h-4h-3q-16 4 -30 20t-19 37v5v5q0 17 3 33q5 29 7 37l6 15q4 11 5 22q-126 -89 -200 -129q-73 -39 -136 -50 q-5 -1 -14.5 -2t-14.5 -1q-10 -1 -31 -1q-73 0 -115 39t-42 109v15q0 8 2 18q-6 -15 -13.5 -35.5t-12 -33.5t-8.5 -22q-8 -21 -19 -55l-2 -4t-1 -4q0 -1 -1.5 -4.5t-2.5 -5.5q-7 -29 -14 -64q-2 -8 -27 -112q-24 -99 -55 -149q-30 -48 -69 -48q-22 0 -37 15t-15 38v1v1v7v6z " />
<glyph unicode="&#xb6;" horiz-adv-x="819" d="M252 889q0 48 22 102q22 55 66 111q46 64 111 125q65 60 143 110q71 45 154 84q82 39 159 62q62 17 134 28q69 11 128 11q24 0 36 -6t12 -21q0 -2 -6 -22q-5 -16 -21 -44q-39 4 -69 6q-18 1 -46 1q-54 0 -75 -1q-29 -1 -62 -8q-44 -6 -73 -15q-11 -4 -25.5 -8.5 t-35.5 -11t-34 -10.5q26 -13 34 -29q9 -18 9 -53q0 -84 -59 -177q-61 -95 -176 -199q-75 -66 -136 -102q-64 -38 -100 -38q-38 0 -64 30q-26 31 -26 75zM283 250q0 24 3 50t9 50q17 57 48 113q32 58 83 121q3 4 6.5 8.5t4.5 5.5q5 7 5 8h2q9 12 46 47q101 98 237 226 q41 37 68 77q34 49 53 86q19 36 32 81q11 37 11 73t-14 82q-15 48 -39 100l32 8q49 -76 76 -165q27 -90 27 -187q0 -179 -110 -348q-109 -168 -328 -319q-64 -44 -116 -92q-40 -37 -52 -74q-4 -7 -6 -18q-1 -6 -1 -19q0 -42 35 -69t86 -27q14 0 19 1q3 1 8.5 2t7.5 1 q8 1 22 8q4 2 12 6.5t13 7.5q3 -7 5 -19q1 -6 1 -14q0 -29 -24 -45q-23 -16 -70 -16q-87 0 -140 69q-52 68 -52 181zM322 236q0 -3 2 -9v-9v-11l3 9l3 9q5 20 10 29l12 25q21 30 62 68q35 32 131 114q145 120 227 221q86 105 123 205q12 31 21 82q8 43 8 84v16q0 5 -2 25 q-2 -10 -15 -50q-9 -28 -18 -49q-33 -70 -109 -157q-67 -76 -211 -211l-29 -29q-20 -20 -30 -31l-7 -7l-7 -7l-7 -7l-7 -7q-13 -14 -25 -31q-35 -38 -67 -81q-31 -41 -42 -67q-14 -24 -20 -55q-6 -29 -6 -63v-6z" />
<glyph unicode="&#xb7;" horiz-adv-x="512" />
<glyph unicode="&#xb8;" horiz-adv-x="1024" d="M135 -356q0 38 23 67t61 45q-9 -27 -12 -35q-5 -12 -6 -22v-7v-7q0 -29 14 -46q15 -18 37 -18h5h5q50 6 94 56q42 48 47 110v5v5q0 33 -20 50q-21 18 -59 18q-7 0 -23 -2q-13 -2 -25 -6q-7 -3 -29 -16q-20 -12 -28 -19l82 178h45l-47 -102q25 9 35 11q22 4 28 5h9h8 q48 0 76 -22q26 -20 26 -60q0 -11 -1 -17q0 -2 -1 -6t-1.5 -7t-0.5 -5q-15 -76 -80 -141q-66 -66 -141 -82q-7 -3 -22 -5q-8 -1 -21 -1q-36 0 -56 20q-22 22 -22 56z" />
<glyph unicode="&#xb9;" horiz-adv-x="563" d="M332 541q40 69 87 181q49 117 105 271l23 58q35 96 59 164q10 29 10 38v3v4q0 3 -2 7q-2 3 -6 3h-3h-1q-1 0 -3.5 -0.5t-6 -1t-7.5 -0.5t-24.5 -4t-38.5 -7q0 -2 -2 -2h-6l-4 19q5 0 6 1l2 1h1h1q3 0 13 2l40 10l23 4q11 3 25.5 6.5t24 6t16.5 3.5q17 3 36 11q2 0 4 1 t4.5 2t3.5 1q2 1 5 2t4 2q1 0 4.5 1.5t5.5 2.5q6 1 12 6q0 -3 -1 -4q0 -1 -1 -2l-2 -2q0 -1 -2 -5t-2 -7q-1 -3 -21 -52q-11 -27 -30 -83q-6 -18 -28 -78q-24 -65 -31 -82q-1 -6 -7 -16q-4 -7 -6 -19q-6 -16 -16.5 -43.5t-19 -49t-16.5 -40.5q-10 -25 -26.5 -64t-17.5 -42 q-2 -5 -9 -22t-11 -25q-14 -28 -19 -42l-12 -24l-12 -25q-3 -4 -9 -14l-8 -16q-27 -15 -49 -24q-9 -4 -33 -11q-8 -2 -11 -3t-11 -1z" />
<glyph unicode="&#xba;" horiz-adv-x="768" d="M199 610l53 119h483q39 0 65 2q18 1 36 8q5 1 13 6q2 1 7.5 5t9.5 6q-4 -8 -10 -24q-5 -12 -10 -19q-21 -41 -50 -51q-31 -11 -104 -11h-418q-15 0 -27 -2q-11 -2 -18 -12q-4 -4 -7 -10q-5 -10 -9 -17h-14zM383 928q0 22 4 41q5 24 10 41q40 112 162 211q121 99 258 129 q24 6 48 9t48 3q16 0 28 -9q11 -8 11 -24v-5v-5q0 -1 -2 -4t-2 -5q-2 -7 -6 -12q-30 2 -39 2h-33q-98 0 -166 -26q-71 -27 -122 -84q-23 -25 -42 -58q-17 -31 -34 -69q-14 -33 -19 -57q-6 -28 -6 -52q0 -36 23 -59t59 -23q22 0 51 13q27 12 56 35q30 25 36 31q15 15 33 38 q12 14 20 27q1 2 7.5 12t9.5 16q16 28 27 61q10 29 10 54q0 26 -12 41q-11 14 -35 14q-31 0 -57 -23q-27 -24 -50 -71q-1 4 -3 10l-3 9v5v5q0 4 2 14q2 8 7 15q16 31 49 56q35 26 75 36l18 3q6 1 17 1q40 0 67 -27t27 -63q0 -60 -35 -115q-36 -57 -108 -117q-5 -5 -8 -7 q-6 -4 -10 -7q-69 -55 -138 -86q-70 -31 -116 -31q-51 0 -84 30t-33 77z" />
<glyph unicode="&#xbb;" horiz-adv-x="884" d="M-2 0q11 11 17 19t18 20q23 24 45 45q30 28 45 43q56 44 97 74q52 37 130 88q8 6 21 14.5t18 11.5q15 11 21 21q6 8 8 16q2 10 2 19v1v3q0 18 -12 42q-8 17 -41 70q-10 15 -28 47q-2 3 -11.5 20t-14.5 26q-36 67 -55 108q-27 58 -37 92q1 0 2.5 1t2.5 2t2 1q2 1 5 4 q15 9 18 11q15 10 23 14q2 1 7.5 3.5t7.5 4.5l12 8q2 0 3 1l1 1q2 0 10 6q1 1 5 3t6 4q4 -11 12 -31q5 -13 10 -29q17 -37 39 -89q14 -33 41 -85q3 -5 9 -17l9 -18q6 -8 8 -12q4 -8 7 -12q2 -8 6 -14l8 -13l27 -41q33 -53 44 -74q8 -13 9 -18l1 -2l3 -6q-83 -53 -127 -82 q-46 -31 -88 -63l-20 -17q-11 -7 -19 -16q-2 0 -3 -1l-3 -3q-3 -3 -35 -33t-51 -49v-1q0 -1 -2 -1q-22 -24 -34 -35t-30 -29l-7 -7l-5 -5l-1 -1l-1 -1q-1 -3 -6 -8q-1 -1 -2.5 -3t-3 -4.5t-2.5 -3.5h-4q-2 0 -4 -2q-4 0 -16 -2l-36 -6q-24 -5 -31 -6q-16 -2 -20 -2 q0 -2 -2 -2h-2h-3h-3zM281 -4q38 52 119 114q89 69 219 152q53 34 75 51q23 17 29 29l3 12q1 4 1 15v8v8q-5 17 -12 36q-6 16 -29 52q-4 7 -14 23.5t-15 25.5q-6 11 -17 31.5t-15 28.5q-1 3 -5 9l-6 9q-5 9 -27 53l-24 47l-11 23q-6 14 -9 22q0 1 -2 7l-2 6q-6 10 -7 15 q-2 7 -6 15q5 1 9 5q2 2 4 2l2 2t2 1l10 5l24 12l18 9q11 6 21 14h3h2q3 3 6 5q7 5 8 5q2 -2 2 -3v-3q1 -1 6 -15q6 -16 27 -65q27 -61 36 -82q21 -46 48 -96q7 -16 13 -28q2 -4 4.5 -8.5t5 -9.5t3.5 -8q10 -19 44 -80q18 -31 40 -65q-2 -2 -3 -2h-1q-2 -2 -10 -7 q-1 0 -43 -28l-25 -16l-24 -17q-74 -50 -109 -78q-63 -50 -100 -85q-4 -3 -12 -11l-13 -12l-6 -6l-2 -2l-10 -10l-31 -31q-10 -9 -20 -18.5t-15.5 -14.5t-7.5 -7q-1 -1 -10 -9q0 -2 -1 -3l-3 -3h-4q-2 0 -4 -2q-4 0 -7 -1q-11 -4 -14 -4l-18 -4q-14 -2 -16 -2h-5l-16 -4 l-19 -4l-18 -4l-6 -2h-4z" />
<glyph unicode="&#xbc;" horiz-adv-x="1425" d="M332 541q40 69 87 181q49 117 105 271l23 58q35 96 59 164q10 29 10 38v3v4q0 3 -2 7q-2 3 -6 3h-3h-1q-1 0 -3.5 -0.5t-6 -1t-7.5 -0.5t-24.5 -4t-38.5 -7q0 -2 -2 -2h-6l-4 19q5 0 6 1l2 1h1h1q3 0 13 2l40 10l23 4q11 3 25.5 6.5t24 6t16.5 3.5q17 3 36 11q2 0 4 1 t4.5 2t3.5 1q2 1 5 2t4 2q1 0 4.5 1.5t5.5 2.5q6 1 12 6q0 -3 -1 -4q0 -1 -1 -2l-2 -2q0 -1 -2 -5t-2 -7q-1 -3 -21 -52q-11 -27 -30 -83q-6 -18 -28 -78q-24 -65 -31 -82q-1 -6 -7 -16q-4 -7 -6 -19q-6 -16 -16.5 -43.5t-19 -49t-16.5 -40.5q-10 -25 -26.5 -64t-17.5 -42 q-2 -5 -9 -22t-11 -25q-14 -28 -19 -42l-12 -24l-12 -25q-3 -4 -9 -14l-8 -16q-27 -15 -49 -24q-9 -4 -33 -11q-8 -2 -11 -3t-11 -1zM412 20l839 1340l41 -19l-837 -1341zM907 268l13 17q5 6 10 18q2 2 5 7.5t4 8.5q5 9 7 17q56 19 101 63q48 47 92 121q9 15 19 34 q2 4 6 11.5t7 13.5t5 11q13 28 34 90q15 43 15 65q0 13 -11 19q-12 7 -34 8v19h28h22h23l36 3q12 1 30 1q0 -39 -18 -87q-21 -56 -54 -110q-14 -24 -22 -37q-7 -11 -23 -33q-11 -17 -22 -31q-12 -15 -27 -30q-20 -24 -56 -58q-24 -23 -79 -69h14q27 0 56.5 -0.5t45 -1 t22.5 -0.5h34h9h18l32 90q3 8 10.5 27.5t10.5 28.5q7 23 18 40q11 25 26 43q14 18 34 33q5 4 17 12q1 1 8 6t11 7l13 8q6 4 14 6q30 18 53 26q27 9 41 9q11 0 15 -7t4 -20v-10q-6 2 -7 2q-2 0 -8 2q-8 0 -12 1t-14 1q-27 0 -48 -12q-20 -11 -42 -43q-15 -22 -33 -64 q-14 -32 -37 -94l-33 -90h4h4h2h5q70 0 98 17q32 19 39 57q12 -5 17 -11q5 -7 5 -12q0 -9 -9 -23q-10 -15 -25 -26q-27 -21 -73 -42t-93 -32l-95 -256h-8q-2 0 -8 -2h-7h-5q-3 0 -9 -1t-8 -2q-21 -4 -24 -5h-1h-3q0 -2 -1 -2h-3l98 268h-33q-76 2 -94 2h-53h-40 q-17 0 -63 -2z" />
<glyph unicode="&#xbd;" horiz-adv-x="1425" d="M332 541q40 69 87 181q49 117 105 271l23 58q35 96 59 164q10 29 10 38v3v4q0 3 -2 7q-2 3 -6 3h-3h-1q-1 0 -3.5 -0.5t-6 -1t-7.5 -0.5t-24.5 -4t-38.5 -7q0 -2 -2 -2h-6l-4 19q5 0 6 1l2 1h1h1q3 0 13 2l40 10l23 4q11 3 25.5 6.5t24 6t16.5 3.5q17 3 36 11q2 0 4 1 t4.5 2t3.5 1q2 1 5 2t4 2q1 0 4.5 1.5t5.5 2.5q6 1 12 6q0 -3 -1 -4q0 -1 -1 -2l-2 -2q0 -1 -2 -5t-2 -7q-1 -3 -21 -52q-11 -27 -30 -83q-6 -18 -28 -78q-24 -65 -31 -82q-1 -6 -7 -16q-4 -7 -6 -19q-6 -16 -16.5 -43.5t-19 -49t-16.5 -40.5q-10 -25 -26.5 -64t-17.5 -42 q-2 -5 -9 -22t-11 -25q-14 -28 -19 -42l-12 -24l-12 -25q-3 -4 -9 -14l-8 -16q-27 -15 -49 -24q-9 -4 -33 -11q-8 -2 -11 -3t-11 -1zM412 20l839 1340l41 -19l-837 -1341zM805 0l29 49q18 10 52 30q8 5 52 34q70 47 147 114q72 63 134 131q69 76 124 164q50 80 50 133 q0 51 -33 84t-82 33q-63 0 -110 -47q-45 -45 -56 -125q-22 10 -33 24q-10 13 -10 35q0 56 85 99t192 43q64 0 105 -38q40 -37 40 -99q0 -45 -29 -97t-94 -123l-5 -5l-5 -5q-15 -17 -68 -70q-46 -46 -71 -69q-57 -55 -126 -111q-42 -34 -153 -121h221h4h4h5h4h4h4 q13 0 25.5 1t23.5 2.5t15 1.5q20 2 34 16q14 11 18 16q9 10 21 27q0 2 1 3l3 3h33q-5 -9 -13 -20q-10 -14 -14 -21q-8 -12 -26 -49t-21 -43h-481z" />
<glyph unicode="&#xbe;" horiz-adv-x="1425" d="M221 647v3v3q0 5 2 19q1 7 8 26q16 -37 70 -59q53 -21 129 -21q104 0 171 52t67 131q0 64 -59 99q-58 34 -169 34q-13 0 -23 -1q-15 -1 -36 -3q4 5 9.5 12t7.5 9q8 10 14 20q0 1 5 8q2 3 7 8q6 14 10 22q2 4 6.5 12t7.5 13h27q108 0 188 53q78 52 78 130q0 39 -26 62 q-27 24 -68 24q-62 0 -109 -42q-46 -41 -61 -112q-15 7 -25 20t-10 27v1v1v1v1q4 51 90 93q85 42 189 42q55 0 84 -26q31 -28 31 -74q0 -73 -70 -134t-178 -79q-32 -6 -57 -23q-23 -16 -27 -36v-7q103 -11 151 -50q50 -41 50 -111q0 -106 -88 -183q-85 -75 -212 -75 q-82 0 -133 30t-51 80zM412 20l839 1340l41 -19l-837 -1341zM907 268l13 17q5 6 10 18q2 2 10 16l8 17q45 17 82 50q39 34 78 87q5 7 15 23q2 4 7.5 12t8.5 12q9 15 19 34q2 4 6 11.5t7 13.5t5 11q13 28 34 90q15 43 15 65q0 13 -11 19q-12 7 -32 8l-2 19h28h22h23l36 3 q12 1 30 1q0 -39 -18 -87q-21 -56 -54 -110q-14 -24 -22 -37q-7 -11 -23 -33q-11 -17 -22 -31q-12 -15 -27 -30q-20 -24 -56 -58q-24 -23 -79 -69h14q27 0 56.5 -0.5t45.5 -1t23 -0.5h33h9h17l33 90q3 8 10.5 27.5t10.5 28.5q7 23 18 40q11 25 26 43q14 18 34 33q5 4 17 12 q1 1 8 6t11 7l13 8q6 4 14 6q30 18 53 26q27 9 41 9q11 0 15 -6q4 -5 4 -21v-10q-6 2 -7 2q-2 0 -8 2q-8 0 -12 1t-14 1q-27 0 -48 -12q-20 -11 -42 -43q-15 -22 -33 -64q-14 -32 -37 -94l-33 -90h4h4h2h5q70 0 98 17q32 19 39 57q12 -5 17 -11q5 -7 5 -12q0 -9 -9 -23 t-26 -26q-29 -22 -72 -42q-46 -21 -93 -32l-95 -256h-8q-2 0 -8 -2h-7h-5q-3 0 -9 -1t-8 -2q-21 -4 -24 -5h-1h-3q0 -2 -1 -2h-3l98 268h-33q-76 2 -94 2h-53h-40q-17 0 -63 -2z" />
<glyph unicode="&#xbf;" horiz-adv-x="796" d="M-135 -301q0 30 5 68q4 35 15 69q17 60 46 113q28 52 69 104q39 50 93 91q49 38 132 77q16 8 54 24q11 4 31 12t28 11q84 31 149 64q55 28 82 57q15 19 19 29q6 15 6 28q0 28 -26 46t-58 18h-1h-3h-3h-1h-2h-4q-2 -2 -4 -2h-5q11 26 31 43q17 14 45 14q31 0 51 -23 q21 -24 21 -61q0 -22 -8 -54q-7 -27 -25 -60q-17 -33 -36 -61q-19 -27 -46 -54q-34 -34 -76 -57q-46 -25 -90 -41l-53 -19l-51 -16l-51 -17q-141 -45 -207 -122q-68 -79 -68 -193q0 -106 77 -163q75 -56 220 -56q113 0 162 26q51 27 90 109q1 2 2.5 5.5t1.5 4.5t1.5 5t2.5 6 q1 1 3 5t3 7v-2h35q-9 -18 -32 -74q-4 -9 -10.5 -27t-10.5 -26l-4 -13l-4 -12l-14 -42q-8 -27 -15 -56q-55 -18 -92 -26q-35 -8 -80 -13q-6 -1 -18.5 -2t-18.5 -1q-12 -1 -39 -1q-152 0 -235 67q-84 68 -84 191zM547 717q0 30 20 50q21 21 47 21q23 0 35 -13t12 -36 q0 -27 -20 -46t-47 -19q-22 0 -34 11q-13 12 -13 32z" />
<glyph unicode="&#xc0;" horiz-adv-x="1683" d="M-147 39l61 100q89 31 180 79q78 41 160 101q14 10 40 30q7 5 20.5 16t19.5 16q94 80 205 191q92 92 217 237q13 14 28 33q4 5 25 26q0 2 1 3l1 1q19 22 38 47q20 26 52 64q15 17 30 36q20 26 30 38q37 48 40 51q16 18 37 45q101 127 173 210q65 75 116 122l27 -25 q-4 -5 -11.5 -13.5t-10.5 -12.5q-8 -10 -15 -25q-19 -32 -25 -66q-6 -35 -6 -94q0 -43 1 -65q2 -44 3 -64q6 -85 23 -183q17 -95 45 -212q26 -106 43 -166q24 -83 45 -149q2 -6 12.5 -35t16.5 -44q5 -13 13.5 -36.5t12.5 -32.5q17 -40 28 -58q14 -22 23 -28q2 -2 10 -5 q3 -1 9 -1h3h1q14 2 28 13q17 14 42 40l26 -24q-8 -9 -17 -18.5t-17.5 -19t-12.5 -13.5q-6 -6 -17.5 -18.5t-17.5 -18.5q-1 -1 -2 -3l-1 -2q-2 -2 -3 -2q-12 -13 -43 -50q-39 -47 -59 -70q-11 22 -31 64q-6 12 -15.5 34.5t-13.5 30.5q-6 12 -27 67q-16 42 -26 72 q-1 3 -29 81q-3 8 -28 91q-73 238 -99 367q-28 141 -28 270v16v17q1 21 5 77q3 47 9 105q-4 -4 -10.5 -11.5t-8.5 -9.5l-12 -12q-52 -59 -89 -104q-84 -102 -124 -154q-34 -44 -57 -71q-27 -32 -51 -60q-1 -3 -4 -6l-6 -6q-14 -16 -42 -50q-21 -25 -49 -55q20 2 26 2 q8 0 22 2h32h41h75q23 0 67 -2q27 0 89 -2q12 0 47 -1.5t56 -2.5q-2 -5 -5 -15t-6 -19t-6 -17q-15 -47 -18 -61q-2 -7 -7.5 -27.5t-8.5 -31.5q-3 -10 -8.5 -30t-7.5 -30q-1 -1 -2 -3.5t-2 -4.5q-1 -3 -1 -9h-36q8 32 11 50q3 21 3 36q0 27 -12 40t-41 18h-4h-5q-20 4 -60 4 h-157h-26h-25q-38 -2 -58 -3q-31 -2 -73 -3q-60 -57 -75 -72q-13 -13 -21 -23h-2q-3 -3 -5 -6l-10 -10q-38 -37 -130 -123q-46 -43 -95 -84l-20 -16q-14 -10 -19 -14q-57 -43 -82 -60l-30 -20t-40 -27t-38 -25q11 0 16 1q10 2 17 2l57 3q19 1 63 1h15h14h77q22 0 60 -2 q39 -1 113 -10q5 -1 74.5 -8.5t122.5 -14.5q11 0 16 -1t16 -1q9 -1 27.5 -2.5t27.5 -1.5q36 -2 48 -2q159 0 250 79t112 236q21 -12 29 -26t8 -31q0 -49 -35 -105q-34 -55 -104 -117q-82 -73 -176 -111q-90 -36 -189 -36q-17 0 -83 2q-42 1 -109 8q-14 2 -42 4.5t-40 3.5 l-86 9q-90 8 -170 12q-73 4 -127 4l-70 -2q-90 -2 -98 -2h-41h-6h-4h-3h-5zM1180 1731l51 86q110 -28 175 -116q64 -86 79 -226q-56 95 -135 160q-81 67 -170 96z" />
<glyph unicode="&#xc1;" horiz-adv-x="1683" d="M-147 39l61 100q89 31 180 79q78 41 160 101q14 10 40 30q7 5 20.5 16t19.5 16q94 80 205 191q92 92 217 237q13 14 28 33q4 5 25 26q0 2 1 3l1 1q19 22 38 47q20 26 52 64q15 17 30 36q20 26 30 38q37 48 40 51q16 18 37 45q101 127 173 210q65 75 116 122l27 -25 q-4 -5 -11.5 -13.5t-10.5 -12.5q-8 -10 -15 -25q-19 -32 -25 -66q-6 -35 -6 -94q0 -43 1 -65q2 -44 3 -64q6 -85 23 -183q17 -95 45 -212q26 -106 43 -166q24 -83 45 -149q2 -6 12.5 -35t16.5 -44q5 -13 13.5 -36.5t12.5 -32.5q17 -40 28 -58q14 -22 23 -28q2 -2 10 -5 q3 -1 9 -1h3h1q14 2 28 13q17 14 42 40l26 -24q-8 -9 -17 -18.5t-17.5 -19t-12.5 -13.5q-6 -6 -17.5 -18.5t-17.5 -18.5q-1 -1 -2 -3l-1 -2q-2 -2 -3 -2q-12 -13 -43 -50q-39 -47 -59 -70q-11 22 -31 64q-6 12 -15.5 34.5t-13.5 30.5q-6 12 -27 67q-16 42 -26 72 q-1 3 -29 81q-3 8 -28 91q-73 238 -99 367q-28 141 -28 270v16v17q1 21 5 77q3 47 9 105q-4 -4 -10.5 -11.5t-8.5 -9.5l-12 -12q-52 -59 -89 -104q-84 -102 -124 -154q-34 -44 -57 -71q-27 -32 -51 -60q-1 -3 -4 -6l-6 -6q-14 -16 -42 -50q-21 -25 -49 -55q20 2 26 2 q8 0 22 2h32h41h75q23 0 67 -2q27 0 89 -2q12 0 47 -1.5t56 -2.5q-2 -5 -5 -15t-6 -19t-6 -17q-15 -47 -18 -61q-2 -7 -7.5 -27.5t-8.5 -31.5q-3 -10 -8.5 -30t-7.5 -30q-1 -1 -2 -3.5t-2 -4.5q-1 -3 -1 -9h-36q8 32 11 50q3 21 3 36q0 27 -12 40t-41 18h-4h-5q-20 4 -60 4 h-157h-26h-25q-38 -2 -58 -3q-31 -2 -73 -3q-60 -57 -75 -72q-13 -13 -21 -23h-2q-3 -3 -5 -6l-10 -10q-38 -37 -130 -123q-46 -43 -95 -84l-20 -16q-14 -10 -19 -14q-57 -43 -82 -60l-30 -20t-40 -27t-38 -25q11 0 16 1q10 2 17 2l57 3q19 1 63 1h15h14h77q22 0 60 -2 q39 -1 113 -10q5 -1 74.5 -8.5t122.5 -14.5q11 0 16 -1t16 -1q9 -1 27.5 -2.5t27.5 -1.5q36 -2 48 -2q159 0 250 79t112 236q21 -12 29 -26t8 -31q0 -49 -35 -105q-34 -55 -104 -117q-82 -73 -176 -111q-90 -36 -189 -36q-17 0 -83 2q-42 1 -109 8q-14 2 -42 4.5t-40 3.5 l-86 9q-90 8 -170 12q-73 4 -127 4l-70 -2q-90 -2 -98 -2h-41h-6h-4h-3h-5zM1192 1475q15 139 78 226q63 88 174 116l53 -86q-92 -29 -171 -96q-78 -66 -134 -160z" />
<glyph unicode="&#xc2;" horiz-adv-x="1683" d="M-147 39l61 100q89 31 180 79q78 41 160 101q14 10 40 30q7 5 20.5 16t19.5 16q94 80 205 191q92 92 217 237q13 14 28 33q4 5 25 26q0 2 1 3l1 1q19 22 38 47q20 26 52 64q15 17 30 36q20 26 30 38q37 48 40 51q16 18 37 45q101 127 173 210q65 75 116 122l27 -25 q-4 -5 -11.5 -13.5t-10.5 -12.5q-8 -10 -15 -25q-19 -32 -25 -66q-6 -35 -6 -94q0 -43 1 -65q2 -44 3 -64q6 -85 23 -183q17 -95 45 -212q26 -106 43 -166q24 -83 45 -149q2 -6 12.5 -35t16.5 -44q5 -13 13.5 -36.5t12.5 -32.5q17 -40 28 -58q14 -22 23 -28q2 -2 10 -5 q3 -1 9 -1h3h1q14 2 28 13q17 14 42 40l26 -24q-8 -9 -17 -18.5t-17.5 -19t-12.5 -13.5q-6 -6 -17.5 -18.5t-17.5 -18.5q-1 -1 -2 -3l-1 -2q-2 -2 -3 -2q-12 -13 -43 -50q-39 -47 -59 -70q-11 22 -31 64q-6 12 -15.5 34.5t-13.5 30.5q-6 12 -27 67q-16 42 -26 72 q-1 3 -29 81q-3 8 -28 91q-73 238 -99 367q-28 141 -28 270v16v17q1 21 5 77q3 47 9 105q-4 -4 -10.5 -11.5t-8.5 -9.5l-12 -12q-52 -59 -89 -104q-84 -102 -124 -154q-34 -44 -57 -71q-27 -32 -51 -60q-1 -3 -4 -6l-6 -6q-14 -16 -42 -50q-21 -25 -49 -55q20 2 26 2 q8 0 22 2h32h41h75q23 0 67 -2q27 0 89 -2q12 0 47 -1.5t56 -2.5q-2 -5 -5 -15t-6 -19t-6 -17q-15 -47 -18 -61q-2 -7 -7.5 -27.5t-8.5 -31.5q-3 -10 -8.5 -30t-7.5 -30q-1 -1 -2 -3.5t-2 -4.5q-1 -3 -1 -9h-36q8 32 11 50q3 21 3 36q0 27 -12 40t-41 18h-4h-5q-20 4 -60 4 h-157h-26h-25q-38 -2 -58 -3q-31 -2 -73 -3q-60 -57 -75 -72q-13 -13 -21 -23h-2q-3 -3 -5 -6l-10 -10q-38 -37 -130 -123q-46 -43 -95 -84l-20 -16q-14 -10 -19 -14q-57 -43 -82 -60l-30 -20t-40 -27t-38 -25q11 0 16 1q10 2 17 2l57 3q19 1 63 1h15h14h77q22 0 60 -2 q39 -1 113 -10q5 -1 74.5 -8.5t122.5 -14.5q11 0 16 -1t16 -1q9 -1 27.5 -2.5t27.5 -1.5q36 -2 48 -2q159 0 250 79t112 236q21 -12 29 -26t8 -31q0 -49 -35 -105q-34 -55 -104 -117q-82 -73 -176 -111q-90 -36 -189 -36q-17 0 -83 2q-42 1 -109 8q-14 2 -42 4.5t-40 3.5 l-86 9q-90 8 -170 12q-73 4 -127 4l-70 -2q-90 -2 -98 -2h-41h-6h-4h-3h-5zM1139 1516l3 3l1 1l14 10q18 13 64 51l28 25l29 24q45 40 93 93q59 64 110 128v-106v-37q0 -13 2 -29v-39q0 -10 2 -30q0 -17 1 -27q2 -20 3 -31q-1 0 -2 -1l-2 -2l-2 -2t-2 -1q-5 -2 -13 -8 q-4 -3 -38 -27q-3 -1 -9 -5q-5 -3 -6 -7q-3 -3 -5 -4t-5 -4l-8 -8l-8 -8q0 8 1 11t1 9v15v20q0 81 -4 102q-5 25 -21 25h-4h-4q-8 -1 -22 -16l-54 -54q-39 -40 -61 -58q-23 -19 -43 -20q-2 -2 -6 -2h-7h-7q-3 0 -5 2q-3 0 -7 2q-1 0 -3 2t-4 3z" />
<glyph unicode="&#xc3;" horiz-adv-x="1683" d="M-147 39l61 100q89 31 180 79q78 41 160 101q14 10 40 30q7 5 20.5 16t19.5 16q94 80 205 191q92 92 217 237q13 14 28 33q4 5 25 26q0 2 1 3l1 1q19 22 38 47q20 26 52 64q15 17 30 36q20 26 30 38q37 48 40 51q16 18 37 45q101 127 173 210q65 75 116 122l27 -25 q-4 -5 -11.5 -13.5t-10.5 -12.5q-8 -10 -15 -25q-19 -32 -25 -66q-6 -35 -6 -94q0 -43 1 -65q2 -44 3 -64q6 -85 23 -183q17 -95 45 -212q26 -106 43 -166q24 -83 45 -149q2 -6 12.5 -35t16.5 -44q5 -13 13.5 -36.5t12.5 -32.5q17 -40 28 -58q14 -22 23 -28q2 -2 10 -5 q3 -1 9 -1h3h1q14 2 28 13q17 14 42 40l26 -24q-8 -9 -17 -18.5t-17.5 -19t-12.5 -13.5q-6 -6 -17.5 -18.5t-17.5 -18.5q-1 -1 -2 -3l-1 -2q-2 -2 -3 -2q-12 -13 -43 -50q-39 -47 -59 -70q-11 22 -31 64q-6 12 -15.5 34.5t-13.5 30.5q-6 12 -27 67q-16 42 -26 72 q-1 3 -29 81q-3 8 -28 91q-73 238 -99 367q-28 141 -28 270v16v17q1 21 5 77q3 47 9 105q-4 -4 -10.5 -11.5t-8.5 -9.5l-12 -12q-52 -59 -89 -104q-84 -102 -124 -154q-34 -44 -57 -71q-27 -32 -51 -60q-1 -3 -4 -6l-6 -6q-14 -16 -42 -50q-21 -25 -49 -55q20 2 26 2 q8 0 22 2h32h41h75q23 0 67 -2q27 0 89 -2q12 0 47 -1.5t56 -2.5q-2 -5 -5 -15t-6 -19t-6 -17q-15 -47 -18 -61q-2 -7 -7.5 -27.5t-8.5 -31.5q-3 -10 -8.5 -30t-7.5 -30q-1 -1 -2 -3.5t-2 -4.5q-1 -3 -1 -9h-36q8 32 11 50q3 21 3 36q0 27 -12 40t-41 18h-4h-5q-20 4 -60 4 h-157h-26h-25q-38 -2 -58 -3q-31 -2 -73 -3q-60 -57 -75 -72q-13 -13 -21 -23h-2q-3 -3 -5 -6l-10 -10q-38 -37 -130 -123q-46 -43 -95 -84l-20 -16q-14 -10 -19 -14q-57 -43 -82 -60l-30 -20t-40 -27t-38 -25q11 0 16 1q10 2 17 2l57 3q19 1 63 1h15h14h77q22 0 60 -2 q39 -1 113 -10q5 -1 74.5 -8.5t122.5 -14.5q11 0 16 -1t16 -1q9 -1 27.5 -2.5t27.5 -1.5q36 -2 48 -2q159 0 250 79t112 236q21 -12 29 -26t8 -31q0 -49 -35 -105q-34 -55 -104 -117q-82 -73 -176 -111q-90 -36 -189 -36q-17 0 -83 2q-42 1 -109 8q-14 2 -42 4.5t-40 3.5 l-86 9q-90 8 -170 12q-73 4 -127 4l-70 -2q-90 -2 -98 -2h-41h-6h-4h-3h-5zM1128 1534q6 15 7 19q2 11 6 18q27 76 58 104q32 29 81 29q22 0 43 -4q20 -4 68 -17q37 -8 55 -12q20 -4 37 -4q33 0 52 15t30 49l22 -5q-27 -89 -60 -125q-35 -38 -89 -38h-3h-3h-6h-5 q-11 0 -26 4q-5 1 -14 3t-26 6t-30 7q-29 7 -56 12q-23 4 -42 4q-20 0 -33 -5t-25 -21q-2 -2 -4.5 -7l-3.5 -7l-2.5 -5t-3 -7t-2.5 -7q0 -3 -1 -4l-3 -6z" />
<glyph unicode="&#xc4;" horiz-adv-x="1683" d="M-147 39l61 100q89 31 180 79q78 41 160 101q14 10 40 30q7 5 20.5 16t19.5 16q94 80 205 191q92 92 217 237q13 14 28 33q4 5 25 26q0 2 1 3l1 1q19 22 38 47q20 26 52 64q15 17 30 36q20 26 30 38q37 48 40 51q16 18 37 45q101 127 173 210q65 75 116 122l27 -25 q-4 -5 -11.5 -13.5t-10.5 -12.5q-8 -10 -15 -25q-19 -32 -25 -66q-6 -35 -6 -94q0 -43 1 -65q2 -44 3 -64q6 -85 23 -183q17 -95 45 -212q26 -106 43 -166q24 -83 45 -149q2 -6 12.5 -35t16.5 -44q5 -13 13.5 -36.5t12.5 -32.5q17 -40 28 -58q14 -22 23 -28q2 -2 10 -5 q3 -1 9 -1h3h1q14 2 28 13q17 14 42 40l26 -24q-8 -9 -17 -18.5t-17.5 -19t-12.5 -13.5q-6 -6 -17.5 -18.5t-17.5 -18.5q-1 -1 -2 -3l-1 -2q-2 -2 -3 -2q-12 -13 -43 -50q-39 -47 -59 -70q-11 22 -31 64q-6 12 -15.5 34.5t-13.5 30.5q-6 12 -27 67q-16 42 -26 72 q-1 3 -29 81q-3 8 -28 91q-73 238 -99 367q-28 141 -28 270v16v17q1 21 5 77q3 47 9 105q-4 -4 -10.5 -11.5t-8.5 -9.5l-12 -12q-52 -59 -89 -104q-84 -102 -124 -154q-34 -44 -57 -71q-27 -32 -51 -60q-1 -3 -4 -6l-6 -6q-14 -16 -42 -50q-21 -25 -49 -55q20 2 26 2 q8 0 22 2h32h41h75q23 0 67 -2q27 0 89 -2q12 0 47 -1.5t56 -2.5q-2 -5 -5 -15t-6 -19t-6 -17q-15 -47 -18 -61q-2 -7 -7.5 -27.5t-8.5 -31.5q-3 -10 -8.5 -30t-7.5 -30q-1 -1 -2 -3.5t-2 -4.5q-1 -3 -1 -9h-36q8 32 11 50q3 21 3 36q0 27 -12 40t-41 18h-4h-5q-20 4 -60 4 h-157h-26h-25q-38 -2 -58 -3q-31 -2 -73 -3q-60 -57 -75 -72q-13 -13 -21 -23h-2q-3 -3 -5 -6l-10 -10q-38 -37 -130 -123q-46 -43 -95 -84l-20 -16q-14 -10 -19 -14q-57 -43 -82 -60l-30 -20t-40 -27t-38 -25q11 0 16 1q10 2 17 2l57 3q19 1 63 1h15h14h77q22 0 60 -2 q39 -1 113 -10q5 -1 74.5 -8.5t122.5 -14.5q11 0 16 -1t16 -1q9 -1 27.5 -2.5t27.5 -1.5q36 -2 48 -2q159 0 250 79t112 236q21 -12 29 -26t8 -31q0 -49 -35 -105q-34 -55 -104 -117q-82 -73 -176 -111q-90 -36 -189 -36q-17 0 -83 2q-42 1 -109 8q-14 2 -42 4.5t-40 3.5 l-86 9q-90 8 -170 12q-73 4 -127 4l-70 -2q-90 -2 -98 -2h-41h-6h-4h-3h-5zM1174 1616q0 29 20 49q21 21 47 21q20 0 34 -14q13 -13 13 -32q0 -28 -20 -48q-21 -21 -47 -21q-19 0 -33 13t-14 32zM1382 1616q0 28 21 49t47 21q20 0 34 -14q13 -13 13 -32q0 -28 -20 -48 q-21 -21 -47 -21q-19 0 -33 13q-15 14 -15 32z" />
<glyph unicode="&#xc5;" horiz-adv-x="1683" d="M-147 39l61 100q89 31 180 79q78 41 160 101q14 10 40 30q7 5 20.5 16t19.5 16q94 80 205 191q92 92 217 237q13 14 28 33q4 5 25 26q0 2 1 3l1 1q19 22 38 47q20 26 52 64q15 17 30 36q20 26 30 38q37 48 40 51q16 18 37 45q101 127 173 210q65 75 116 122l27 -25 q-4 -5 -11.5 -13.5t-10.5 -12.5q-8 -10 -15 -25q-19 -32 -25 -66q-6 -35 -6 -94q0 -43 1 -65q2 -44 3 -64q6 -85 23 -183q17 -95 45 -212q26 -106 43 -166q24 -83 45 -149q2 -6 12.5 -35t16.5 -44q5 -13 13.5 -36.5t12.5 -32.5q17 -40 28 -58q14 -22 23 -28q2 -2 10 -5 q3 -1 9 -1h3h1q14 2 28 13q17 14 42 40l26 -24q-8 -9 -17 -18.5t-17.5 -19t-12.5 -13.5q-6 -6 -17.5 -18.5t-17.5 -18.5q-1 -1 -2 -3l-1 -2q-2 -2 -3 -2q-12 -13 -43 -50q-39 -47 -59 -70q-11 22 -31 64q-6 12 -15.5 34.5t-13.5 30.5q-6 12 -27 67q-16 42 -26 72 q-1 3 -29 81q-3 8 -28 91q-73 238 -99 367q-28 141 -28 270v16v17q1 21 5 77q3 47 9 105q-4 -4 -10.5 -11.5t-8.5 -9.5l-12 -12q-52 -59 -89 -104q-84 -102 -124 -154q-34 -44 -57 -71q-27 -32 -51 -60q-1 -3 -4 -6l-6 -6q-14 -16 -42 -50q-21 -25 -49 -55q20 2 26 2 q8 0 22 2h32h41h75q23 0 67 -2q27 0 89 -2q12 0 47 -1.5t56 -2.5q-2 -5 -5 -15t-6 -19t-6 -17q-15 -47 -18 -61q-2 -7 -7.5 -27.5t-8.5 -31.5q-3 -10 -8.5 -30t-7.5 -30q-1 -1 -2 -3.5t-2 -4.5q-1 -3 -1 -9h-36q8 32 11 50q3 21 3 36q0 27 -12 40t-41 18h-4h-5q-20 4 -60 4 h-157h-26h-25q-38 -2 -58 -3q-31 -2 -73 -3q-60 -57 -75 -72q-13 -13 -21 -23h-2q-3 -3 -5 -6l-10 -10q-38 -37 -130 -123q-46 -43 -95 -84l-20 -16q-14 -10 -19 -14q-57 -43 -82 -60l-30 -20t-40 -27t-38 -25q11 0 16 1q10 2 17 2l57 3q19 1 63 1h15h14h77q22 0 60 -2 q39 -1 113 -10q5 -1 74.5 -8.5t122.5 -14.5q11 0 16 -1t16 -1q9 -1 27.5 -2.5t27.5 -1.5q36 -2 48 -2q159 0 250 79t112 236q21 -12 29 -26t8 -31q0 -49 -35 -105q-34 -55 -104 -117q-82 -73 -176 -111q-90 -36 -189 -36q-17 0 -83 2q-42 1 -109 8q-14 2 -42 4.5t-40 3.5 l-86 9q-90 8 -170 12q-73 4 -127 4l-70 -2q-90 -2 -98 -2h-41h-6h-4h-3h-5zM1262 1606q0 5 2 17q1 3 2.5 9t1.5 8q15 44 55 81q42 39 88 55q3 0 10.5 1.5t11.5 2.5q16 2 21 2q25 0 44 -19q18 -18 18 -45q0 -11 -1 -17q-2 -11 -6 -18q-16 -49 -58 -88q-44 -41 -93 -53 q-3 0 -8.5 -1t-8.5 -2q-5 -1 -16 -1q-29 0 -46 17t-17 51zM1317 1618q0 -17 10 -27t27 -10h3h3q34 4 64 37q29 32 34 72v5v5q0 17 -9 29q-9 13 -24 14h-1h-1h-1h-1q-9 0 -16 -3q-13 -5 -16 -7q-12 -7 -19 -14q-14 -14 -16 -17q-10 -10 -14 -18q-1 -3 -3 -6t-4.5 -6.5 t-3.5 -6.5q-5 -11 -9 -25q-3 -12 -3 -22z" />
<glyph unicode="&#xc6;" horiz-adv-x="2310" d="M-150 31q1 1 3.5 4l5 6t4.5 7q15 24 16 26q1 4 5 10t5 10q10 17 12 23q5 13 9 20q45 15 99 39q58 26 112 57l57 37q11 7 31 20.5t24 16.5q146 101 332 295q178 185 393 459q21 26 55 67.5t38 46.5q42 52 61 72q11 12 23.5 27t21 24.5t13.5 15.5q17 19 28 34l1 1q1 1 1 3 q3 3 4 5t4 5h18h9h9h18q49 0 98 -1t244 -1h237h102q26 0 66 2q17 0 26 1q18 2 29 3q-4 -13 -10.5 -34t-8.5 -29q-3 -9 -7.5 -26.5t-5.5 -19.5q0 -1 -1 -3.5t-2 -4.5q-1 -3 -1 -8l-23 -90q-3 -11 -6 -23q0 -3 -1 -5l-3 -9h-39q8 26 11 43q4 24 5 35v8v8q0 25 -12 37 q-12 13 -41 17q-7 1 -33 3q-16 1 -59 1h-225h-263h-57q-2 -22 -2 -29v-23q0 -71 11 -156q14 -110 32 -204h494l-27 -106h-201q55 -39 84 -95t29 -123q0 -11 -2 -37q-2 -20 -6 -38q-12 -52 -37 -104q-24 -49 -62 -87q31 -27 81 -55q38 -21 102 -47q45 -18 90 -30 q41 -11 78 -11q134 0 219 88q86 89 108 250q20 -10 32 -33q11 -21 11 -51q0 -33 -21 -73q-20 -38 -61 -81q-17 -19 -42 -40q-22 -18 -52 -40q-4 -3 -14.5 -10l-16.5 -11q-18 -13 -32 -22q-12 -8 -53 -31q-18 -10 -58 -34q-27 -15 -39 -21q-14 -7 -22 -8h-1h-3q-5 0 -28 5 q-21 5 -63 20q-87 29 -163 67q-83 41 -142 88q-118 -88 -323 -136q-206 -48 -451 -48q-29 0 -113 2q-51 1 -137 10q-133 12 -167 14q-74 4 -87 5q-8 2 -13 2h-13q-14 0 -22 1t-25 1q-59 2 -98 3q-27 1 -70 1q-33 0 -79 -2q-35 -1 -57 -6zM74 141q19 2 86 7q52 4 71 4 q37 0 153 -6q85 -4 191 -15q16 -2 18 -2h11q14 -3 30 -4q15 -1 107 -14l88 -13l86 -10q5 0 17 -1.5t19 -2.5q26 -2 40 -2q16 -2 26 -2h25q129 0 240 39t174 108q-88 84 -151 217t-91 304h-456q-167 -175 -272 -279q-105 -103 -173 -158q-9 -7 -43 -32l-45 -33l-45 -31 q-18 -12 -37 -25l-28.5 -19.5t-13.5 -9.5q-4 -2 -7.5 -5t-6 -5t-3.5 -2q0 -1 -2 -2l-2 -1l-2 -2q-2 -1 -4 -3zM848 854h350q-8 62 -11 106q-3 51 -3 101q0 78 2 136q2 45 6 75q0 -2 -4 -5q-2 -2 -2 -3l-18 -20q-4 -4 -13 -15t-26.5 -31.5t-34.5 -40.5q-2 -3 -7.5 -9.5 t-14.5 -17.5t-17 -21l-76 -95q-5 -5 -7 -8q-4 -6 -7 -9v-2q-8 -10 -25 -29.5t-24 -27.5q-8 -10 -30.5 -38t-37.5 -46zM1346 748q23 -136 74 -250q53 -118 122 -187q24 29 42 71q18 41 24 83q2 16 3 25t1 26q0 72 -43 134q-42 61 -107 83q-16 4 -52 10q-30 5 -64 5z" />
<glyph unicode="&#xc7;" horiz-adv-x="1566" d="M133 403v28q0 8 2 28q17 217 144 420q128 204 329 333q153 100 339 152q189 53 382 53q220 0 345 -85q126 -86 126 -232q0 -162 -156 -283q-155 -121 -370 -121q-69 0 -168 18q-116 21 -285 62q-106 27 -164 36q-57 9 -104 9q-23 0 -33 -1q-5 0 -14 -1t-14 -2 q-16 -1 -33 -6q-14 -4 -37 -12q47 52 58 66l16 20t18 22q0 2 1 3l1 1q2 1 4.5 4.5t3.5 5.5q1 1 2.5 3t3 4.5t2.5 3.5q20 1 40 3q12 1 26 1q41 0 92 -6q52 -6 113 -21h3q1 0 3 -2h1h3q48 -11 71 -17q14 -4 69.5 -18t99.5 -26q123 -33 207 -48q90 -16 145 -16q136 0 230 77 t94 190q0 136 -145 224q-144 87 -367 87q-400 0 -690 -263q-289 -262 -289 -626q0 -179 104 -283t281 -104q181 0 302 154q119 152 119 385v13q0 5 -2 21q27 -16 39 -44q13 -29 13 -70q0 -46 -15 -96q-17 -57 -41 -103q-39 -72 -96 -141q-59 -71 -127 -123q-27 -21 -51 -36 q-28 -17 -49 -28q-40 -16 -82 -24q-43 -8 -92 -8v-2l-39 -91q26 10 28 10q15 4 25 5q10 2 15 2h16q52 0 79 -24t27 -62q0 -14 -1 -22q-2 -13 -5 -21q-18 -76 -85 -143t-144 -85q-8 -3 -24 -5q-8 -1 -23 -1q-37 0 -60 23q-22 22 -22 57q0 42 22 71t68 46q-13 -29 -16 -42 q-5 -20 -5 -32q0 -31 15 -49t39 -18h5h5q53 6 99 58q45 51 50 114v7v5q0 35 -22 53q-24 19 -64 19q-10 0 -23 -3q-11 -3 -26 -8q-15 -6 -30 -15q-17 -10 -27 -19l78 172q-169 23 -266 135t-97 284z" />
<glyph unicode="&#xc8;" horiz-adv-x="2361" d="M184 539q0 174 100 326t302 282q19 13 82 50q38 22 82 42q134 65 269 91q143 28 306 28h182h75q31 0 101 2h17h14h92h78q68 2 88 2q26 0 72 2q25 0 37 1t37 1q-14 -36 -16 -44q-3 -12 -11 -32q0 -3 -1 -5t-1 -5q-10 -35 -14 -51q-2 -7 -10.5 -39t-14.5 -57l-1 -6 q-4 -10 -5 -13h-37q10 36 13 56q3 18 3 30v4v4q0 34 -21 45q-22 11 -95 11h-33h-223q-39 -153 -49 -188q-17 -62 -31 -93q0 -2 -2 -8l-4 -8v-1v-1q-57 -147 -170 -242q-112 -94 -303 -154q74 -23 145 -60q75 -40 176 -106q24 -15 100 -63q21 -13 48 -29q2 -2 3 -2h1 q3 -1 9 -5t9 -5q23 30 45 66q21 34 31 59q13 29 20 68q7 40 7 75q0 104 -43 175q-44 73 -127 110h352l-29 -109h-166q44 -44 66 -97t22 -116t-27 -131q-26 -64 -85 -139q126 -73 190 -102q69 -31 119 -37q13 0 21 -1t22 -1q135 0 225 93q91 94 101 245q18 -10 30 -34 q10 -20 10 -48q0 -30 -14 -59q-14 -30 -39 -64q-29 -41 -66 -72q-40 -34 -87 -63l-39 -25q-61 -38 -122 -74q-24 -14 -36 -16h-3h-3q-34 0 -106 27q-83 31 -152 65q-31 14 -74 36q-38 20 -67 40l-7 3q0 1 -2 2l-2 1q-96 -69 -242 -113t-307 -55q-28 0 -42 -1t-42 -1 q-341 0 -535 142q-196 143 -196 391zM297 575q0 -126 56 -234q57 -109 157 -181q85 -59 188 -85q110 -28 248 -28q164 0 294 40q132 41 253 124q-14 8 -16 9q-8 4 -9 5l-71 45l-74 45l-74 45q-54 34 -115 63q-59 28 -128 50q-71 25 -139 38q-66 13 -124 13h-28q-9 0 -25 -2 q-5 0 -15 -1.5t-16 -2.5q-14 -1 -41 -8q15 15 24 27q3 3 8.5 10.5t8.5 11.5q6 6 8 9q3 5 5 12q6 8 12 18q7 12 12 25q1 0 3 0.5t3.5 1l3 1t2.5 0.5q3 1 11 1q10 2 17 2h28h17q6 0 20 -2q13 0 20 -1q14 -2 19 -3l28 -2l29 -5l29 -4q15 -1 28 -3q4 -1 12.5 -2t12.5 -1h14h13 q18 0 28 1q5 1 14.5 2t14.5 1q79 11 159 57q78 44 128 109q62 78 108 193q46 116 86 295h-215q-131 0 -202 -3q-55 -2 -128 -10q-11 -1 -18 -3t-18 -3q-305 -50 -485 -231q-181 -182 -181 -439zM1716 1731l51 86q111 -29 176 -116q63 -85 78 -226q-56 95 -135 160 q-81 67 -170 96z" />
<glyph unicode="&#xc9;" horiz-adv-x="2361" d="M184 539q0 174 100 326t302 282q19 13 82 50q38 22 82 42q134 65 269 91q143 28 306 28h182h75q31 0 101 2h17h14h92h78q68 2 88 2q26 0 72 2q25 0 37 1t37 1q-14 -36 -16 -44q-3 -12 -11 -32q0 -3 -1 -5t-1 -5q-10 -35 -14 -51q-2 -7 -10.5 -39t-14.5 -57l-1 -6 q-4 -10 -5 -13h-37q10 36 13 56q3 18 3 30v4v4q0 34 -21 45q-22 11 -95 11h-33h-223q-39 -153 -49 -188q-17 -62 -31 -93q0 -2 -2 -8l-4 -8v-1v-1q-57 -147 -170 -242q-112 -94 -303 -154q74 -23 145 -60q75 -40 176 -106q24 -15 100 -63q21 -13 48 -29q2 -2 3 -2h1 q3 -1 9 -5t9 -5q23 30 45 66q21 34 31 59q13 29 20 68q7 40 7 75q0 104 -43 175q-44 73 -127 110h352l-29 -109h-166q44 -44 66 -97t22 -116t-27 -131q-26 -64 -85 -139q126 -73 190 -102q69 -31 119 -37q13 0 21 -1t22 -1q135 0 225 93q91 94 101 245q18 -10 30 -34 q10 -20 10 -48q0 -30 -14 -59q-14 -30 -39 -64q-29 -41 -66 -72q-40 -34 -87 -63l-39 -25q-61 -38 -122 -74q-24 -14 -36 -16h-3h-3q-34 0 -106 27q-83 31 -152 65q-31 14 -74 36q-38 20 -67 40l-7 3q0 1 -2 2l-2 1q-96 -69 -242 -113t-307 -55q-28 0 -42 -1t-42 -1 q-341 0 -535 142q-196 143 -196 391zM297 575q0 -126 56 -234q57 -109 157 -181q85 -59 188 -85q110 -28 248 -28q164 0 294 40q132 41 253 124q-14 8 -16 9q-8 4 -9 5l-71 45l-74 45l-74 45q-54 34 -115 63q-59 28 -128 50q-71 25 -139 38q-66 13 -124 13h-28q-9 0 -25 -2 q-5 0 -15 -1.5t-16 -2.5q-14 -1 -41 -8q15 15 24 27q3 3 8.5 10.5t8.5 11.5q6 6 8 9q3 5 5 12q6 8 12 18q7 12 12 25q1 0 3 0.5t3.5 1l3 1t2.5 0.5q3 1 11 1q10 2 17 2h28h17q6 0 20 -2q13 0 20 -1q14 -2 19 -3l28 -2l29 -5l29 -4q15 -1 28 -3q4 -1 12.5 -2t12.5 -1h14h13 q18 0 28 1q5 1 14.5 2t14.5 1q79 11 159 57q78 44 128 109q62 78 108 193q46 116 86 295h-215q-131 0 -202 -3q-55 -2 -128 -10q-11 -1 -18 -3t-18 -3q-305 -50 -485 -231q-181 -182 -181 -439zM1645 1475q15 141 77 226q63 88 174 116l54 -86q-92 -29 -171 -96 q-78 -66 -134 -160z" />
<glyph unicode="&#xca;" horiz-adv-x="2361" d="M184 539q0 174 100 326t302 282q19 13 82 50q38 22 82 42q134 65 269 91q143 28 306 28h182h75q31 0 101 2h17h14h92h78q68 2 88 2q26 0 72 2q25 0 37 1t37 1q-14 -36 -16 -44q-3 -12 -11 -32q0 -3 -1 -5t-1 -5q-10 -35 -14 -51q-2 -7 -10.5 -39t-14.5 -57l-1 -6 q-4 -10 -5 -13h-37q10 36 13 56q3 18 3 30v4v4q0 34 -21 45q-22 11 -95 11h-33h-223q-39 -153 -49 -188q-17 -62 -31 -93q0 -2 -2 -8l-4 -8v-1v-1q-57 -147 -170 -242q-112 -94 -303 -154q74 -23 145 -60q75 -40 176 -106q24 -15 100 -63q21 -13 48 -29q2 -2 3 -2h1 q3 -1 9 -5t9 -5q23 30 45 66q21 34 31 59q13 29 20 68q7 40 7 75q0 104 -43 175q-44 73 -127 110h352l-29 -109h-166q44 -44 66 -97t22 -116t-27 -131q-26 -64 -85 -139q126 -73 190 -102q69 -31 119 -37q13 0 21 -1t22 -1q135 0 225 93q91 94 101 245q18 -10 30 -34 q10 -20 10 -48q0 -30 -14 -59q-14 -30 -39 -64q-29 -41 -66 -72q-40 -34 -87 -63l-39 -25q-61 -38 -122 -74q-24 -14 -36 -16h-3h-3q-34 0 -106 27q-83 31 -152 65q-31 14 -74 36q-38 20 -67 40l-7 3q0 1 -2 2l-2 1q-96 -69 -242 -113t-307 -55q-28 0 -42 -1t-42 -1 q-341 0 -535 142q-196 143 -196 391zM297 575q0 -126 56 -234q57 -109 157 -181q85 -59 188 -85q110 -28 248 -28q164 0 294 40q132 41 253 124q-14 8 -16 9q-8 4 -9 5l-71 45l-74 45l-74 45q-54 34 -115 63q-59 28 -128 50q-71 25 -139 38q-66 13 -124 13h-28q-9 0 -25 -2 q-5 0 -15 -1.5t-16 -2.5q-14 -1 -41 -8q15 15 24 27q3 3 8.5 10.5t8.5 11.5q6 6 8 9q3 5 5 12q6 8 12 18q7 12 12 25q1 0 3 0.5t3.5 1l3 1t2.5 0.5q3 1 11 1q10 2 17 2h28h17q6 0 20 -2q13 0 20 -1q14 -2 19 -3l28 -2l29 -5l29 -4q15 -1 28 -3q4 -1 12.5 -2t12.5 -1h14h13 q18 0 28 1q5 1 14.5 2t14.5 1q79 11 159 57q78 44 128 109q62 78 108 193q46 116 86 295h-215q-131 0 -202 -3q-55 -2 -128 -10q-11 -1 -18 -3t-18 -3q-305 -50 -485 -231q-181 -182 -181 -439zM1661 1516l3 3l1 1q1 0 3 1.5t5 4t6 4.5q18 13 64 51l29 25l28 24q45 40 93 93 q59 64 110 128v-106v-37q0 -13 2 -29v-39q0 -10 2 -30q0 -17 1 -27q2 -20 3 -31q-1 0 -2 -1l-2 -2t-4 -3q-3 -1 -12 -8q-2 -2 -7 -5.5t-14.5 -9.5t-17.5 -12q-1 0 -8 -5q-6 -4 -7 -7q-3 -3 -5 -4t-5 -4l-8 -8l-8 -8q0 8 1 11t1 9v15v20q0 81 -4 102q-5 25 -21 25h-4h-4 q-6 -1 -21 -16l-55 -54q-39 -40 -61 -58q-23 -19 -43 -20q-2 -2 -5 -2h-7h-8q-3 0 -5 2q-3 0 -7 2q-1 0 -3 2t-4 3z" />
<glyph unicode="&#xcb;" horiz-adv-x="2361" d="M184 539q0 174 100 326t302 282q19 13 82 50q38 22 82 42q134 65 269 91q143 28 306 28h182h75q31 0 101 2h17h14h92h78q68 2 88 2q26 0 72 2q25 0 37 1t37 1q-14 -36 -16 -44q-3 -12 -11 -32q0 -3 -1 -5t-1 -5q-10 -35 -14 -51q-2 -7 -10.5 -39t-14.5 -57l-1 -6 q-4 -10 -5 -13h-37q10 36 13 56q3 18 3 30v4v4q0 34 -21 45q-22 11 -95 11h-33h-223q-39 -153 -49 -188q-17 -62 -31 -93q0 -2 -2 -8l-4 -8v-1v-1q-57 -147 -170 -242q-112 -94 -303 -154q74 -23 145 -60q75 -40 176 -106q24 -15 100 -63q21 -13 48 -29q2 -2 3 -2h1 q3 -1 9 -5t9 -5q23 30 45 66q21 34 31 59q13 29 20 68q7 40 7 75q0 104 -43 175q-44 73 -127 110h352l-29 -109h-166q44 -44 66 -97t22 -116t-27 -131q-26 -64 -85 -139q126 -73 190 -102q69 -31 119 -37q13 0 21 -1t22 -1q135 0 225 93q91 94 101 245q18 -10 30 -34 q10 -20 10 -48q0 -30 -14 -59q-14 -30 -39 -64q-29 -41 -66 -72q-40 -34 -87 -63l-39 -25q-61 -38 -122 -74q-24 -14 -36 -16h-3h-3q-34 0 -106 27q-83 31 -152 65q-31 14 -74 36q-38 20 -67 40l-7 3q0 1 -2 2l-2 1q-96 -69 -242 -113t-307 -55q-28 0 -42 -1t-42 -1 q-341 0 -535 142q-196 143 -196 391zM297 575q0 -126 56 -234q57 -109 157 -181q85 -59 188 -85q110 -28 248 -28q164 0 294 40q132 41 253 124q-14 8 -16 9q-8 4 -9 5l-71 45l-74 45l-74 45q-54 34 -115 63q-59 28 -128 50q-71 25 -139 38q-66 13 -124 13h-28q-9 0 -25 -2 q-5 0 -15 -1.5t-16 -2.5q-14 -1 -41 -8q15 15 24 27q3 3 8.5 10.5t8.5 11.5q6 6 8 9q3 5 5 12q6 8 12 18q7 12 12 25q1 0 3 0.5t3.5 1l3 1t2.5 0.5q3 1 11 1q10 2 17 2h28h17q6 0 20 -2q13 0 20 -1q14 -2 19 -3l28 -2l29 -5l29 -4q15 -1 28 -3q4 -1 12.5 -2t12.5 -1h14h13 q18 0 28 1q5 1 14.5 2t14.5 1q79 11 159 57q78 44 128 109q62 78 108 193q46 116 86 295h-215q-131 0 -202 -3q-55 -2 -128 -10q-11 -1 -18 -3t-18 -3q-305 -50 -485 -231q-181 -182 -181 -439zM1675 1616q0 28 21 49t47 21q20 0 34 -14q13 -13 13 -32q0 -27 -21 -48 t-47 -21q-18 0 -32 13q-15 14 -15 32zM1884 1616q0 28 21 49t47 21q20 0 34 -14q13 -13 13 -32q0 -27 -21 -48t-47 -21q-19 0 -33 13t-14 32z" />
<glyph unicode="&#xcc;" horiz-adv-x="1898" d="M180 600q0 203 134 332t345 129q99 0 197 -32q97 -32 191 -93q50 27 100 39q51 12 106 12q136 0 220 -95q83 -93 83 -249q0 -27 -1 -40q-2 -26 -5 -40q-8 -49 -30 -102q-22 -50 -62 -125q-24 31 -40 53q-7 9 -38 51q-102 125 -194 215q-109 105 -217 189 q-71 -67 -105 -148q-33 -79 -33 -188q0 -12 2 -32q1 -10 1 -30l9 -57q5 -29 15 -63q-42 29 -67 80q-25 52 -25 104q0 96 42 184t130 170q-77 56 -136 85q-66 32 -128 44q-23 5 -43 6q-28 2 -43 2q-151 0 -253 -102t-102 -258q0 -236 207 -389q208 -154 525 -154 q249 0 463 124q215 125 358 347q83 132 154 298q76 178 135 376h-703h-72q-89 0 -125 -12t-61 -60q-2 -2 -4.5 -7l-3.5 -7t-8 -18l-37 8q5 13 14 34q4 9 10 25q2 0 2 1v1q3 8 10 25t9 23q3 8 8 21t13 34t14 37l3 5q3 5 5 13h1038q-15 -48 -52 -159q-4 -12 -40 -111l-8 -21 l-8 -20q-2 -5 -6 -13.5t-4 -9.5q-6 -14 -9 -22q-109 -259 -233 -443q-125 -186 -273 -309q-122 -96 -258 -159q-135 -62 -276 -85q-38 -6 -74 -9q-37 -3 -74 -3q-302 0 -497 168t-195 430zM1081 911q63 -46 118 -95q61 -55 116 -114q27 -29 86 -100q34 -41 88 -113 q8 23 16 57q7 28 8 50q3 15 3 16v17q0 128 -88 221q-87 92 -207 92q-36 0 -68 -7q-35 -7 -72 -24zM1526 1731l51 86q110 -28 175 -116q64 -86 79 -226q-56 95 -135 160q-81 67 -170 96z" />
<glyph unicode="&#xcd;" horiz-adv-x="1898" d="M180 600q0 203 134 332t345 129q99 0 197 -32q97 -32 191 -93q50 27 100 39q51 12 106 12q136 0 220 -95q83 -93 83 -249q0 -27 -1 -40q-2 -26 -5 -40q-8 -49 -30 -102q-22 -50 -62 -125q-24 31 -40 53q-7 9 -38 51q-102 125 -194 215q-109 105 -217 189 q-71 -67 -105 -148q-33 -79 -33 -188q0 -12 2 -32q1 -10 1 -30l9 -57q5 -29 15 -63q-42 29 -67 80q-25 52 -25 104q0 96 42 184t130 170q-77 56 -136 85q-66 32 -128 44q-23 5 -43 6q-28 2 -43 2q-151 0 -253 -102t-102 -258q0 -236 207 -389q208 -154 525 -154 q249 0 463 124q215 125 358 347q83 132 154 298q76 178 135 376h-703h-72q-89 0 -125 -12t-61 -60q-2 -2 -4.5 -7l-3.5 -7t-8 -18l-37 8q5 13 14 34q4 9 10 25q2 0 2 1v1q3 8 10 25t9 23q3 8 8 21t13 34t14 37l3 5q3 5 5 13h1038q-15 -48 -52 -159q-4 -12 -40 -111l-8 -21 l-8 -20q-2 -5 -6 -13.5t-4 -9.5q-6 -14 -9 -22q-109 -259 -233 -443q-125 -186 -273 -309q-122 -96 -258 -159q-135 -62 -276 -85q-38 -6 -74 -9q-37 -3 -74 -3q-302 0 -497 168t-195 430zM1081 911q63 -46 118 -95q61 -55 116 -114q27 -29 86 -100q34 -41 88 -113 q8 23 16 57q7 28 8 50q3 15 3 16v17q0 128 -88 221q-87 92 -207 92q-36 0 -68 -7q-35 -7 -72 -24zM1593 1475q15 139 78 226q63 88 174 116l53 -86q-92 -29 -171 -96q-78 -66 -134 -160z" />
<glyph unicode="&#xce;" horiz-adv-x="1898" d="M180 600q0 203 134 332t345 129q99 0 197 -32q97 -32 191 -93q50 27 100 39q51 12 106 12q136 0 220 -95q83 -93 83 -249q0 -27 -1 -40q-2 -26 -5 -40q-8 -49 -30 -102q-22 -50 -62 -125q-24 31 -40 53q-7 9 -38 51q-102 125 -194 215q-109 105 -217 189 q-71 -67 -105 -148q-33 -79 -33 -188q0 -12 2 -32q1 -10 1 -30l9 -57q5 -29 15 -63q-42 29 -67 80q-25 52 -25 104q0 96 42 184t130 170q-77 56 -136 85q-66 32 -128 44q-23 5 -43 6q-28 2 -43 2q-151 0 -253 -102t-102 -258q0 -236 207 -389q208 -154 525 -154 q249 0 463 124q215 125 358 347q83 132 154 298q76 178 135 376h-703h-72q-89 0 -125 -12t-61 -60q-2 -2 -4.5 -7l-3.5 -7t-8 -18l-37 8q5 13 14 34q4 9 10 25q2 0 2 1v1q3 8 10 25t9 23q3 8 8 21t13 34t14 37l3 5q3 5 5 13h1038q-15 -48 -52 -159q-4 -12 -40 -111l-8 -21 l-8 -20q-2 -5 -6 -13.5t-4 -9.5q-6 -14 -9 -22q-109 -259 -233 -443q-125 -186 -273 -309q-122 -96 -258 -159q-135 -62 -276 -85q-38 -6 -74 -9q-37 -3 -74 -3q-302 0 -497 168t-195 430zM1081 911q63 -46 118 -95q61 -55 116 -114q27 -29 86 -100q34 -41 88 -113 q8 23 16 57q7 28 8 50q3 15 3 16v17q0 128 -88 221q-87 92 -207 92q-36 0 -68 -7q-35 -7 -72 -24zM1499 1515l3 4l1 1q2 1 15 10q10 8 63 51l29 25l28 24q51 46 94 93q51 55 109 128v-106v-37q0 -13 2 -29v-39q0 -10 2 -30q0 -17 1 -27q2 -20 3 -31q-1 0 -2 -1l-2 -2t-4 -3 q-3 -1 -12 -8q-2 -2 -7 -5.5t-14.5 -9.5t-17.5 -12q-1 0 -8 -5q-5 -3 -6 -7q-2 -2 -6 -4q-2 -1 -5 -4l-8 -8l-8 -8q0 8 1 11t1 9v15v20q0 81 -4 102q-5 25 -21 25h-4h-4q-6 -1 -21 -16l-55 -54q-39 -40 -61 -58q-23 -19 -43 -20q-2 -2 -5 -2h-7h-7q-4 0 -6 2q-3 0 -7 2l-2 1 q-3 2 -5 3z" />
<glyph unicode="&#xcf;" horiz-adv-x="1898" d="M180 600q0 203 134 332t345 129q99 0 197 -32q97 -32 191 -93q50 27 100 39q51 12 106 12q136 0 220 -95q83 -93 83 -249q0 -27 -1 -40q-2 -26 -5 -40q-8 -49 -30 -102q-22 -50 -62 -125q-24 31 -40 53q-7 9 -38 51q-102 125 -194 215q-109 105 -217 189 q-71 -67 -105 -148q-33 -79 -33 -188q0 -12 2 -32q1 -10 1 -30l9 -57q5 -29 15 -63q-42 29 -67 80q-25 52 -25 104q0 96 42 184t130 170q-77 56 -136 85q-66 32 -128 44q-23 5 -43 6q-28 2 -43 2q-151 0 -253 -102t-102 -258q0 -236 207 -389q208 -154 525 -154 q249 0 463 124q215 125 358 347q83 132 154 298q76 178 135 376h-703h-72q-89 0 -125 -12t-61 -60q-2 -2 -4.5 -7l-3.5 -7t-8 -18l-37 8q5 13 14 34q4 9 10 25q2 0 2 1v1q3 8 10 25t9 23q3 8 8 21t13 34t14 37l3 5q3 5 5 13h1038q-15 -48 -52 -159q-4 -12 -40 -111l-8 -21 l-8 -20q-2 -5 -6 -13.5t-4 -9.5q-6 -14 -9 -22q-109 -259 -233 -443q-125 -186 -273 -309q-122 -96 -258 -159q-135 -62 -276 -85q-38 -6 -74 -9q-37 -3 -74 -3q-302 0 -497 168t-195 430zM1081 911q63 -46 118 -95q61 -55 116 -114q27 -29 86 -100q34 -41 88 -113 q8 23 16 57q7 28 8 50q3 15 3 16v17q0 128 -88 221q-87 92 -207 92q-36 0 -68 -7q-35 -7 -72 -24zM1556 1616q0 28 21 49q20 20 47 20q21 0 34 -13t13 -32q0 -28 -20 -48q-21 -21 -47 -21q-19 0 -33 13q-15 14 -15 32zM1737 1616q0 29 20 49t47 20q21 0 34 -13t13 -32 q0 -28 -20 -48q-21 -21 -47 -21q-19 0 -33 13t-14 32z" />
<glyph unicode="&#xd0;" horiz-adv-x="2269" d="M201 700q0 150 116 257q117 108 277 108q50 0 92 -16q40 -15 86 -50q37 -31 72 -71q37 -43 76 -103l12 -18q5 -6 6 -10q2 0 2 -1v-1q4 -6 12 -21q2 -3 37 -61q13 -22 25.5 -44t19.5 -34.5t10 -17.5q13 -22 13 -23l2 -3q0 -1 1.5 -3t2.5 -4q167 63 174 66q46 18 143 59 q22 10 34 15t34 13q50 23 98 46q28 14 107 51q20 10 66 32q8 4 24 11.5t24 11.5q4 0 5 1t4 3q7 1 14 5l14 7q0 -1 1 -3t1 -3q0 -2 2 -4v-7v-9q0 -39 -11 -79q-15 -54 -40 -128q-2 -9 -6 -20q-6 -16 -10 -27h221v-31h-231q-37 -107 -48 -140q-14 -43 -14 -63q0 -15 9 -22 q11 -9 30 -9q7 0 23 2q5 1 30 9l11 -35q-28 -12 -51 -20l-40 -13q-1 -1 -5 -3q-2 -1 -5 -1q-24 -7 -57 -18q-20 -6 -86 -29v7v5q0 2 1 3t1 3q0 9 3 21q6 24 11 49q7 32 26 86q5 15 13 38t21 62.5t22 67.5h-141v31h153q19 63 24 82q7 25 7 36q0 16 -8 27q-7 10 -23 10h-4h-2 h-3h-1q-4 0 -12 -3q-25 -10 -39 -17l-123 -55l-39 -19l-41 -18l-39 -19q-26 -13 -90 -37q-21 -8 -75.5 -27.5t-86.5 -31.5q54 -93 108 -172q51 -75 103 -131q83 -89 170 -130q84 -40 185 -40q153 0 291 87q141 89 225 236q30 51 50 101q23 57 38 102q15 52 25 113 q10 62 10 108q0 208 -146 319t-413 111q-45 0 -105 -3q-58 -3 -125 -9l-115 -10l-112 -12l-115 -11q-15 -1 -43 -3q-24 -1 -51 -3q-30 0 -46 -1t-42 -1q-35 0 -75 2q-26 1 -56 8l-30 9q-26 8 -32 10q2 7 15 54q2 6 3.5 13t3.5 15l3 12q2 8 3 13q2 10 3 14l6 35q2 11 6 28 t5 22l6 21l2 6v4l2 7l37 -7q-1 -2 -2.5 -6t-1.5 -5q-1 -3 -1 -11q-4 -18 -6 -36q0 -5 -0.5 -10t-1 -8t-0.5 -5q0 -31 37 -41q39 -11 139 -11q34 0 84 3q12 1 109 8l86 8l84 6l86 8q41 3 127 7q62 3 117 3q310 0 477 -125q166 -124 166 -362q0 -335 -246 -611t-547 -276 q-122 0 -224 46q-104 47 -175 134q-1 1 -10 13q-3 4 -11 12q0 1 -5 8q-2 3 -5 6q-36 49 -69 100q-45 71 -117 187q-160 -53 -262 -76q-108 -24 -181 -24q-145 0 -234 80t-89 208zM250 741q0 -118 91 -196q92 -78 230 -78q80 0 172 19q91 19 201 59q-12 19 -37 58t-34 55 q-25 42 -48 75q0 4 -2 6t-2 4l-12 17q-6 8 -12 18q-22 30 -40 52q-17 21 -40 44q-53 53 -109 80t-119 27q-95 0 -167 -72t-72 -168z" />
<glyph unicode="&#xd1;" horiz-adv-x="2486" d="M141 479q0 213 143 344t371 131q67 0 130 -12q62 -12 124 -39q60 -27 105 -56q56 -37 108 -79q29 -24 57 -40q19 -11 40 -11h4h6q11 1 30 11q15 8 52 30q1 0 8 5q2 1 6 3.5t6 3.5l19 -31q-7 -5 -19.5 -12.5t-17.5 -11.5q-23 -16 -29 -19q0 -2 -1 -2t-3 -2l-12 -8 q-2 -2 -7.5 -4.5t-7.5 -3.5l-30 -21q-13 -8 -28.5 -18.5t-19.5 -12.5q-11 -7 -16 -12q-3 -3 -6 -4t-12 -8q-100 103 -212 172q-108 66 -218 94q-38 11 -74 15q-33 4 -74 4q-158 0 -263 -97q-103 -96 -103 -247q0 -201 150 -331q149 -130 384 -130q172 0 318 98t247 275 q28 47 50 95q22 50 45 111q9 23 32 95q17 53 33 112q-81 70 -147 131q-48 45 -103 101q-14 16 -21 23q-8 8 -22 24q-1 3 -5 7l-5 5q-51 61 -78 105q-26 42 -26 63q0 15 15 53q14 35 42 88l47 93l35 -13q-22 -49 -29 -71q-8 -26 -8 -46q0 -39 33 -87q34 -50 127 -144 q57 -62 102 -105q57 -55 84 -79q18 75 53 124q33 46 88 74q-6 -22 -18 -60q-22 -67 -25 -79q-1 -2 -2.5 -6t-1.5 -5q-2 -6 -2 -9q-10 -36 -15 -52q-3 -10 -13 -47q29 -23 56 -47q29 -26 52 -41q8 -8 12 -11q1 -1 6.5 -5t8.5 -6q4 -3 28 -22q6 -5 31 -23q14 -12 72 -55 q6 -5 60.5 -44.5t94.5 -68.5q62 204 125 335q67 139 148 228q90 100 216 156q125 55 263 55h29q10 0 26 -2q21 -1 60 -7q22 -3 71 -16l-77 -262l-35 6q6 32 9 56q3 21 3 34q0 42 -43 61q-42 19 -139 19q-138 0 -247 -57q-108 -56 -181 -170q-65 -99 -110 -217 q-46 -119 -70 -250l21 -14l15 -11q63 -41 102 -68q26 -18 44 -38l5 -5q4 -4 5 -7l5 -5q3 -4 5 -8q21 -28 34 -62q11 -29 11 -69q0 -9 -2 -33q-1 -17 -6 -34q-15 -75 -55 -140t-88 -90q-4 -2 -20 -7q-9 -3 -19 -3q-72 0 -114 71t-42 191q0 60 6 117q6 55 17 111 q-29 21 -72.5 50.5t-56.5 38.5q-61 42 -90 64q-1 0 -2.5 1t-2.5 2t-2 1q-4 2 -6 4q-30 22 -86 67q-54 43 -116 91q-24 -75 -28 -86q-4 -10 -26 -72q-20 -52 -36 -85q-15 -30 -39 -74l-21 -33q-14 -22 -22 -33q-122 -176 -275 -287q-152 -110 -313 -139q-27 -4 -54 -6 q-36 -2 -55 -2q-222 0 -366 135t-144 346zM1823 1534q5 11 6 19q2 11 6 18q27 76 58 104q32 29 81 29q22 0 43 -4q20 -4 68 -17q37 -8 55 -12q20 -4 37 -4q33 0 52 15t30 49l22 -5q-27 -89 -60 -125q-35 -38 -89 -38h-3h-3h-5h-5q-12 0 -27 4l-70 16q-29 7 -56 12 q-23 4 -42 4q-20 0 -33 -5q-12 -4 -24 -21q-2 -2 -4.5 -7l-3.5 -7q-3 -5 -9 -19q0 -3 -1 -4l-3 -6zM1995 350q0 -138 27 -202t85 -64q42 0 69 37q28 39 28 94q0 23 -4 40q-4 15 -13 38q-18 37 -61 77q-41 38 -123 97q-1 -6 -2.5 -16t-1.5 -15q-2 -20 -2 -26q-2 -20 -2 -29 v-31z" />
<glyph unicode="&#xd2;" horiz-adv-x="512" />
<glyph unicode="&#xd3;" horiz-adv-x="1847" d="M190 543q0 218 131 397t375 295q155 75 341 115q183 39 380 39q69 0 96 -1q41 -2 80 -6q17 -4 44 -7q35 -4 49 -7l-91 -248q167 -49 244 -135q76 -85 76 -225q0 -315 -297 -546q-296 -230 -700 -230q-334 0 -531 150t-197 409zM328 559q0 -244 178 -388t479 -144 q339 0 566 205q229 206 229 511q0 126 -57 218q-57 91 -146 112q-117 -287 -323 -443q-207 -157 -463 -157l-86 2q-16 0 -24 -1t-22 -3q-7 -1 -23 -7q-4 -1 -8 -3l-10 -5l-10 -5l3 6q1 1 3 4v2q0 1 3 5.5t5 9.5q3 7 23 46q19 42 45 57q27 15 72 15l125 -2q249 0 392 111 q144 112 243 382q-6 1 -32.5 6.5t-38.5 7.5q-42 6 -62 7q-16 2 -23 2h-23q-218 0 -361 -101q-145 -103 -191 -284q-6 10 -9 14l-8 13q-5 12 -6 23q-2 16 -2 28q0 148 168 247t420 99h7h7q39 0 74 -4q15 -2 49.5 -5.5t46.5 -4.5l45 147q-86 12 -152 18q-92 8 -135 9h-16h-16 q-236 0 -419 -57q-185 -58 -294 -162q-100 -98 -160 -234q-58 -131 -63 -278v-10v-9zM1292 1475q15 139 78 226q63 88 174 116l53 -86q-92 -29 -171 -96q-78 -66 -134 -160z" />
<glyph unicode="&#xd4;" horiz-adv-x="1847" d="M190 543q0 218 131 397t375 295q155 75 341 115q183 39 380 39q69 0 96 -1q41 -2 80 -6q17 -4 44 -7q35 -4 49 -7l-91 -248q167 -49 244 -135q76 -85 76 -225q0 -315 -297 -546q-296 -230 -700 -230q-334 0 -531 150t-197 409zM328 559q0 -244 178 -388t479 -144 q339 0 566 205q229 206 229 511q0 126 -57 218q-57 91 -146 112q-117 -287 -323 -443q-207 -157 -463 -157l-86 2q-16 0 -24 -1t-22 -3q-7 -1 -23 -7q-4 -1 -8 -3l-10 -5l-10 -5l3 6q1 1 3 4v2q0 1 3 5.5t5 9.5q3 7 23 46q19 42 45 57q27 15 72 15l125 -2q249 0 392 111 q144 112 243 382q-6 1 -32.5 6.5t-38.5 7.5q-42 6 -62 7q-16 2 -23 2h-23q-218 0 -361 -101q-145 -103 -191 -284q-6 10 -9 14l-8 13q-5 12 -6 23q-2 16 -2 28q0 148 168 247t420 99h7h7q39 0 74 -4q15 -2 49.5 -5.5t46.5 -4.5l45 147q-86 12 -152 18q-92 8 -135 9h-16h-16 q-236 0 -419 -57q-185 -58 -294 -162q-100 -98 -160 -234q-58 -131 -63 -278v-10v-9zM1268 1516l3 3l1 1q1 0 3 1.5t5 4t6 4.5q18 13 64 51l28 25l29 24q45 40 93 93q59 64 110 128v-106v-37q0 -13 2 -29v-39q0 -10 2 -30q0 -17 1 -27q2 -20 3 -31l-2 -1q-2 -1 -2 -2 q-1 -1 -4 -3q-5 -2 -13 -8q-4 -3 -38 -27q-3 -1 -9 -5q-5 -3 -6 -7q-3 -3 -5 -4t-5 -4l-8 -8l-8 -8q0 8 1 11t1 9v15v20q0 81 -4 102q-5 25 -21 25h-4h-4q-8 -1 -22 -16l-54 -54q-39 -40 -61 -58q-23 -19 -43 -20q-2 -2 -6 -2h-7h-7q-3 0 -5 2q-3 0 -7 2q-1 0 -3 2t-4 3z " />
<glyph unicode="&#xd5;" horiz-adv-x="1847" d="M190 543q0 218 131 397t375 295q155 75 341 115q183 39 380 39q69 0 96 -1q41 -2 80 -6q17 -4 44 -7q35 -4 49 -7l-91 -248q167 -49 244 -135q76 -85 76 -225q0 -315 -297 -546q-296 -230 -700 -230q-334 0 -531 150t-197 409zM328 559q0 -244 178 -388t479 -144 q339 0 566 205q229 206 229 511q0 126 -57 218q-57 91 -146 112q-117 -287 -323 -443q-207 -157 -463 -157l-86 2q-16 0 -24 -1t-22 -3q-7 -1 -23 -7q-4 -1 -8 -3l-10 -5l-10 -5l3 6q1 1 3 4v2q0 1 3 5.5t5 9.5q3 7 23 46q19 42 45 57q27 15 72 15l125 -2q249 0 392 111 q144 112 243 382q-6 1 -32.5 6.5t-38.5 7.5q-42 6 -62 7q-16 2 -23 2h-23q-218 0 -361 -101q-145 -103 -191 -284q-6 10 -9 14l-8 13q-5 12 -6 23q-2 16 -2 28q0 148 168 247t420 99h7h7q39 0 74 -4q15 -2 49.5 -5.5t46.5 -4.5l45 147q-86 12 -152 18q-92 8 -135 9h-16h-16 q-236 0 -419 -57q-185 -58 -294 -162q-100 -98 -160 -234q-58 -131 -63 -278v-10v-9zM1272 1534q5 11 6 19q2 11 6 18q27 76 58 104q32 29 81 29q22 0 43 -4q20 -4 68 -17q37 -8 55 -12q20 -4 37 -4q33 0 52 15t30 49l23 -5q-27 -88 -61 -125q-35 -38 -89 -38h-3h-3h-5h-5 q-12 0 -27 4q-5 1 -14 3t-26 6t-30 7q-29 7 -56 12q-23 4 -42 4q-20 0 -33 -5q-12 -4 -24 -21q-2 -2 -4.5 -7l-3.5 -7q-3 -5 -9 -19q0 -3 -1 -4l-3 -6z" />
<glyph unicode="&#xd6;" horiz-adv-x="1847" d="M190 543q0 218 131 397t375 295q155 75 341 115q183 39 380 39q69 0 96 -1q41 -2 80 -6q17 -4 44 -7q35 -4 49 -7l-91 -248q167 -49 244 -135q76 -85 76 -225q0 -315 -297 -546q-296 -230 -700 -230q-334 0 -531 150t-197 409zM328 559q0 -244 178 -388t479 -144 q339 0 566 205q229 206 229 511q0 126 -57 218q-57 91 -146 112q-117 -287 -323 -443q-207 -157 -463 -157l-86 2q-16 0 -24 -1t-22 -3q-7 -1 -23 -7q-4 -1 -8 -3l-10 -5l-10 -5l3 6q1 1 3 4v2q0 1 3 5.5t5 9.5q3 7 23 46q19 42 45 57q27 15 72 15l125 -2q249 0 392 111 q144 112 243 382q-6 1 -32.5 6.5t-38.5 7.5q-42 6 -62 7q-16 2 -23 2h-23q-218 0 -361 -101q-145 -103 -191 -284q-6 10 -9 14l-8 13q-5 12 -6 23q-2 16 -2 28q0 148 168 247t420 99h7h7q39 0 74 -4q15 -2 49.5 -5.5t46.5 -4.5l45 147q-86 12 -152 18q-92 8 -135 9h-16h-16 q-236 0 -419 -57q-185 -58 -294 -162q-100 -98 -160 -234q-58 -131 -63 -278v-10v-9zM1151 1616q0 29 20 49t48 20q20 0 33 -13q14 -14 14 -32q0 -27 -21 -48t-47 -21q-19 0 -33 13t-14 32zM1360 1616q0 29 20 49t47 20q21 0 34 -13q14 -14 14 -32q0 -27 -21 -48t-47 -21 q-19 0 -33 13t-14 32z" />
<glyph unicode="&#xd7;" d="M209 383l285 207l-136 227l45 33l136 -225l286 209l23 -41l-285 -209l135 -228l-45 -32l-135 227l-287 -211z" />
<glyph unicode="&#xd8;" horiz-adv-x="1847" d="M190 557q0 358 357 595t893 237h16h12q6 0 8 -1q4 -2 7 -2l104 170h39l-106 -170q17 -1 35 -3l30 -3q16 0 24 -1q4 -1 11.5 -2t11.5 -1l25 -4q3 0 11.5 -1.5t14.5 -2.5l-88 -248q167 -50 243 -135q77 -86 77 -225q0 -314 -296 -545q-295 -231 -695 -231q-59 0 -122 6 t-132 18l-97 -155h-34l100 163q-224 60 -336 196q-113 137 -113 345zM328 561q0 -177 88 -296t262 -185l250 405q-16 -5 -30 -6q-18 -2 -28 -2q-22 -2 -35 -3t-44 -1l-86 2q-16 0 -24 -1t-22 -3q-7 -1 -23 -7q-4 -1 -8 -3l-10 -5l-10 -5l3 6q1 1 1 4l9 16q9 16 24 47 q19 42 45 57q27 15 72 15l125 -2h26q9 0 25 2q18 0 28 1q15 1 33 3l312 510q-204 -7 -340 -109q-135 -101 -180 -276q-6 10 -9 14l-8 13q-5 12 -6 23q-2 16 -2 28q0 145 161 244q158 97 408 102l95 151q-62 6 -82 7q-50 2 -72 2h-6h-8q-235 0 -418 -57q-184 -57 -293 -162 q-104 -99 -164 -241q-59 -139 -59 -288zM709 70q56 -17 75 -21q57 -11 72 -14q33 -4 65 -6q42 -2 64 -2q339 0 566 206q229 208 229 510q0 126 -57 218q-57 91 -146 112q-94 -232 -248 -379q-152 -144 -360 -200zM1038 606q171 23 285 137q115 115 199 344q-10 2 -28.5 6 t-26.5 6q-33 6 -46 7q-4 0 -10.5 1t-12 1.5t-10.5 0.5q-12 1 -38 1zM1374 1149h11h12q13 -1 58 -5q34 -3 83 -9l45 147q-10 2 -14 3t-13 1h-1h-3q-2 0 -7 1l-10 2t-10 1q-8 1 -61 8z" />
<glyph unicode="&#xd9;" horiz-adv-x="2529" d="M199 664q0 183 119 333q120 151 344 252l54 24q24 11 54 19q117 42 237 58q121 16 291 16q52 0 75 -1q38 -2 65 -3q18 0 28 -1q20 -2 31 -3q-17 -86 -71 -248q-65 -197 -117 -334q-27 -70 -31 -80q-22 -54 -33 -80l-75 -185q-29 -72 -37 -95q-22 -58 -36 -105 q-12 -41 -12 -69q0 -41 29 -68q27 -26 74 -26q62 0 142 35q84 36 226 124q84 50 132 83q59 40 94 69q3 7 7 19q3 11 5 18q3 7 7 19q4 11 5 20q7 21 29 98q6 20 18 67t17 64q8 30 12 44t10 42q56 193 120 311q63 117 157 205q28 24 43 36t45 32q44 26 88 43q42 16 76 16 q47 0 74 -34q28 -36 28 -93q0 -98 -60 -222q-58 -120 -182 -267l-42 -49q-26 -30 -39 -43q-5 -7 -19 -21q-13 -13 -18 -20q-54 -54 -105 -101q-65 -60 -145 -129q-3 -9 -9.5 -27t-8.5 -23q-12 -34 -19 -52q-31 -75 -44 -102q-32 -66 -50 -97h33h43q50 -1 84 -3q34 -1 49 -3 q48 -2 83 -3q25 -1 50 -1q150 0 253 115q101 113 101 286v27q0 9 -2 37q24 -21 36 -45q11 -22 11 -64q0 -15 -1 -23l-3 -24q-22 -140 -152 -261q-129 -120 -280 -144q-5 -1 -14.5 -2t-14.5 -1q-10 -1 -28 -1q-27 0 -60 3q-44 4 -69 5q-10 1 -134 14q-45 5 -75 6h-14h-15 q7 13 11 25q6 16 9 26q10 20 12 26q6 18 9 26q18 46 33 90q15 42 22 69q-3 -1 -6 -4q-2 -2 -4 -2q-2 -2 -10 -8l-12 -9q-21 -17 -80 -57q-11 -8 -55 -34q-58 -35 -62 -37t-19 -11t-24 -14q-15 -8 -45 -22q-46 -24 -69 -34q-5 -2 -28.5 -12.5t-35.5 -15.5q-56 -24 -110 -38 q-43 -11 -87 -11q-71 0 -114 37q-44 38 -44 94q0 37 12 81q16 56 38 120q0 1 5 13q4 9 5 16q0 1 5 13q4 10 5 15l37 88l35 90l35 91q2 5 7.5 20t8.5 23q7 23 18 45q2 6 11 29l12 30q18 51 52 147q23 64 40 123q15 49 24 80q7 25 7 49v4v5q0 49 -45 71q-46 23 -144 23 q-368 0 -606 -203q-237 -202 -237 -520v-9v-10q1 -19 7 -70q5 -42 15 -96q-52 44 -77 108q-25 63 -25 153zM1706 1731l51 86q110 -28 175 -116q64 -86 79 -226q-56 95 -135 160q-81 67 -170 96zM1937 508q103 82 181 167q86 94 147 185q73 107 117 212q43 102 43 185 q0 47 -17 72t-47 25q-34 0 -77 -37q-41 -35 -86 -107q-16 -24 -32 -52q-20 -36 -32 -60q-5 -9 -10 -22q-4 -10 -10 -21q-4 -12 -11 -25q-4 -8 -10 -24q-22 -54 -59 -173q-41 -132 -97 -325z" />
<glyph unicode="&#xda;" horiz-adv-x="2529" d="M199 664q0 183 119 333q120 151 344 252l54 24q24 11 54 19q117 42 237 58q121 16 291 16q52 0 75 -1q38 -2 65 -3q18 0 28 -1q20 -2 31 -3q-17 -86 -71 -248q-65 -197 -117 -334q-27 -70 -31 -80q-22 -54 -33 -80l-75 -185q-29 -72 -37 -95q-22 -58 -36 -105 q-12 -41 -12 -69q0 -41 29 -68q27 -26 74 -26q62 0 142 35q84 36 226 124q84 50 132 83q59 40 94 69q3 7 7 19q3 11 5 18q3 7 7 19q4 11 5 20q7 21 29 98q6 20 18 67t17 64q8 30 12 44t10 42q56 193 120 311q63 117 157 205q28 24 43 36t45 32q44 26 88 43q42 16 76 16 q47 0 74 -34q28 -36 28 -93q0 -98 -60 -222q-58 -120 -182 -267l-42 -49q-26 -30 -39 -43q-5 -7 -19 -21q-13 -13 -18 -20q-54 -54 -105 -101q-65 -60 -145 -129q-3 -9 -9.5 -27t-8.5 -23q-12 -34 -19 -52q-31 -75 -44 -102q-32 -66 -50 -97h33h43q50 -1 84 -3q34 -1 49 -3 q48 -2 83 -3q25 -1 50 -1q150 0 253 115q101 113 101 286v27q0 9 -2 37q24 -21 36 -45q11 -22 11 -64q0 -15 -1 -23l-3 -24q-22 -140 -152 -261q-129 -120 -280 -144q-5 -1 -14.5 -2t-14.5 -1q-10 -1 -28 -1q-27 0 -60 3q-44 4 -69 5q-10 1 -134 14q-45 5 -75 6h-14h-15 q7 13 11 25q6 16 9 26q10 20 12 26q6 18 9 26q18 46 33 90q15 42 22 69q-3 -1 -6 -4q-2 -2 -4 -2q-2 -2 -10 -8l-12 -9q-21 -17 -80 -57q-11 -8 -55 -34q-58 -35 -62 -37t-19 -11t-24 -14q-15 -8 -45 -22q-46 -24 -69 -34q-5 -2 -28.5 -12.5t-35.5 -15.5q-56 -24 -110 -38 q-43 -11 -87 -11q-71 0 -114 37q-44 38 -44 94q0 37 12 81q16 56 38 120q0 1 5 13q4 9 5 16q0 1 5 13q4 10 5 15l37 88l35 90l35 91q2 5 7.5 20t8.5 23q7 23 18 45q2 6 11 29l12 30q18 51 52 147q23 64 40 123q15 49 24 80q7 25 7 49v4v5q0 49 -45 71q-46 23 -144 23 q-368 0 -606 -203q-237 -202 -237 -520v-9v-10q1 -19 7 -70q5 -42 15 -96q-52 44 -77 108q-25 63 -25 153zM1704 1475q15 139 78 226q63 88 174 116l53 -86q-92 -29 -171 -96q-78 -66 -134 -160zM1937 508q103 82 181 167q86 94 147 185q73 107 117 212q43 102 43 185 q0 47 -17 72t-47 25q-34 0 -77 -37q-41 -35 -86 -107q-16 -24 -32 -52q-20 -36 -32 -60q-5 -9 -10 -22q-4 -10 -10 -21q-4 -12 -11 -25q-4 -8 -10 -24q-22 -54 -59 -173q-41 -132 -97 -325z" />
<glyph unicode="&#xdb;" horiz-adv-x="2529" d="M199 664q0 183 119 333q120 151 344 252l54 24q24 11 54 19q117 42 237 58q121 16 291 16q52 0 75 -1q38 -2 65 -3q18 0 28 -1q20 -2 31 -3q-17 -86 -71 -248q-65 -197 -117 -334q-27 -70 -31 -80q-22 -54 -33 -80l-75 -185q-29 -72 -37 -95q-22 -58 -36 -105 q-12 -41 -12 -69q0 -41 29 -68q27 -26 74 -26q62 0 142 35q84 36 226 124q84 50 132 83q59 40 94 69q3 7 7 19q3 11 5 18q3 7 7 19q4 11 5 20q7 21 29 98q6 20 18 67t17 64q8 30 12 44t10 42q56 193 120 311q63 117 157 205q28 24 43 36t45 32q44 26 88 43q42 16 76 16 q47 0 74 -34q28 -36 28 -93q0 -98 -60 -222q-58 -120 -182 -267l-42 -49q-26 -30 -39 -43q-5 -7 -19 -21q-13 -13 -18 -20q-54 -54 -105 -101q-65 -60 -145 -129q-3 -9 -9.5 -27t-8.5 -23q-12 -34 -19 -52q-31 -75 -44 -102q-32 -66 -50 -97h33h43q50 -1 84 -3q34 -1 49 -3 q48 -2 83 -3q25 -1 50 -1q150 0 253 115q101 113 101 286v27q0 9 -2 37q24 -21 36 -45q11 -22 11 -64q0 -15 -1 -23l-3 -24q-22 -140 -152 -261q-129 -120 -280 -144q-5 -1 -14.5 -2t-14.5 -1q-10 -1 -28 -1q-27 0 -60 3q-44 4 -69 5q-10 1 -134 14q-45 5 -75 6h-14h-15 q7 13 11 25q6 16 9 26q10 20 12 26q6 18 9 26q18 46 33 90q15 42 22 69q-3 -1 -6 -4q-2 -2 -4 -2q-2 -2 -10 -8l-12 -9q-21 -17 -80 -57q-11 -8 -55 -34q-58 -35 -62 -37t-19 -11t-24 -14q-15 -8 -45 -22q-46 -24 -69 -34q-5 -2 -28.5 -12.5t-35.5 -15.5q-56 -24 -110 -38 q-43 -11 -87 -11q-71 0 -114 37q-44 38 -44 94q0 37 12 81q16 56 38 120q0 1 5 13q4 9 5 16q0 1 5 13q4 10 5 15l37 88l35 90l35 91q2 5 7.5 20t8.5 23q7 23 18 45q2 6 11 29l12 30q18 51 52 147q23 64 40 123q15 49 24 80q7 25 7 49v4v5q0 49 -45 71q-46 23 -144 23 q-368 0 -606 -203q-237 -202 -237 -520v-9v-10q1 -19 7 -70q5 -42 15 -96q-52 44 -77 108q-25 63 -25 153zM1679 1516l3 3l1 1q2 1 15 10q10 8 63 51l29 25l29 24q45 40 93 93q51 55 109 128v-106v-37q0 -13 2 -29v-39q0 -10 2 -30q0 -7 2 -27t3 -31l-2 -1q-2 -1 -3 -2 t-4 -3q-3 -1 -12 -8q-2 -2 -7 -5.5t-14.5 -9.5t-17.5 -12q-1 0 -8 -5q-5 -3 -6 -7q-3 -3 -5 -4t-5 -4l-9 -8l-8 -8q0 8 1 11t1 9v15v20q0 81 -4 102q-5 25 -20 25h-4h-4q-7 -1 -22 -16l-54 -54q-35 -37 -62 -58q-23 -19 -43 -20q-2 -2 -5 -2h-7h-7q-3 0 -5 2q-3 0 -7 2 q-1 0 -3.5 2t-4.5 3zM1937 508q103 82 181 167q86 94 147 185q73 107 117 212q43 102 43 185q0 47 -17 72t-47 25q-34 0 -77 -37q-41 -35 -86 -107q-16 -24 -32 -52q-20 -36 -32 -60q-5 -9 -10 -22q-4 -10 -10 -21q-4 -12 -11 -25q-4 -8 -10 -24q-22 -54 -59 -173 q-41 -132 -97 -325z" />
<glyph unicode="&#xdc;" horiz-adv-x="2529" d="M199 664q0 183 119 333q120 151 344 252l54 24q24 11 54 19q117 42 237 58q121 16 291 16q52 0 75 -1q38 -2 65 -3q18 0 28 -1q20 -2 31 -3q-17 -86 -71 -248q-65 -197 -117 -334q-27 -70 -31 -80q-22 -54 -33 -80l-75 -185q-29 -72 -37 -95q-22 -58 -36 -105 q-12 -41 -12 -69q0 -41 29 -68q27 -26 74 -26q62 0 142 35q84 36 226 124q84 50 132 83q59 40 94 69q3 7 7 19q3 11 5 18q3 7 7 19q4 11 5 20q7 21 29 98q6 20 18 67t17 64q8 30 12 44t10 42q56 193 120 311q63 117 157 205q28 24 43 36t45 32q44 26 88 43q42 16 76 16 q47 0 74 -34q28 -36 28 -93q0 -98 -60 -222q-58 -120 -182 -267l-42 -49q-26 -30 -39 -43q-5 -7 -19 -21q-13 -13 -18 -20q-54 -54 -105 -101q-65 -60 -145 -129q-3 -9 -9.5 -27t-8.5 -23q-12 -34 -19 -52q-31 -75 -44 -102q-32 -66 -50 -97h33h43q50 -1 84 -3q34 -1 49 -3 q48 -2 83 -3q25 -1 50 -1q150 0 253 115q101 113 101 286v27q0 9 -2 37q24 -21 36 -45q11 -22 11 -64q0 -15 -1 -23l-3 -24q-22 -140 -152 -261q-129 -120 -280 -144q-5 -1 -14.5 -2t-14.5 -1q-10 -1 -28 -1q-27 0 -60 3q-44 4 -69 5q-10 1 -134 14q-45 5 -75 6h-14h-15 q7 13 11 25q6 16 9 26q10 20 12 26q6 18 9 26q18 46 33 90q15 42 22 69q-3 -1 -6 -4q-2 -2 -4 -2q-2 -2 -10 -8l-12 -9q-21 -17 -80 -57q-11 -8 -55 -34q-58 -35 -62 -37t-19 -11t-24 -14q-15 -8 -45 -22q-46 -24 -69 -34q-5 -2 -28.5 -12.5t-35.5 -15.5q-56 -24 -110 -38 q-43 -11 -87 -11q-71 0 -114 37q-44 38 -44 94q0 37 12 81q16 56 38 120q0 1 5 13q4 9 5 16q0 1 5 13q4 10 5 15l37 88l35 90l35 91q2 5 7.5 20t8.5 23q7 23 18 45q2 6 11 29l12 30q18 51 52 147q23 64 40 123q15 49 24 80q7 25 7 49v4v5q0 49 -45 71q-46 23 -144 23 q-368 0 -606 -203q-237 -202 -237 -520v-9v-10q1 -19 7 -70q5 -42 15 -96q-52 44 -77 108q-25 63 -25 153zM1733 1616q0 29 20 49t47 20q21 0 34 -13t13 -32q0 -28 -20 -48q-21 -21 -47 -21q-19 0 -33 13t-14 32zM1937 508q103 82 181 167q86 94 147 185q73 107 117 212 q43 102 43 185q0 47 -17 72t-47 25q-34 0 -77 -37q-41 -35 -86 -107q-16 -24 -32 -52q-20 -36 -32 -60q-5 -9 -10 -22q-4 -10 -10 -21q-4 -12 -11 -25q-4 -8 -10 -24q-22 -54 -59 -173q-41 -132 -97 -325zM1942 1616q0 29 20 49t47 20q21 0 34 -13t13 -32q0 -28 -20 -48 q-21 -21 -47 -21q-19 0 -33 13t-14 32z" />
<glyph unicode="&#xdd;" horiz-adv-x="512" />
<glyph unicode="&#xde;" horiz-adv-x="1918" d="M297 1034l98 281l35 -10q-15 -55 -17 -66q-7 -31 -7 -35v-5v-5q0 -42 43 -60t143 -18q86 0 204 6q65 3 285 19q131 11 190 15q88 6 111 7q14 0 21 1t20 1q6 7 11 16q4 7 6 9q33 49 48 82q13 29 13 53v5v5q-1 1 -2.5 5t-1.5 5q-2 5 -6 11h7h5h17q3 0 9 0.5t16.5 1 t19.5 0.5h1h3q3 0 4 1t4 1q15 0 24 1q25 3 37 5l-3 -3l-3 -3q-25 -32 -36 -47q-29 -41 -54 -76q-2 -3 -5.5 -8t-4.5 -6l-8 -13q-4 -5 -14 -17q-2 -2 -17 -26q36 2 44 2h34h9h9q207 0 305 -65q99 -66 99 -203q0 -34 -8 -77q-7 -36 -25 -81q-21 -54 -64 -120q-41 -62 -88 -107 q-77 -77 -162 -112t-190 -35q-70 0 -122 15t-103 54q-33 29 -73 75q-34 40 -83 108l-305 -408q79 53 142 77q68 26 132 32h14h15h25q1 0 22 -3q58 -5 101 -18q55 -16 127 -43l14 -6q6 -2 8 -2q3 -3 22 -10q9 -4 76 -33l62 -25l61 -26q41 -17 69 -26q27 -9 42 -9q21 0 51 21 t64 61q8 8 12 13l12 15l29 -18q0 -1 -1 -2.5t-2 -2.5t-1 -2q-1 -2 -4 -5q-7 -7 -10 -12q-5 -8 -19 -25q-28 -35 -33 -43q-10 -16 -14 -21l-16 -20l-33 -45q-5 -8 -11.5 -17.5t-6.5 -10.5q-5 -7 -9 -9l-5 -5q-1 -1 -7 -9q-12 4 -29 7q-18 4 -27 7q-33 9 -75 27q-39 17 -99 45 q-162 77 -266 113q-99 34 -186 40q-16 2 -26 2h-25q-87 0 -153 -30q-65 -29 -130 -101q-16 -18 -33 -39t-33 -45l-28 21l739 1005l-47 -2l-45 -4q-108 -6 -144 -9q-13 -1 -32 -3t-23 -2h-3h-1q-6 0 -28 -2q-35 -3 -56 -4q-14 0 -22 -1q-16 -2 -23 -3h-4h-4q-78 -7 -97 -8 l-44 -3q-11 -1 -31 -2.5t-28 -1.5q-36 -2 -52 -2q-30 -2 -44 -2h-46q-104 0 -160 11q-61 12 -96 36zM1165 739q5 -5 6 -7q0 -1 2 -3q1 -1 1 -2q8 -14 14 -22q3 -4 9 -13.5t17 -26t21 -32.5q68 -103 143 -151q79 -50 170 -50q70 0 131 35q60 35 113 104q26 33 43 65 q21 40 31 69q12 34 18 66q6 34 6 65q0 108 -76 159q-78 52 -237 52q-35 0 -67 -1q-46 -1 -113 -6l-4 -4l-9 -12q-9 -11 -33 -42.5t-34 -44.5q-45 -58 -51 -65l-1 -1q-1 -1 -1 -3q-28 -36 -43 -56q-8 -10 -26.5 -34.5t-29.5 -38.5z" />
<glyph unicode="&#xdf;" horiz-adv-x="751" d="M-516 -457q22 -7 50 -12q24 -4 58 -4q94 0 165 52q74 54 141 177q44 82 87 195q43 110 93 266l131 399q33 109 44 142q10 30 11 35q2 1 3 6q3 10 5 14q62 168 153 280q87 107 230 191q70 41 133 62q60 20 115 20q30 0 45 -6t15 -19q0 -4 -1 -7q0 -1 -1.5 -5t-2.5 -6 l-4 -12q-2 -8 -2 -11l-4 -12l-4 -12l-43 -146h-33q8 41 9 53q2 28 2 36q0 30 -20 44q-19 13 -62 13q-19 0 -28 -1q-18 -2 -28 -5q-67 -12 -128 -53q-58 -39 -97 -97q0 -1 -1 -2.5t-2 -2.5t-1 -2q-1 -2 -4 -5q-35 -56 -77 -160q-36 -89 -101 -286q17 23 26 35q16 20 23 28 q21 20 43 34q21 13 55 25l18 6q12 4 19 7q3 1 8 2.5t6 1.5l13 4q24 11 34 20q13 12 23 31l4 8q0 1 1.5 4.5t2.5 5.5q1 1 3 7q1 1 2 3.5t1 4.5q6 0 8 -1t7 -1q20 -2 29 -2h38h58q0 -1 -1 -2l-2 -2l-4 -4v-3q-1 -6 -6 -15q-4 -8 -12 -32l-13 -40q-1 -3 -3 -7.5t-2 -5.5 q0 -3 -1 -4t-1 -4q-18 1 -35 3q-5 1 -14.5 2t-14.5 1h-9h-11q-111 0 -181 -44q-69 -44 -69 -114q0 -14 3 -27t11 -26q6 -13 20 -28q11 -13 27 -27l4 -4l2 -1q2 -2 2 -3q1 0 14 -9q32 -21 50 -34l43 -31l45 -31q33 -23 58 -62q23 -36 28 -77v-7v-7v-6v-7q-6 -91 -95 -168 q-87 -75 -196 -75q-63 0 -100 27t-37 77q0 16 1 23q2 13 5 18q0 5 2 11q0 2 2 5t2 4l8 -12q3 -4 9 -10q33 -42 71 -60t90 -18q69 0 119 35q49 34 49 86q0 10 -1 15q-2 11 -5 16q-7 20 -31 46q-21 22 -61 50q-90 63 -135 102q-47 41 -64 72q-2 6 -10 32q-4 13 -4 32v26 l-178 -565h-19q0 2 -1 2h-1q-12 0 -28 -2q-11 -1 -23 -10q-13 -13 -32 -56q-5 -11 -23.5 -54t-32.5 -75q-49 -116 -117 -202t-139 -129q-32 -20 -57 -28q-28 -9 -58 -9q-47 0 -75 28q-29 29 -29 72z" />
<glyph unicode="&#xe0;" horiz-adv-x="768" d="M-20 90q0 37 7 72q8 39 19 71q69 188 278 355q207 165 443 221q40 9 90 16q45 6 90 6q17 0 25 -6t8 -18q0 -7 -6 -25q-7 -22 -16 -37q0 -1 -3 -7q0 -1 -1.5 -3t-2.5 -4q-15 3 -51 7q-32 4 -47 5h-16h-17q-140 0 -249 -42t-212 -134q-15 -12 -16 -13q-3 -2 -8.5 -7 t-7.5 -8q-53 -51 -89 -102q-39 -55 -65 -105q-20 -42 -31 -86q-10 -41 -10 -84q0 -37 17 -59q17 -21 43 -21q34 0 84 37q54 40 104 94q37 38 83 98q40 52 71 109q24 44 33 62q20 40 28 59q12 29 26 74q6 18 21 81q22 -15 33 -36q10 -20 10 -60q0 -51 -23 -103 q-25 -56 -75 -118q13 0 19 1q2 0 6 1t7 1.5t5 0.5q7 1 32 7q15 4 50 16q-2 -6 -3 -8l-1 -2q-2 -3 -3 -5q-9 -21 -11 -25q-3 -5 -25 -63q-42 -96 -50 -118q-10 -29 -10 -46q0 -9 8 -19q7 -9 19 -7q13 1 34 11q14 6 56 30l18 -27q-54 -41 -126 -70q-81 -32 -162 -53 q5 54 33 137q30 89 85 209q-38 -48 -71 -81q-41 -41 -76 -72q-100 -94 -186 -144q-91 -53 -148 -53q-32 0 -50 24q-17 23 -17 66zM481 1116l29 86q102 -27 179 -122q76 -93 97 -220q-58 97 -135 161q-79 65 -170 95z" />
<glyph unicode="&#xe1;" horiz-adv-x="768" d="M-20 90q0 37 7 72q8 39 19 71q69 188 278 355q207 165 443 221q40 9 90 16q45 6 90 6q17 0 25 -6t8 -18q0 -7 -6 -25q-7 -22 -16 -37q0 -1 -3 -7q0 -1 -1.5 -3t-2.5 -4q-15 3 -51 7q-32 4 -47 5h-16h-17q-140 0 -249 -42t-212 -134q-15 -12 -16 -13q-3 -2 -8.5 -7 t-7.5 -8q-53 -51 -89 -102q-39 -55 -65 -105q-20 -42 -31 -86q-10 -41 -10 -84q0 -37 17 -59q17 -21 43 -21q34 0 84 37q54 40 104 94q37 38 83 98q40 52 71 109q24 44 33 62q20 40 28 59q12 29 26 74q6 18 21 81q22 -15 33 -36q10 -20 10 -60q0 -51 -23 -103 q-25 -56 -75 -118q13 0 19 1q2 0 6 1t7 1.5t5 0.5q7 1 32 7q15 4 50 16q-2 -6 -3 -8l-1 -2q-2 -3 -3 -5q-9 -21 -11 -25q-3 -5 -25 -63q-42 -96 -50 -118q-10 -29 -10 -46q0 -9 8 -19q7 -9 19 -7q13 1 34 11q14 6 56 30l18 -27q-54 -41 -126 -70q-81 -32 -162 -53 q5 54 33 137q30 89 85 209q-38 -48 -71 -81q-41 -41 -76 -72q-100 -94 -186 -144q-91 -53 -148 -53q-32 0 -50 24q-17 23 -17 66zM569 860q22 137 86 227q62 88 164 115l39 -86q-88 -30 -161 -95q-72 -65 -128 -161z" />
<glyph unicode="&#xe2;" horiz-adv-x="768" d="M-20 90q0 37 7 72q8 39 19 71q69 188 278 355q207 165 443 221q40 9 90 16q45 6 90 6q17 0 25 -6t8 -18q0 -7 -6 -25q-7 -22 -16 -37q0 -1 -3 -7q0 -1 -1.5 -3t-2.5 -4q-15 3 -51 7q-32 4 -47 5h-16h-17q-140 0 -249 -42t-212 -134q-15 -12 -16 -13q-3 -2 -8.5 -7 t-7.5 -8q-53 -51 -89 -102q-39 -55 -65 -105q-20 -42 -31 -86q-10 -41 -10 -84q0 -37 17 -59q17 -21 43 -21q34 0 84 37q54 40 104 94q37 38 83 98q40 52 71 109q24 44 33 62q20 40 28 59q12 29 26 74q6 18 21 81q22 -15 33 -36q10 -20 10 -60q0 -51 -23 -103 q-25 -56 -75 -118q13 0 19 1q2 0 6 1t7 1.5t5 0.5q7 1 32 7q15 4 50 16q-2 -6 -3 -8l-1 -2q-2 -3 -3 -5q-9 -21 -11 -25q-3 -5 -25 -63q-42 -96 -50 -118q-10 -29 -10 -46q0 -9 8 -19q7 -9 19 -7q13 1 34 11q14 6 56 30l18 -27q-54 -41 -126 -70q-81 -32 -162 -53 q5 54 33 137q30 89 85 209q-38 -48 -71 -81q-41 -41 -76 -72q-100 -94 -186 -144q-91 -53 -148 -53q-32 0 -50 24q-17 23 -17 66zM455 913l3 3l1 1l1 1l2 2t2 2.5t3 3t4 3.5q3 3 10.5 9t22 18.5t28.5 24.5q6 4 20 16q3 2 6 5t6 6.5t5 5.5q59 55 97 99q48 56 112 136l2 -6v-5 v-3v-5v-18v-24v-43v-36q0 -10 2 -30v-37q0 -10 2 -32q0 -17 1 -27q2 -20 3 -31q-1 -1 -4 -3q-1 -1 -4 -3q-3 -1 -12 -8q-2 -2 -14 -11.5t-23 -17.5q-3 -3 -9 -7t-7 -7q-3 -1 -7 -5t-8 -5q-3 -3 -4 -5q-2 -4 -4 -6q0 9 1 12t1 11v14v19q0 81 -4 102q-5 25 -18 25h-4h-4 q-8 -1 -22 -16l-50 -54q-37 -40 -58 -58q-22 -18 -40 -20q-6 -2 -8 -2h-7h-7q-3 0 -5 2q-3 0 -5 1q-4 2 -7 3z" />
<glyph unicode="&#xe3;" horiz-adv-x="768" d="M-20 90q0 37 7 72q8 39 19 71q69 188 278 355q207 165 443 221q40 9 90 16q45 6 90 6q17 0 25 -6t8 -18q0 -7 -6 -25q-7 -22 -16 -37q0 -1 -3 -7q0 -1 -1.5 -3t-2.5 -4q-15 3 -51 7q-32 4 -47 5h-16h-17q-140 0 -249 -42t-212 -134q-15 -12 -16 -13q-3 -2 -8.5 -7 t-7.5 -8q-53 -51 -89 -102q-39 -55 -65 -105q-20 -42 -31 -86q-10 -41 -10 -84q0 -37 17 -59q17 -21 43 -21q34 0 84 37q54 40 104 94q37 38 83 98q40 52 71 109q24 44 33 62q20 40 28 59q12 29 26 74q6 18 21 81q22 -15 33 -36q10 -20 10 -60q0 -51 -23 -103 q-25 -56 -75 -118q13 0 19 1q2 0 6 1t7 1.5t5 0.5q7 1 32 7q15 4 50 16q-2 -6 -3 -8l-1 -2q-2 -3 -3 -5q-9 -21 -11 -25q-3 -5 -25 -63q-42 -96 -50 -118q-10 -29 -10 -46q0 -9 8 -19q7 -9 19 -7q13 1 34 11q14 6 56 30l18 -27q-54 -41 -126 -70q-81 -32 -162 -53 q5 54 33 137q30 89 85 209q-38 -48 -71 -81q-41 -41 -76 -72q-100 -94 -186 -144q-91 -53 -148 -53q-32 0 -50 24q-17 23 -17 66zM457 932q5 19 12 37l12 30q21 50 45 68t64 18q16 0 39 -3q25 -3 61 -13q32 -8 50 -11q21 -3 34 -3q24 0 39 9q13 8 29 30q0 3 1 5q2 4 3 5 l20 -2q-1 -7 -5 -16q-4 -10 -5 -15q-22 -65 -50 -91t-75 -26h-3h-1h-5h-3q-9 0 -24 3l-62 16q-13 3 -51 10q-21 4 -37 4q-21 0 -33 -6t-23 -25q0 -1 -5 -8q-4 -6 -5 -10l-1 -1q-1 -1 -1 -3t-1 -3t-1 -3z" />
<glyph unicode="&#xe4;" horiz-adv-x="768" d="M-20 90q0 37 7 72q8 39 19 71q69 188 278 355q207 165 443 221q40 9 90 16q45 6 90 6q17 0 25 -6t8 -18q0 -7 -6 -25q-7 -22 -16 -37q0 -1 -3 -7q0 -1 -1.5 -3t-2.5 -4q-15 3 -51 7q-32 4 -47 5h-16h-17q-140 0 -249 -42t-212 -134q-15 -12 -16 -13q-3 -2 -8.5 -7 t-7.5 -8q-53 -51 -89 -102q-39 -55 -65 -105q-20 -42 -31 -86q-10 -41 -10 -84q0 -37 17 -59q17 -21 43 -21q34 0 84 37q54 40 104 94q37 38 83 98q40 52 71 109q24 44 33 62q20 40 28 59q12 29 26 74q6 18 21 81q22 -15 33 -36q10 -20 10 -60q0 -51 -23 -103 q-25 -56 -75 -118q13 0 19 1q2 0 6 1t7 1.5t5 0.5q7 1 32 7q15 4 50 16q-2 -6 -3 -8l-1 -2q-2 -3 -3 -5q-9 -21 -11 -25q-3 -5 -25 -63q-42 -96 -50 -118q-10 -29 -10 -46q0 -9 8 -19q7 -9 19 -7q13 1 34 11q14 6 56 30l18 -27q-54 -41 -126 -70q-81 -32 -162 -53 q5 54 33 137q30 89 85 209q-38 -48 -71 -81q-41 -41 -76 -72q-100 -94 -186 -144q-91 -53 -148 -53q-32 0 -50 24q-17 23 -17 66zM477 1014q0 28 21 49q20 20 47 20q21 0 34 -13t13 -32q0 -27 -21 -48t-47 -21q-18 0 -32 13q-15 13 -15 32zM686 1014q0 28 21 49q20 20 47 20 q20 0 33 -13q14 -14 14 -32q0 -27 -21 -48t-47 -21q-19 0 -33 13t-14 32z" />
<glyph unicode="&#xe5;" horiz-adv-x="768" d="M-20 90q0 37 7 72q8 39 19 71q69 188 278 355q207 165 443 221q40 9 90 16q45 6 90 6q17 0 25 -6t8 -18q0 -7 -6 -25q-7 -22 -16 -37q0 -1 -3 -7q0 -1 -1.5 -3t-2.5 -4q-15 3 -51 7q-32 4 -47 5h-16h-17q-140 0 -249 -42t-212 -134q-15 -12 -16 -13q-3 -2 -8.5 -7 t-7.5 -8q-53 -51 -89 -102q-39 -55 -65 -105q-20 -42 -31 -86q-10 -41 -10 -84q0 -37 17 -59q17 -21 43 -21q34 0 84 37q54 40 104 94q37 38 83 98q40 52 71 109q24 44 33 62q20 40 28 59q12 29 26 74q6 18 21 81q22 -15 33 -36q10 -20 10 -60q0 -51 -23 -103 q-25 -56 -75 -118q13 0 19 1q2 0 6 1t7 1.5t5 0.5q7 1 32 7q15 4 50 16q-2 -6 -3 -8l-1 -2q-2 -3 -3 -5q-9 -21 -11 -25q-3 -5 -25 -63q-42 -96 -50 -118q-10 -29 -10 -46q0 -9 8 -19q7 -9 19 -7q13 1 34 11q14 6 56 30l18 -27q-54 -41 -126 -70q-81 -32 -162 -53 q5 54 33 137q30 89 85 209q-38 -48 -71 -81q-41 -41 -76 -72q-100 -94 -186 -144q-91 -53 -148 -53q-32 0 -50 24q-17 23 -17 66zM514 969q0 5 2 17q1 3 2.5 9.5t1.5 8.5q15 43 55 80q41 38 89 55q3 0 10 1.5t11 2.5q16 2 22 2q25 0 44 -19q17 -17 17 -45q0 -11 -1 -17 q-2 -12 -5 -17q-16 -49 -59 -89q-44 -41 -93 -53q-3 -1 -8.5 -2t-7.5 -1q-5 -1 -16 -1q-29 0 -47 18q-17 17 -17 50zM569 981q0 -16 11 -27q10 -10 26 -10h3h3q36 5 65 37t34 72v5v5q0 16 -10 29q-9 13 -23 14h-1h-1h-1h-1q-10 0 -17 -3q-13 -5 -16 -7q-9 -5 -18 -14 q-2 -2 -5.5 -5t-6.5 -6t-5 -6q-9 -9 -13 -17q-3 -6 -11 -20q-8 -16 -10 -24q-3 -12 -3 -23z" />
<glyph unicode="&#xe6;" horiz-adv-x="1181" d="M-23 88q0 36 10 83q10 46 25 83q77 176 269 332q191 155 409 217q39 11 102 21q46 7 99 7q23 0 35 -5q10 -4 10 -17t-6 -31q-6 -17 -23 -47q-22 4 -41 6q-24 2 -37 2q-20 2 -29 2h-32q-162 0 -300 -69t-251 -209q-24 -30 -35 -46q-5 -7 -10 -15t-11 -18l-9 -15 q-33 -57 -48 -106q-16 -51 -16 -99q0 -40 16 -62t43 -22q37 0 99 47q59 45 127 125q6 6 15 18t13 17q8 10 29 39q15 20 33 47q6 9 16 25.5t13 21.5q36 64 59 126q25 66 45 152q26 -17 37 -40q10 -20 10 -54q0 -42 -25 -104q-24 -59 -69 -121q39 5 60 10q25 5 55 19 q52 102 115 177q64 75 153 136l33 21q19 14 34 20q59 33 120 55q59 21 100 21q42 0 64 -16t22 -44q0 -22 -15 -52q-14 -29 -39 -58q-25 -28 -46 -47q-21 -18 -56 -43q-9 -6 -25.5 -16t-21.5 -13q-19 -12 -49 -25q-37 -17 -76 -28t-64 -11q-30 0 -47 14q-16 13 -22 42 q5 -1 25 -3q8 -1 22 -3h8h8h5h8q94 5 174 54q81 50 88 111v6v5q0 25 -17 37t-47 12q-28 0 -64 -14t-69 -37q-40 -28 -75 -64q-32 -34 -68 -84q-23 -33 -50 -84q-24 -45 -42 -90q-24 -59 -35 -109q-13 -58 -13 -96q0 -53 23 -81q23 -27 68 -27q18 0 41 5q9 2 40 13 q80 35 151 126q74 94 128 224q1 0 2 -2l1 -2q1 -1 3 -4q4 -7 6 -17q2 -12 2 -24q0 -50 -34 -106t-107 -123q-89 -82 -176 -129q-86 -47 -148 -47q-53 0 -85 38q-31 37 -31 101q0 41 12 93q11 50 35 116q-48 -83 -73 -146q-28 -70 -28 -96v-7q0 -1 1.5 -3.5t1.5 -3.5 q1 -3 5 -9q1 -1 3 -5.5t4 -6.5q-20 -10 -72 -30q-34 -13 -80 -25q-8 0 -11 -1t-11 -3v4v2q2 10 3 14q0 2 1 6.5t2 6.5q5 27 28 82q15 37 89 196q-19 -22 -60 -63t-61 -60q-93 -83 -186 -138q-88 -52 -146 -52q-33 0 -49 22q-17 23 -17 68z" />
<glyph unicode="&#xe7;" horiz-adv-x="606" d="M-63 -356q0 38 21 67t60 45q-9 -27 -12 -35q-5 -12 -6 -22v-7v-7q0 -29 14 -46q15 -18 37 -18h5h5q51 6 95 56q42 48 47 110v5v5q0 32 -21 50t-59 18q-7 0 -23 -2q-12 -1 -24 -6q-10 -4 -30 -16t-28 -19l78 170q-48 15 -72 49q-24 35 -24 96q0 57 18 122q17 60 54 128 q39 72 90 136q51 65 121 128q50 44 77 64q39 29 78 51q63 36 131 56t127 20h17q4 0 24 -2l-141 -262h-35q29 60 35 80q8 27 8 40q0 23 -16 30q-15 7 -60 7q-67 0 -118 -27q-52 -27 -99 -90q-36 -47 -53 -74q-22 -35 -45 -77q-38 -72 -61 -145q-23 -74 -23 -129q0 -52 27 -80 q27 -29 75 -29q97 0 185 78q89 78 172 239q0 3 3 7q4 6 5 10q4 -6 6 -12l4 -13v-6v-6q0 -42 -35 -98q-35 -55 -94 -115q-6 -5 -18.5 -16.5t-19.5 -17.5q-17 -16 -42 -34q-60 -45 -110 -70q-54 -27 -101 -34q-4 0 -11.5 -2t-11.5 -2q-16 -2 -22 -2v-2l-43 -90q25 10 45 13 q18 3 35 3q48 0 76 -22q27 -21 27 -60q0 -11 -1 -17q-1 -3 -2.5 -9.5t-1.5 -8.5q-15 -77 -79 -141q-65 -66 -142 -82q-8 -3 -21 -5q-8 -1 -22 -1q-34 0 -54 20q-21 21 -21 56z" />
<glyph unicode="&#xe8;" horiz-adv-x="593" d="M2 121q0 50 10 97t29 101q40 107 102 196q66 95 152 167q34 27 63 47q37 25 66 41q67 33 115 49q59 19 100 19q36 0 57 -15t21 -43q0 -21 -12 -48t-35 -56q-20 -25 -48 -52q-19 -18 -59 -46q-11 -7 -50 -29q-23 -13 -56 -25q-31 -13 -75 -26q-38 -11 -58 -11 q-24 0 -40 13t-26 39q22 -1 36 -3q9 -1 25 -1h4h3h5h7q93 5 171 56q79 53 87 114v5v5q0 23 -16 35t-45 12q-32 0 -61 -11q-36 -14 -62 -32q-38 -24 -65 -50q-33 -31 -60 -67q-40 -52 -64 -94q-27 -48 -49 -100q-24 -56 -41 -122q-14 -56 -14 -112q0 -50 22 -76t64 -26 q27 0 54 9q30 10 56 25q74 45 139 132q68 92 113 204q9 -16 10 -18q3 -7 3 -14q2 -6 2 -9v-8q0 -33 -22 -79t-60 -91q-22 -24 -34 -36q-15 -15 -38 -33q-89 -82 -170 -123q-80 -41 -139 -41q-53 0 -85 35t-32 96zM395 1116l29 86q102 -27 179 -122q76 -93 97 -220 q-58 97 -135 161q-79 65 -170 95z" />
<glyph unicode="&#xe9;" horiz-adv-x="593" d="M2 121q0 50 10 97t29 101q40 107 102 196q66 95 152 167q34 27 63 47q37 25 66 41q67 33 115 49q59 19 100 19q36 0 57 -15t21 -43q0 -21 -12 -48t-35 -56q-20 -25 -48 -52q-19 -18 -59 -46q-11 -7 -50 -29q-23 -13 -56 -25q-31 -13 -75 -26q-38 -11 -58 -11 q-24 0 -40 13t-26 39q22 -1 36 -3q9 -1 25 -1h4h3h5h7q93 5 171 56q79 53 87 114v5v5q0 23 -16 35t-45 12q-32 0 -61 -11q-36 -14 -62 -32q-38 -24 -65 -50q-33 -31 -60 -67q-40 -52 -64 -94q-27 -48 -49 -100q-24 -56 -41 -122q-14 -56 -14 -112q0 -50 22 -76t64 -26 q27 0 54 9q30 10 56 25q74 45 139 132q68 92 113 204q9 -16 10 -18q3 -7 3 -14q2 -6 2 -9v-8q0 -33 -22 -79t-60 -91q-22 -24 -34 -36q-15 -15 -38 -33q-89 -82 -170 -123q-80 -41 -139 -41q-53 0 -85 35t-32 96zM442 860q22 137 86 227q62 88 164 115l39 -86 q-88 -30 -161 -95q-72 -65 -128 -161z" />
<glyph unicode="&#xea;" horiz-adv-x="593" d="M2 121q0 50 10 97t29 101q40 107 102 196q66 95 152 167q34 27 63 47q37 25 66 41q67 33 115 49q59 19 100 19q36 0 57 -15t21 -43q0 -21 -12 -48t-35 -56q-20 -25 -48 -52q-19 -18 -59 -46q-11 -7 -50 -29q-23 -13 -56 -25q-31 -13 -75 -26q-38 -11 -58 -11 q-24 0 -40 13t-26 39q22 -1 36 -3q9 -1 25 -1h4h3h5h7q93 5 171 56q79 53 87 114v5v5q0 23 -16 35t-45 12q-32 0 -61 -11q-36 -14 -62 -32q-38 -24 -65 -50q-33 -31 -60 -67q-40 -52 -64 -94q-27 -48 -49 -100q-24 -56 -41 -122q-14 -56 -14 -112q0 -50 22 -76t64 -26 q27 0 54 9q30 10 56 25q74 45 139 132q68 92 113 204q9 -16 10 -18q3 -7 3 -14q2 -6 2 -9v-8q0 -33 -22 -79t-60 -91q-22 -24 -34 -36q-15 -15 -38 -33q-89 -82 -170 -123q-80 -41 -139 -41q-53 0 -85 35t-32 96zM410 913l3 3l1 2q5 5 12 11q3 3 10.5 9t22 18.5t28.5 24.5 q6 4 20 16q3 2 6 5t6 6.5t5 5.5q59 55 97 99q48 56 112 136l2 -6v-5v-3v-5v-18v-24v-43v-36q0 -10 2 -30v-37q0 -10 2 -32q0 -17 1 -27q2 -20 3 -31q-1 -1 -4 -3l-2 -2t-2 -1q-3 -1 -12 -8q-2 -2 -14 -11.5t-23 -17.5q-3 -3 -9 -7t-7 -7q-3 -1 -7 -5q-3 -4 -8 -5 q-3 -3 -4 -5q-2 -4 -4 -6q0 9 1 12t1 11v14v19q0 81 -4 102q-5 25 -18 25h-4h-5q-6 -1 -21 -16l-50 -54q-33 -36 -59 -58q-22 -19 -39 -20q-6 -2 -8 -2h-7h-7q-3 0 -5 2q-3 0 -5 1q-4 2 -7 3z" />
<glyph unicode="&#xeb;" horiz-adv-x="593" d="M2 121q0 50 10 97t29 101q40 107 102 196q66 95 152 167q34 27 63 47q37 25 66 41q67 33 115 49q59 19 100 19q36 0 57 -15t21 -43q0 -21 -12 -48t-35 -56q-20 -25 -48 -52q-19 -18 -59 -46q-11 -7 -50 -29q-23 -13 -56 -25q-31 -13 -75 -26q-38 -11 -58 -11 q-24 0 -40 13t-26 39q22 -1 36 -3q9 -1 25 -1h4h3h5h7q93 5 171 56q79 53 87 114v5v5q0 23 -16 35t-45 12q-32 0 -61 -11q-36 -14 -62 -32q-38 -24 -65 -50q-33 -31 -60 -67q-40 -52 -64 -94q-27 -48 -49 -100q-24 -56 -41 -122q-14 -56 -14 -112q0 -50 22 -76t64 -26 q27 0 54 9q30 10 56 25q74 45 139 132q68 92 113 204q9 -16 10 -18q3 -7 3 -14q2 -6 2 -9v-8q0 -33 -22 -79t-60 -91q-22 -24 -34 -36q-15 -15 -38 -33q-89 -82 -170 -123q-80 -41 -139 -41q-53 0 -85 35t-32 96zM401 1014q0 28 21 49q20 20 47 20q21 0 34 -13t13 -32 q0 -28 -20 -48q-21 -21 -47 -21q-19 0 -33 13q-15 13 -15 32zM610 1014q0 28 21 49q20 20 47 20q21 0 34 -13t13 -32q0 -28 -20 -48q-21 -21 -48 -21q-18 0 -32 13q-15 13 -15 32z" />
<glyph unicode="&#xec;" horiz-adv-x="364" d="M20 -2q0 7 2 21l3 21q0 7 1.5 21t2.5 21q11 63 40 136q28 71 93 214q65 145 86 197q22 57 24 80q0 13 -7 21q-7 9 -19 9q-7 0 -36 -8q-30 -8 -60 -22l-9 32q13 5 35 13.5t31 11.5q30 12 49 18q1 1 5 3q2 1 5 1q36 15 65 27q35 15 87 39v-10q0 -32 -14 -83 q-18 -66 -39 -122q-18 -45 -30 -73q-21 -50 -42 -95l-74 -166q-30 -68 -46 -111q-13 -37 -15 -55q0 -13 10 -20q11 -8 25 -8q8 0 26 6q7 2 21.5 7.5t17.5 6.5l12 -29l-2 -1q-2 -1 -2 -2q-1 -1 -4 -1q-7 -4 -22.5 -11.5t-20.5 -9.5q-8 -4 -74 -32q-29 -13 -52 -22 q-4 -1 -17.5 -7t-20.5 -8q-1 0 -3.5 -1t-4.5 -2t-4.5 -2t-3.5 -1q-6 -2 -8 -2q-3 0 -11 -2zM307 1116l29 86q102 -27 179 -122q76 -93 97 -220q-58 97 -135 161q-79 65 -170 95z" />
<glyph unicode="&#xed;" horiz-adv-x="364" d="M20 -2q0 7 2 21l3 21q0 7 1.5 21t2.5 21q11 63 40 136q28 71 93 214q65 145 86 197q22 57 24 80q0 13 -7 21q-7 9 -19 9q-7 0 -36 -8q-30 -8 -60 -22l-9 32q13 5 35 13.5t31 11.5q30 12 49 18q1 1 5 3q2 1 5 1q36 15 65 27q35 15 87 39v-10q0 -32 -14 -83 q-18 -66 -39 -122q-18 -45 -30 -73q-21 -50 -42 -95l-74 -166q-30 -68 -46 -111q-13 -37 -15 -55q0 -13 10 -20q11 -8 25 -8q8 0 26 6q7 2 21.5 7.5t17.5 6.5l12 -29l-2 -1q-2 -1 -2 -2q-1 -1 -4 -1q-7 -4 -22.5 -11.5t-20.5 -9.5q-8 -4 -74 -32q-29 -13 -52 -22 q-4 -1 -17.5 -7t-20.5 -8q-1 0 -3.5 -1t-4.5 -2t-4.5 -2t-3.5 -1q-6 -2 -8 -2q-3 0 -11 -2zM299 860q22 137 86 227q62 88 164 115l39 -86q-88 -30 -161 -95q-72 -65 -128 -161z" />
<glyph unicode="&#xee;" horiz-adv-x="364" d="M20 -2q0 7 2 21l3 21q0 7 1.5 21t2.5 21q11 63 40 136q28 71 93 214q65 145 86 197q22 57 24 80q0 13 -7 21q-7 9 -19 9q-7 0 -36 -8q-30 -8 -60 -22l-9 32q13 5 35 13.5t31 11.5q30 12 49 18q1 1 5 3q2 1 5 1q36 15 65 27q35 15 87 39v-10q0 -32 -14 -83 q-18 -66 -39 -122q-18 -45 -30 -73q-21 -50 -42 -95l-74 -166q-30 -68 -46 -111q-13 -37 -15 -55q0 -13 10 -20q11 -8 25 -8q8 0 26 6q7 2 21.5 7.5t17.5 6.5l12 -29l-2 -1q-2 -1 -2 -2q-1 -1 -4 -1q-7 -4 -22.5 -11.5t-20.5 -9.5q-8 -4 -74 -32q-29 -13 -52 -22 q-4 -1 -17.5 -7t-20.5 -8q-1 0 -3.5 -1t-4.5 -2t-4.5 -2t-3.5 -1q-6 -2 -8 -2q-3 0 -11 -2zM225 913l3 3l1 2l2 2q2 1 5 4t6 5q3 3 10.5 9t22 18.5t28.5 24.5q6 4 20 16q3 2 6 5t6 6.5t5 5.5q53 50 96 99q60 69 113 136l2 -6v-5v-3v-5v-18v-24v-43v-36q0 -10 2 -30v-37 q0 -10 2 -32q0 -17 1 -27q2 -20 3 -31q-1 0 -2 -1l-2 -2l-2 -2t-2 -1q-3 -1 -12 -8q-2 -2 -14 -11.5t-23 -17.5q-3 -3 -9 -7q-7 -5 -8 -7q-3 -1 -7 -5t-7 -5q-3 -3 -4 -5q-2 -4 -4 -6q0 9 1 12t1 11v14v19q0 81 -4 102q-5 25 -19 25h-4h-4q-6 -1 -21 -16q-13 -13 -51 -54 q-37 -40 -58 -58q-22 -18 -40 -20q-6 -2 -7 -2h-7h-7q-3 0 -5 2q-4 0 -6 1q-4 2 -7 3z" />
<glyph unicode="&#xef;" horiz-adv-x="364" d="M20 -2q0 7 2 21l3 21q0 7 1.5 21t2.5 21q11 63 40 136q28 71 93 214q65 145 86 197q22 57 24 80q0 13 -7 21q-7 9 -19 9q-7 0 -36 -8q-30 -8 -60 -22l-9 32q13 5 35 13.5t31 11.5q30 12 49 18q1 1 5 3q2 1 5 1q36 15 65 27q35 15 87 39v-10q0 -32 -14 -83 q-18 -66 -39 -122q-18 -45 -30 -73q-21 -50 -42 -95l-74 -166q-30 -68 -46 -111q-13 -37 -15 -55q0 -13 10 -20q11 -8 25 -8q8 0 26 6q7 2 21.5 7.5t17.5 6.5l12 -29l-2 -1q-2 -1 -2 -2q-1 -1 -4 -1q-7 -4 -22.5 -11.5t-20.5 -9.5q-8 -4 -74 -32q-29 -13 -52 -22 q-4 -1 -17.5 -7t-20.5 -8q-1 0 -3.5 -1t-4.5 -2t-4.5 -2t-3.5 -1q-6 -2 -8 -2q-3 0 -11 -2zM272 1014q0 28 21 49q20 20 47 20q21 0 34 -13t13 -32q0 -28 -20 -48q-21 -21 -48 -21q-18 0 -32 13q-15 13 -15 32zM453 1014q0 29 20 49t47 20q21 0 34 -13t13 -32q0 -28 -20 -48 q-21 -21 -47 -21q-19 0 -33 13t-14 32z" />
<glyph unicode="&#xf0;" horiz-adv-x="712" d="M4 100q0 55 16 112q16 55 46 116q50 92 128 178q80 89 183 164q74 51 136 84q66 35 122 53q35 11 61 18q34 9 41 9q9 0 14 -5t5 -8q0 -8 -5 -16q-6 -10 -16 -17q-22 -19 -57 -33q-45 -18 -76 -24q-86 -17 -149 -51q-64 -35 -123 -100q-15 -15 -27 -30q-8 -10 -24 -32 q-39 -54 -48 -68q-20 -32 -38 -73q-31 -63 -45 -113q-15 -56 -15 -98q0 -33 19 -55q18 -21 51 -21q34 0 86 22q50 21 100 58q24 18 48 39q21 19 46 45q84 90 147 192q59 96 99 209q20 58 31 122q10 57 10 118q0 16 -2 48q-1 23 -6 46q-3 15 -16 53q-11 33 -21 58l-176 -58 l-8 31l168 55q-44 75 -106 113q-63 39 -136 39q-86 0 -144 -52q-59 -53 -59 -128v-7v-8q1 -6 7 -36q2 -11 18 -54h-3h-3q-40 0 -61 19q-19 18 -19 53q0 10 2 28q1 10 8 27q25 82 106 150q82 69 175 90q17 5 32 6q22 2 33 2q94 0 168 -50t119 -146l147 47l11 -31l-146 -45 l4 -17q1 -3 2.5 -8t1.5 -6q10 -45 13 -65q4 -29 4 -72q0 -63 -12 -128q-14 -73 -33 -130q-44 -130 -125 -250q-83 -123 -195 -231q-2 0 -7 -6q-4 -4 -5 -7q-119 -109 -225 -173q-107 -64 -172 -64q-45 0 -75 30t-30 82z" />
<glyph unicode="&#xf1;" horiz-adv-x="796" d="M-14 -2q4 4 7 11q4 10 5 14l9 21q3 8 9 22q32 69 70 158q24 56 94 227q51 126 66 170q16 48 16 75q0 18 -7 26q-7 9 -22 9h-3h-3q-9 0 -21 -4q-4 -1 -20 -5.5t-28 -8.5l-6 32q2 0 19 6q12 4 17 5q13 4 36.5 11.5t33.5 10.5q37 12 66 25q20 7 46 18l48 21q2 -8 2 -11v-8 q0 -43 -39 -151t-107 -256q180 202 319 312q137 108 218 108q22 0 36 -14q13 -13 13 -36q0 -34 -23 -89q-22 -52 -108 -218q-13 -25 -29 -55q-5 -10 -30 -64q-1 -2 -2.5 -4t-1.5 -3l-2 -3l-2 -4q-28 -58 -34 -70q-18 -34 -30 -63q-13 -24 -20 -46q-7 -23 -7 -30q0 -12 8 -20 t19 -8q7 0 24 5q4 1 31 11q3 1 9 4t8 5q9 5 16 11l16 -26q-64 -46 -131 -74q-67 -29 -153 -45q0 8 1 13q1 3 2 8.5t1 7.5q7 41 24 92q6 17 48 125q20 51 53 120q20 42 65 132l23 41l20 43l23 41q19 39 25 54q8 19 8 28q0 11 -6 19q-6 7 -17 7q-23 0 -84 -44 q-60 -44 -127 -109q-8 -8 -17 -17.5t-19.5 -21t-16.5 -17.5q-27 -28 -51 -57q-78 -90 -140 -195q-66 -112 -116 -227q-5 0 -8 -1l-9 -3q-20 -5 -49 -15q-17 -6 -65 -26zM473 932q5 19 12 37q2 6 6.5 16t6.5 14q21 50 45 68t63 18q16 0 39 -3q27 -4 62 -13q32 -8 50 -11 q21 -3 34 -3q23 0 38 9q13 8 29 30q0 3 1 5q2 4 3 5l21 -2q-1 -7 -5 -16l-2.5 -5t-2.5 -5.5t-1 -4.5q-22 -65 -50 -91t-74 -26h-4h-1h-5h-3q-8 0 -23 3q-4 1 -63 16q-13 3 -51 10q-21 4 -37 4q-21 0 -33 -6q-10 -5 -22 -25q0 -1 -5 -8q-4 -6 -5 -10l-1 -1q-1 -1 -1 -3t-1 -3 t-1 -3z" />
<glyph unicode="&#xf2;" horiz-adv-x="677" d="M4 145q0 45 10 89q10 45 29 92q43 101 126 199t193 171q26 18 66 39q35 18 70 35q57 26 114 41q52 14 99 14q21 0 32 -11q13 -13 13 -28v-3v-3q0 -6 -3 -15l-10 -28q-16 3 -48 5q-14 1 -42 1q-125 0 -218 -43q-97 -45 -163 -131q-31 -40 -57 -88q-24 -44 -47 -100 q-23 -53 -35 -105q-12 -51 -12 -92q0 -49 29 -81q28 -31 71 -31q35 0 79 24q41 23 89 72q21 21 37 41q28 35 37 47q3 5 10 15t10 15q14 20 19 31q36 58 56 119q20 62 20 109q0 30 -17 52q-17 21 -41 21q-40 0 -78 -39q-38 -40 -73 -120l-4 16q0 1 -1 3.5t-1.5 4.5t-0.5 4v3 v4q0 32 22 68q20 33 67 69q38 31 73 47q31 14 62 14q47 0 79 -38q31 -37 31 -91q0 -64 -30 -133q-29 -66 -91 -141q-24 -30 -38 -44q-28 -28 -43 -42q-104 -96 -197 -148q-95 -53 -160 -53q-57 0 -95 41t-38 102zM395 1116l29 86q102 -27 179 -122q76 -93 97 -220 q-58 97 -135 161q-79 65 -170 95z" />
<glyph unicode="&#xf3;" horiz-adv-x="677" d="M4 145q0 45 10 89q10 45 29 92q43 101 126 199t193 171q26 18 66 39q35 18 70 35q57 26 114 41q52 14 99 14q21 0 32 -11q13 -13 13 -28v-3v-3q0 -6 -3 -15l-10 -28q-16 3 -48 5q-14 1 -42 1q-125 0 -218 -43q-97 -45 -163 -131q-31 -40 -57 -88q-24 -44 -47 -100 q-23 -53 -35 -105q-12 -51 -12 -92q0 -49 29 -81q28 -31 71 -31q35 0 79 24q41 23 89 72q21 21 37 41q28 35 37 47q3 5 10 15t10 15q14 20 19 31q36 58 56 119q20 62 20 109q0 30 -17 52q-17 21 -41 21q-40 0 -78 -39q-38 -40 -73 -120l-4 16q0 1 -1 3.5t-1.5 4.5t-0.5 4v3 v4q0 32 22 68q20 33 67 69q38 31 73 47q31 14 62 14q47 0 79 -38q31 -37 31 -91q0 -64 -30 -133q-29 -66 -91 -141q-24 -30 -38 -44q-28 -28 -43 -42q-104 -96 -197 -148q-95 -53 -160 -53q-57 0 -95 41t-38 102zM524 860q22 137 86 227q62 88 164 115l39 -86 q-88 -30 -161 -95q-72 -65 -128 -161z" />
<glyph unicode="&#xf4;" horiz-adv-x="677" d="M4 145q0 45 10 89q10 45 29 92q43 101 126 199t193 171q26 18 66 39q35 18 70 35q57 26 114 41q52 14 99 14q21 0 32 -11q13 -13 13 -28v-3v-3q0 -6 -3 -15l-10 -28q-16 3 -48 5q-14 1 -42 1q-125 0 -218 -43q-97 -45 -163 -131q-31 -40 -57 -88q-24 -44 -47 -100 q-23 -53 -35 -105q-12 -51 -12 -92q0 -49 29 -81q28 -31 71 -31q35 0 79 24q41 23 89 72q21 21 37 41q28 35 37 47q3 5 10 15t10 15q14 20 19 31q36 58 56 119q20 62 20 109q0 30 -17 52q-17 21 -41 21q-40 0 -78 -39q-38 -40 -73 -120l-4 16q0 1 -1 3.5t-1.5 4.5t-0.5 4v3 v4q0 32 22 68q20 33 67 69q38 31 73 47q31 14 62 14q47 0 79 -38q31 -37 31 -91q0 -64 -30 -133q-29 -66 -91 -141q-24 -30 -38 -44q-28 -28 -43 -42q-104 -96 -197 -148q-95 -53 -160 -53q-57 0 -95 41t-38 102zM451 913l3 3l1 2q5 5 12 11q3 3 10.5 9t22 18.5t28.5 24.5 q6 4 20 16q3 2 6 5t6 6.5t5 5.5q59 55 97 99q48 56 112 136l2 -6v-5v-3v-5v-18v-24v-43v-36q0 -10 2 -30v-37q0 -10 2 -32q0 -17 1 -27q2 -20 3 -31q-1 -1 -4 -3q0 -1 -2 -2l-2 -1q-3 -1 -12 -8q-2 -2 -14 -11.5t-23 -17.5q-3 -3 -9 -7t-7 -7q-3 -1 -7 -5t-8 -5q-3 -3 -4 -5 q-2 -4 -4 -6q0 9 1 12t1 11v14v19q0 81 -4 102q-5 25 -18 25h-4h-5q-6 -1 -21 -16q-4 -4 -10.5 -11t-18.5 -20t-21 -23q-33 -36 -59 -58q-22 -18 -40 -20q-6 -2 -7 -2h-7h-7q-3 0 -5 2q-3 0 -5 1q-4 2 -7 3z" />
<glyph unicode="&#xf5;" horiz-adv-x="677" d="M4 145q0 45 10 89q10 45 29 92q43 101 126 199t193 171q26 18 66 39q35 18 70 35q57 26 114 41q52 14 99 14q21 0 32 -11q13 -13 13 -28v-3v-3q0 -6 -3 -15l-10 -28q-16 3 -48 5q-14 1 -42 1q-125 0 -218 -43q-97 -45 -163 -131q-31 -40 -57 -88q-24 -44 -47 -100 q-23 -53 -35 -105q-12 -51 -12 -92q0 -49 29 -81q28 -31 71 -31q35 0 79 24q41 23 89 72q21 21 37 41q28 35 37 47q3 5 10 15t10 15q14 20 19 31q36 58 56 119q20 62 20 109q0 30 -17 52q-17 21 -41 21q-40 0 -78 -39q-38 -40 -73 -120l-4 16q0 1 -1 3.5t-1.5 4.5t-0.5 4v3 v4q0 32 22 68q20 33 67 69q38 31 73 47q31 14 62 14q47 0 79 -38q31 -37 31 -91q0 -64 -30 -133q-29 -66 -91 -141q-24 -30 -38 -44q-28 -28 -43 -42q-104 -96 -197 -148q-95 -53 -160 -53q-57 0 -95 41t-38 102zM412 932q5 19 12 37l12 30q21 50 45 68t64 18q17 0 39 -3 q25 -3 61 -13q32 -8 50 -11q21 -3 34 -3q24 0 39 9q13 8 29 30q0 3 1 5q2 4 3 5l20 -2q-1 -7 -5 -16q-4 -10 -5 -15q-22 -65 -50 -91t-75 -26h-3h-1h-5h-3q-9 0 -24 3q-4 1 -12.5 3t-23.5 6t-26 7q-13 3 -51 10q-21 4 -37 4q-21 0 -33 -6t-23 -25q0 -1 -5 -8q-4 -6 -5 -10 l-1 -1q-1 -1 -1 -3t-1 -3t-1 -3z" />
<glyph unicode="&#xf6;" horiz-adv-x="677" d="M4 145q0 45 10 89q10 45 29 92q43 101 126 199t193 171q26 18 66 39q35 18 70 35q57 26 114 41q52 14 99 14q21 0 32 -11q13 -13 13 -28v-3v-3q0 -6 -3 -15l-10 -28q-16 3 -48 5q-14 1 -42 1q-125 0 -218 -43q-97 -45 -163 -131q-31 -40 -57 -88q-24 -44 -47 -100 q-23 -53 -35 -105q-12 -51 -12 -92q0 -49 29 -81q28 -31 71 -31q35 0 79 24q41 23 89 72q21 21 37 41q28 35 37 47q3 5 10 15t10 15q14 20 19 31q36 58 56 119q20 62 20 109q0 30 -17 52q-17 21 -41 21q-40 0 -78 -39q-38 -40 -73 -120l-4 16q0 1 -1 3.5t-1.5 4.5t-0.5 4v3 v4q0 32 22 68q20 33 67 69q38 31 73 47q31 14 62 14q47 0 79 -38q31 -37 31 -91q0 -64 -30 -133q-29 -66 -91 -141q-24 -30 -38 -44q-28 -28 -43 -42q-104 -96 -197 -148q-95 -53 -160 -53q-57 0 -95 41t-38 102zM473 1014q0 28 21 49q20 20 47 20q20 0 33 -13 q14 -14 14 -32q0 -27 -21 -48t-47 -21q-19 0 -33 13t-14 32zM682 1014q0 29 20 49t48 20q20 0 33 -13q14 -14 14 -32q0 -27 -21 -48t-47 -21q-19 0 -33 13t-14 32z" />
<glyph unicode="&#xf7;" d="M176 557l23 57h684l-23 -57h-684zM385 317q0 29 21 50q20 20 47 20q20 0 33 -13q14 -14 14 -32q0 -27 -21 -48q-22 -22 -47 -22q-17 0 -33 14q-14 13 -14 31zM578 838q0 29 20 49t47 20q21 0 34 -13t13 -32q0 -28 -20 -48q-21 -21 -47 -21q-19 0 -33 13t-14 32z" />
<glyph unicode="&#xf8;" horiz-adv-x="675" d="M-25 -150l103 162q-39 23 -59 56q-19 32 -19 82q0 44 13 95q13 50 38 105q22 47 48 89q25 39 63 83q7 6 11 14q3 5 11 13q29 33 69 68q43 38 81 63q27 18 70 43q37 22 85 47q37 20 40 21q18 7 30 18q13 7 23 15q3 3 6.5 6t7.5 7.5t6 6.5q15 15 34 42l44 66h35l-164 -256 h10q56 0 94 -38q37 -37 37 -97q0 -55 -24 -118q-22 -58 -72 -124q-24 -35 -67 -79q-35 -36 -83 -78q-87 -73 -173 -119q-80 -43 -138 -43h-11q-5 0 -15 2l-97 -152h-37zM117 176q0 -18 3 -32q3 -11 11 -25q3 -3 4 -5t4 -5l330 514q-47 -11 -79 -38t-60 -87q-10 -17 -12 -23 q-2 -4 -5.5 -12.5t-5.5 -13.5q-1 9 -3 16l-3 12v5v5v10q0 3 2 9q7 56 67 108q60 53 142 76l43 70q-35 -15 -73 -33q-29 -14 -62 -33q-67 -38 -108 -76q-39 -36 -74 -92q-24 -36 -42 -73q-17 -35 -34 -78q-20 -51 -33 -106q-12 -53 -12 -93zM164 86l14 -7q8 -4 12 -5 q2 0 6.5 -1t6.5 -2q4 -1 14 -1q34 0 75 22q38 21 85 64q23 23 35 37q17 20 34 43l36 54q12 18 32 54q24 47 43 105q16 49 16 90q0 35 -16 55q-17 22 -51 29z" />
<glyph unicode="&#xf9;" horiz-adv-x="747" d="M20 84q0 48 27 120q29 77 96 220q67 139 96 204q18 39 23 66v5v6q0 17 -9 24q-10 8 -26 8q-4 0 -20 -2q-8 -1 -35 -10l-8 31q14 4 48.5 14t50.5 15q49 15 81 28l36 15q31 13 34 14q0 -12 -2 -32q-1 -6 -2.5 -15.5t-1.5 -12.5q-2 -5 -5 -14.5t-5 -14.5q-3 -10 -11 -32 t-28 -68t-35 -75l-29 -58l-29 -59l-28 -60q-5 -12 -24 -52q-9 -19 -40 -91q-22 -46 -29 -68q-8 -26 -8 -40q0 -21 10 -32t27 -11q51 0 119 58q74 63 156 169q33 45 56 77q30 42 48 70q19 29 43 72q23 40 39 80q18 37 33 70q9 21 32 83q3 0 9 2t8 2t8 1t8 2q33 7 47 11 q39 12 56 19q-6 -8 -8 -12q-4 -8 -7 -12q-1 -2 -2.5 -6t-1.5 -5t-1.5 -4.5t-2.5 -5.5q-17 -33 -30 -62q-5 -12 -18 -40t-20 -45q-69 -157 -99 -230q-5 -11 -22 -52.5t-24 -59.5v-3v-1q-1 -3 -3 -7q-1 -2 -3 -8q-25 -70 -25 -71q-6 -21 -6 -35q0 -16 9 -23q10 -8 26 -8 q13 0 33 5q11 3 45 16l14 -27q-30 -16 -102 -47q-55 -23 -166 -66q5 33 12 70q2 10 4.5 21t5.5 24.5t5 20.5q26 86 31 100q16 46 42 112q-128 -160 -244 -254q-117 -94 -192 -94q-29 0 -47 20q-19 21 -19 50zM430 1116l29 86q102 -27 179 -122q76 -93 97 -220 q-58 97 -135 161q-79 65 -170 95z" />
<glyph unicode="&#xfa;" horiz-adv-x="747" d="M20 84q0 48 27 120q29 77 96 220q67 139 96 204q18 39 23 66v5v6q0 17 -9 24q-10 8 -26 8q-4 0 -20 -2q-8 -1 -35 -10l-8 31q14 4 48.5 14t50.5 15q49 15 81 28l36 15q31 13 34 14q0 -12 -2 -32q-1 -6 -2.5 -15.5t-1.5 -12.5q-2 -5 -5 -14.5t-5 -14.5q-3 -10 -11 -32 t-28 -68t-35 -75l-29 -58l-29 -59l-28 -60q-5 -12 -24 -52q-9 -19 -40 -91q-22 -46 -29 -68q-8 -26 -8 -40q0 -21 10 -32t27 -11q51 0 119 58q74 63 156 169q33 45 56 77q30 42 48 70q19 29 43 72q23 40 39 80q18 37 33 70q9 21 32 83q3 0 9 2t8 2t8 1t8 2q33 7 47 11 q39 12 56 19q-6 -8 -8 -12q-4 -8 -7 -12q-1 -2 -2.5 -6t-1.5 -5t-1.5 -4.5t-2.5 -5.5q-17 -33 -30 -62q-5 -12 -18 -40t-20 -45q-69 -157 -99 -230q-5 -11 -22 -52.5t-24 -59.5v-3v-1q-1 -3 -3 -7q-1 -2 -3 -8q-25 -70 -25 -71q-6 -21 -6 -35q0 -16 9 -23q10 -8 26 -8 q13 0 33 5q11 3 45 16l14 -27q-30 -16 -102 -47q-55 -23 -166 -66q5 33 12 70q2 10 4.5 21t5.5 24.5t5 20.5q26 86 31 100q16 46 42 112q-128 -160 -244 -254q-117 -94 -192 -94q-29 0 -47 20q-19 21 -19 50zM559 860q22 137 86 227q62 88 164 115l39 -86q-88 -30 -161 -95 q-72 -65 -128 -161z" />
<glyph unicode="&#xfb;" horiz-adv-x="747" d="M20 84q0 48 27 120q29 77 96 220q67 139 96 204q18 39 23 66v5v6q0 17 -9 24q-10 8 -26 8q-4 0 -20 -2q-8 -1 -35 -10l-8 31q14 4 48.5 14t50.5 15q49 15 81 28l36 15q31 13 34 14q0 -12 -2 -32q-1 -6 -2.5 -15.5t-1.5 -12.5q-2 -5 -5 -14.5t-5 -14.5q-3 -10 -11 -32 t-28 -68t-35 -75l-29 -58l-29 -59l-28 -60q-5 -12 -24 -52q-9 -19 -40 -91q-22 -46 -29 -68q-8 -26 -8 -40q0 -21 10 -32t27 -11q51 0 119 58q74 63 156 169q33 45 56 77q30 42 48 70q19 29 43 72q23 40 39 80q18 37 33 70q9 21 32 83q3 0 9 2t8 2t8 1t8 2q33 7 47 11 q39 12 56 19q-6 -8 -8 -12q-4 -8 -7 -12q-1 -2 -2.5 -6t-1.5 -5t-1.5 -4.5t-2.5 -5.5q-17 -33 -30 -62q-5 -12 -18 -40t-20 -45q-69 -157 -99 -230q-5 -11 -22 -52.5t-24 -59.5v-3v-1q-1 -3 -3 -7q-1 -2 -3 -8q-25 -70 -25 -71q-6 -21 -6 -35q0 -16 9 -23q10 -8 26 -8 q13 0 33 5q11 3 45 16l14 -27q-30 -16 -102 -47q-55 -23 -166 -66q5 33 12 70q2 10 4.5 21t5.5 24.5t5 20.5q26 86 31 100q16 46 42 112q-128 -160 -244 -254q-117 -94 -192 -94q-29 0 -47 20q-19 21 -19 50zM459 913l3 3l1 2q5 5 12 11q2 2 10.5 9t22.5 18.5t29 24.5 q4 3 11 9t8 7q3 2 6 5t6 6.5t5 5.5q59 55 97 99q48 56 112 136l2 -6v-5v-3v-5v-18v-24v-43v-36q0 -10 2 -30v-37q0 -5 0.5 -10t1.5 -11.5t1 -10.5q0 -17 1 -27q2 -20 3 -31q-1 -1 -4 -3q-1 -1 -3 -2l-2 -1q-3 -1 -12 -8q-2 -2 -14 -11.5t-23 -17.5q-3 -3 -9 -7t-7 -7 q-3 -1 -7 -5t-7 -5l-5 -5q-1 -2 -4 -5q0 8 1 11t1 11v14v19q0 81 -4 102q-5 25 -18 25h-4h-4q-8 -1 -22 -16l-50 -54q-37 -40 -58 -58q-22 -18 -40 -20q-6 -2 -7 -2h-8h-7q-3 0 -5 2q-3 0 -5 1q-4 2 -7 3z" />
</font>
</defs>
</svg>
